<?xml version="1.0" encoding="UTF-8"?><svg id="Layer_2" xmlns="http://www.w3.org/2000/svg" viewBox="0 0 665.5 674.74"><defs><style>.cls-1{fill:#ddc9a1;}.cls-1,.cls-2,.cls-3,.cls-4,.cls-5,.cls-6,.cls-7,.cls-8,.cls-9,.cls-10,.cls-11,.cls-12,.cls-13,.cls-14,.cls-15,.cls-16,.cls-17,.cls-18,.cls-19,.cls-20,.cls-21,.cls-22,.cls-23,.cls-24{stroke-width:0px;}.cls-2{fill:#9f8d67;}.cls-3{fill:#f2a0a0;}.cls-4{fill:#ed6e6e;}.cls-25{stroke:#ed6e6e;}.cls-25,.cls-7{fill:#c43d3d;}.cls-25,.cls-26{stroke-width:1.42px;}.cls-25,.cls-26,.cls-27,.cls-28{stroke-miterlimit:10;}.cls-5{fill:#b9cbe3;}.cls-6{fill:#7f2121;}.cls-29{letter-spacing:-.02em;}.cls-8{fill:#6f0000;}.cls-26{stroke:#b2a388;}.cls-26,.cls-27,.cls-28{fill:none;}.cls-9{fill:#fff8dc;}.cls-10{fill:#d4bc89;}.cls-11{fill:#560d0d;}.cls-12{fill:#bb042b;}.cls-13{fill:#7f4141;}.cls-14{fill:#143d56;}.cls-27{stroke:#1e2442;stroke-linecap:round;stroke-width:2.83px;}.cls-28{stroke:#666;stroke-width:.57px;}.cls-30{opacity:.75;}.cls-15{fill:#64a2a3;}.cls-31{letter-spacing:-.06em;}.cls-32{fill:#131613;font-family:HelveticaNeue-CondensedBold, 'Helvetica Neue';font-size:9.92px;font-weight:700;}.cls-33{letter-spacing:.02em;}.cls-16{fill:#1e2442;}.cls-17{fill:#d06464;}.cls-18{fill:#327576;}.cls-19{fill:#4e4e4e;}.cls-20{fill:#786b56;}.cls-21{fill:#fff;}.cls-22{fill:#a08f73;}.cls-23{fill:#001a5b;}.cls-24{fill:#3b3b3b;}</style></defs><g id="Layer_2-2"><polygon class="cls-8" points="1.5 1.74 372.5 1.74 664.5 301.74 293.5 301.74 1.5 1.74"/><polyline class="cls-25" points="1 373.24 1.5 1.74 293.5 301.74 293.5 672.74"/><polygon class="cls-7" points="294.5 672.74 665.5 301.74 294.5 301.74 294.5 672.74"/><polygon class="cls-7" points="662.5 303.74 291.5 674.74 662.5 674.74 662.5 303.74"/><polygon class="cls-17" points="295.5 674.74 663.5 303.74 295.5 303.74 295.5 674.74"/><polygon class="cls-11" points="665.5 672.74 294.5 390.74 294.5 672.74 665.5 672.74"/></g><g id="Layer_3"><rect class="cls-20" x="311.5" y="364.74" width="270" height="34"/><polyline class="cls-20" points="602.5 396.74 581 364.24 581 499.24 602.5 499.24"/><polyline class="cls-22" points="467.5 666.74 446 634.24 467.5 634.24 467.5 666.74"/><polyline class="cls-22" points="467.5 531.74 446 499.24 446 634.24 467.5 634.24"/><rect class="cls-9" x="467.5" y="531.74" width="135" height="135"/><line class="cls-26" x1="495" y1="547.74" x2="495" y2="650.74"/><line class="cls-26" x1="537" y1="547.74" x2="537" y2="650.74"/><line class="cls-26" x1="514" y1="547.74" x2="514" y2="650.74"/><line class="cls-26" x1="578" y1="547.74" x2="578" y2="650.74"/><line class="cls-26" x1="557" y1="547.74" x2="557" y2="650.74"/><g class="cls-30"><path class="cls-15" d="M581.5,600.15c-22.47,21.87-58.36,21.39-80.23-1.08"/><line class="cls-14" x1="502.29" y1="598.7" x2="581.21" y2="599.79"/><path class="cls-18" d="M501.27,599.07c22.47-21.87,58.36-21.39,80.23,1.08"/><circle class="cls-16" cx="562.66" cy="592.52" r="2.36"/><path class="cls-27" d="M549.75,615.25c-8.44-8.44-8.28-22.27.36-30.91"/><path class="cls-27" d="M538.84,615.61c-8.84-8.84-8.84-23.16,0-32"/><path class="cls-27" d="M527.57,613.79c-8.04-8.04-8.2-20.89-.36-28.73"/><polygon class="cls-18" points="488.73 599.25 510.14 599.25 488.73 586.88 488.73 599.25"/><polygon class="cls-15" points="488.73 611.61 510.14 599.25 488.73 599.25 488.73 611.61"/></g><rect class="cls-10" x="459.19" y="591.24" width="150.61" height="16" transform="translate(-267.18 553.46) rotate(-45)"/><rect class="cls-2" x="467.24" y="596.88" width="150.61" height="4.82" transform="translate(-264.85 559.17) rotate(-45)"/><rect class="cls-1" x="457.24" y="590.88" width="150.61" height="4.82" transform="translate(-263.54 550.34) rotate(-45)"/><rect class="cls-10" x="467.5" y="531.74" width="135" height="16"/><rect class="cls-2" x="467.5" y="531.74" width="135" height="4"/><rect class="cls-1" x="467.5" y="543.74" width="135" height="4"/><rect class="cls-10" x="543" y="591.24" width="103" height="16" transform="translate(1193.74 4.74) rotate(90)"/><rect class="cls-2" x="549" y="597.24" width="103" height="4" transform="translate(1.26 1199.74) rotate(-90)"/><rect class="cls-1" x="537" y="597.24" width="103" height="4" transform="translate(-10.74 1187.74) rotate(-90)"/><rect class="cls-10" x="467.5" y="650.74" width="135" height="16"/><rect class="cls-2" x="467.5" y="662.74" width="135" height="4"/><rect class="cls-1" x="467.5" y="650.74" width="135" height="4"/><rect class="cls-10" x="424" y="591.24" width="103" height="16" transform="translate(-123.74 1074.74) rotate(-90)"/><rect class="cls-2" x="418" y="597.24" width="103" height="4" transform="translate(-129.74 1068.74) rotate(-90)"/><rect class="cls-1" x="430" y="597.24" width="103" height="4" transform="translate(-117.74 1080.74) rotate(-90)"/><circle class="cls-24" cx="594.5" cy="539.74" r="4"/><circle class="cls-19" cx="594.5" cy="539.74" r="2.67"/><line class="cls-28" x1="594.57" y1="538.27" x2="594.57" y2="541.08"/><line class="cls-28" x1="595.97" y1="539.62" x2="593.17" y2="539.62"/><circle class="cls-24" cx="475.5" cy="658.74" r="4"/><circle class="cls-19" cx="475.5" cy="658.74" r="2.67"/><line class="cls-28" x1="475.57" y1="657.27" x2="475.57" y2="660.08"/><line class="cls-28" x1="476.97" y1="658.62" x2="474.17" y2="658.62"/><circle class="cls-24" cx="594.5" cy="658.74" r="4"/><circle class="cls-19" cx="594.5" cy="658.74" r="2.67"/><line class="cls-28" x1="594.57" y1="657.27" x2="594.57" y2="660.08"/><line class="cls-28" x1="595.97" y1="658.62" x2="593.17" y2="658.62"/><circle class="cls-24" cx="476.5" cy="540.74" r="4"/><circle class="cls-19" cx="476.5" cy="540.74" r="2.67"/><line class="cls-28" x1="476.57" y1="539.27" x2="476.57" y2="542.08"/><line class="cls-28" x1="477.97" y1="540.62" x2="475.17" y2="540.62"/><text class="cls-32" transform="translate(497.49 661.83)"><tspan x="0" y="0">CAUGHT IN NO</tspan><tspan class="cls-33" x="56.2" y="0">R</tspan><tspan class="cls-29" x="61.92" y="0">W</tspan><tspan class="cls-31" x="69.28" y="0">A</tspan><tspan x="74.25" y="0">Y</tspan></text><g class="cls-30"><rect class="cls-12" x="487.5" y="551.21" width="33" height="23.37"/><rect class="cls-21" x="496.41" y="551.21" width="4.17" height="23.54"/><rect class="cls-21" x="501.92" y="546.38" width="4.16" height="33" transform="translate(-58.88 1066.88) rotate(-90)"/><rect class="cls-23" x="502.72" y="546.32" width="2.57" height="33" transform="translate(-58.82 1066.82) rotate(-90)"/><rect class="cls-23" x="497.11" y="551.21" width="2.72" height="23.54"/></g><polyline class="cls-22" points="467.5 531.74 446 499.24 467.5 499.24 467.5 531.74"/><rect class="cls-9" x="467.5" y="396.74" width="135" height="135"/><line class="cls-26" x1="495" y1="412.74" x2="495" y2="515.74"/><line class="cls-26" x1="537" y1="412.74" x2="537" y2="515.74"/><line class="cls-26" x1="514" y1="412.74" x2="514" y2="515.74"/><line class="cls-26" x1="578" y1="412.74" x2="578" y2="515.74"/><line class="cls-26" x1="557" y1="412.74" x2="557" y2="515.74"/><g class="cls-30"><path class="cls-15" d="M581.5,465.15c-22.47,21.87-58.36,21.39-80.23-1.08"/><line class="cls-14" x1="502.29" y1="463.7" x2="581.21" y2="464.79"/><path class="cls-18" d="M501.27,464.07c22.47-21.87,58.36-21.39,80.23,1.08"/><circle class="cls-16" cx="562.66" cy="457.52" r="2.36"/><path class="cls-27" d="M549.75,480.25c-8.44-8.44-8.28-22.27.36-30.91"/><path class="cls-27" d="M538.84,480.61c-8.84-8.84-8.84-23.16,0-32"/><path class="cls-27" d="M527.57,478.79c-8.04-8.04-8.2-20.89-.36-28.73"/><polygon class="cls-18" points="488.73 464.25 510.14 464.25 488.73 451.88 488.73 464.25"/><polygon class="cls-15" points="488.73 476.61 510.14 464.25 488.73 464.25 488.73 476.61"/></g><rect class="cls-10" x="459.19" y="456.24" width="150.61" height="16" transform="translate(-171.72 513.92) rotate(-45)"/><rect class="cls-2" x="467.24" y="461.88" width="150.61" height="4.82" transform="translate(-169.39 519.63) rotate(-45)"/><rect class="cls-1" x="457.24" y="455.88" width="150.61" height="4.82" transform="translate(-168.08 510.8) rotate(-45)"/><rect class="cls-10" x="467.5" y="396.74" width="135" height="16"/><rect class="cls-2" x="467.5" y="396.74" width="135" height="4"/><rect class="cls-1" x="467.5" y="408.74" width="135" height="4"/><rect class="cls-10" x="543" y="456.24" width="103" height="16" transform="translate(1058.74 -130.26) rotate(90)"/><rect class="cls-2" x="549" y="462.24" width="103" height="4" transform="translate(136.26 1064.74) rotate(-90)"/><rect class="cls-1" x="537" y="462.24" width="103" height="4" transform="translate(124.26 1052.74) rotate(-90)"/><rect class="cls-10" x="467.5" y="515.74" width="135" height="16"/><rect class="cls-2" x="467.5" y="527.74" width="135" height="4"/><rect class="cls-1" x="467.5" y="515.74" width="135" height="4"/><rect class="cls-10" x="424" y="456.24" width="103" height="16" transform="translate(11.26 939.74) rotate(-90)"/><rect class="cls-2" x="418" y="462.24" width="103" height="4" transform="translate(5.26 933.74) rotate(-90)"/><rect class="cls-1" x="430" y="462.24" width="103" height="4" transform="translate(17.26 945.74) rotate(-90)"/><circle class="cls-24" cx="594.5" cy="404.74" r="4"/><circle class="cls-19" cx="594.5" cy="404.74" r="2.67"/><line class="cls-28" x1="594.57" y1="403.27" x2="594.57" y2="406.08"/><line class="cls-28" x1="595.97" y1="404.62" x2="593.17" y2="404.62"/><circle class="cls-24" cx="475.5" cy="523.74" r="4"/><circle class="cls-19" cx="475.5" cy="523.74" r="2.67"/><line class="cls-28" x1="475.57" y1="522.27" x2="475.57" y2="525.08"/><line class="cls-28" x1="476.97" y1="523.62" x2="474.17" y2="523.62"/><circle class="cls-24" cx="594.5" cy="523.74" r="4"/><circle class="cls-19" cx="594.5" cy="523.74" r="2.67"/><line class="cls-28" x1="594.57" y1="522.27" x2="594.57" y2="525.08"/><line class="cls-28" x1="595.97" y1="523.62" x2="593.17" y2="523.62"/><circle class="cls-24" cx="476.5" cy="405.74" r="4"/><circle class="cls-19" cx="476.5" cy="405.74" r="2.67"/><line class="cls-28" x1="476.57" y1="404.27" x2="476.57" y2="407.08"/><line class="cls-28" x1="477.97" y1="405.62" x2="475.17" y2="405.62"/><text class="cls-32" transform="translate(497.49 526.83)"><tspan x="0" y="0">CAUGHT IN NO</tspan><tspan class="cls-33" x="56.2" y="0">R</tspan><tspan class="cls-29" x="61.92" y="0">W</tspan><tspan class="cls-31" x="69.28" y="0">A</tspan><tspan x="74.25" y="0">Y</tspan></text><g class="cls-30"><rect class="cls-12" x="487.5" y="416.21" width="33" height="23.37"/><rect class="cls-21" x="496.41" y="416.21" width="4.17" height="23.54"/><rect class="cls-21" x="501.92" y="411.38" width="4.16" height="33" transform="translate(76.12 931.88) rotate(-90)"/><rect class="cls-23" x="502.72" y="411.32" width="2.57" height="33" transform="translate(76.18 931.82) rotate(-90)"/><rect class="cls-23" x="497.11" y="416.21" width="2.72" height="23.54"/></g><polygon class="cls-13" points="423.13 605.23 423.22 605.23 423.13 605.17 423.13 605.23"/><polygon class="cls-13" points="423.13 544.23 423.22 544.23 423.13 544.17 423.13 544.23"/><polygon class="cls-13" points="423.13 482.23 423.22 482.23 423.13 482.17 423.13 482.23"/><polygon class="cls-13" points="423.13 421.23 423.22 421.23 423.13 421.17 423.13 421.23"/><polygon class="cls-13" points="423.13 359.23 423.22 359.23 423.13 359.17 423.13 359.23"/><polygon class="cls-13" points="576.13 605.23 576.22 605.23 576.13 605.17 576.13 605.23"/><polygon class="cls-13" points="576.13 544.23 576.22 544.23 576.13 544.17 576.13 544.23"/><polygon class="cls-13" points="576.13 482.23 576.22 482.23 576.13 482.17 576.13 482.23"/><polygon class="cls-13" points="576.13 421.23 576.22 421.23 576.13 421.17 576.13 421.23"/><polygon class="cls-13" points="576.13 359.23 576.22 359.23 576.13 359.17 576.13 359.23"/><line class="cls-5" y1="1.24" x2=".5" y2="375.74"/><rect class="cls-8" x="9.5" y="40.74" width="7" height="326"/><rect class="cls-4" x="-43.98" y="495.39" width="381.24" height="7.27" transform="translate(395.81 42.47) rotate(45)"/><rect class="cls-6" x="-44.23" y="170.46" width="383.96" height="7.07" transform="translate(166.31 -53.51) rotate(45)"/><polygon class="cls-7" points="233.05 285.02 233.05 540.46 256 568.15 256 312.71 233.05 285.02"/><polygon class="cls-8" points="256 584.73 261.44 591.3 261.44 319.28 256 312.71 256 584.73"/><polygon class="cls-3" points="227.5 550.33 232.94 556.9 232.94 284.89 227.5 278.32 227.5 550.33"/><polygon class="cls-6" points="232.94 268.31 232.94 284.89 256 312.71 256 296.14 232.94 268.31"/><polygon class="cls-8" points="256 312.71 261.44 302.71 261.44 319.28 256 312.71"/><polygon class="cls-6" points="261.44 302.71 256 312.71 256 296.14 261.44 302.71"/><polygon class="cls-3" points="227.5 261.74 232.94 284.89 227.5 278.32 227.5 261.74"/><polygon class="cls-6" points="232.94 284.89 227.5 261.74 232.94 268.31 232.94 284.89"/><polygon class="cls-4" points="256 584.73 256 568.15 232.94 540.33 232.94 556.9 256 584.73"/><polygon class="cls-4" points="227.5 550.33 232.94 540.33 232.94 556.9 227.5 550.33"/><polygon class="cls-4" points="256 568.15 261.44 591.3 256 584.73 256 568.15"/><polygon class="cls-7" points="185.05 239.02 185.05 494.46 208 522.15 208 266.71 185.05 239.02"/><polygon class="cls-8" points="208 538.73 213.44 545.3 213.44 273.28 208 266.71 208 538.73"/><polygon class="cls-3" points="179.5 504.33 184.94 510.9 184.94 238.89 179.5 232.32 179.5 504.33"/><polygon class="cls-6" points="184.94 222.31 184.94 238.89 208 266.71 208 250.14 184.94 222.31"/><polygon class="cls-8" points="208 266.71 213.44 256.71 213.44 273.28 208 266.71"/><polygon class="cls-6" points="213.44 256.71 208 266.71 208 250.14 213.44 256.71"/><polygon class="cls-3" points="179.5 215.74 184.94 238.89 179.5 232.32 179.5 215.74"/><polygon class="cls-6" points="184.94 238.89 179.5 215.74 184.94 222.31 184.94 238.89"/><polygon class="cls-4" points="208 538.73 208 522.15 184.94 494.33 184.94 510.9 208 538.73"/><polygon class="cls-4" points="179.5 504.33 184.94 494.33 184.94 510.9 179.5 504.33"/><polygon class="cls-4" points="208 522.15 213.44 545.3 208 538.73 208 522.15"/><polygon class="cls-7" points="137.05 193.02 137.05 448.46 160 476.15 160 220.71 137.05 193.02"/><polygon class="cls-8" points="160 492.73 165.44 499.3 165.44 227.28 160 220.71 160 492.73"/><polygon class="cls-3" points="131.5 458.33 136.94 464.9 136.94 192.89 131.5 186.32 131.5 458.33"/><polygon class="cls-6" points="136.94 176.31 136.94 192.89 160 220.71 160 204.14 136.94 176.31"/><polygon class="cls-8" points="160 220.71 165.44 210.71 165.44 227.28 160 220.71"/><polygon class="cls-6" points="165.44 210.71 160 220.71 160 204.14 165.44 210.71"/><polygon class="cls-3" points="131.5 169.74 136.94 192.89 131.5 186.32 131.5 169.74"/><polygon class="cls-6" points="136.94 192.89 131.5 169.74 136.94 176.31 136.94 192.89"/><polygon class="cls-4" points="160 492.73 160 476.15 136.94 448.33 136.94 464.9 160 492.73"/><polygon class="cls-4" points="131.5 458.33 136.94 448.33 136.94 464.9 131.5 458.33"/><polygon class="cls-4" points="160 476.15 165.44 499.3 160 492.73 160 476.15"/><polygon class="cls-7" points="89.05 147.02 89.05 402.46 112 430.15 112 174.71 89.05 147.02"/><polygon class="cls-8" points="112 446.73 117.44 453.3 117.44 181.28 112 174.71 112 446.73"/><polygon class="cls-3" points="83.5 412.33 88.94 418.9 88.94 146.89 83.5 140.32 83.5 412.33"/><polygon class="cls-6" points="88.94 130.31 88.94 146.89 112 174.71 112 158.14 88.94 130.31"/><polygon class="cls-8" points="112 174.71 117.44 164.71 117.44 181.28 112 174.71"/><polygon class="cls-6" points="117.44 164.71 112 174.71 112 158.14 117.44 164.71"/><polygon class="cls-3" points="83.5 123.74 88.94 146.89 83.5 140.32 83.5 123.74"/><polygon class="cls-6" points="88.94 146.89 83.5 123.74 88.94 130.31 88.94 146.89"/><polygon class="cls-4" points="112 446.73 112 430.15 88.94 402.33 88.94 418.9 112 446.73"/><polygon class="cls-4" points="83.5 412.33 88.94 402.33 88.94 418.9 83.5 412.33"/><polygon class="cls-4" points="112 430.15 117.44 453.3 112 446.73 112 430.15"/><polygon class="cls-7" points="41.05 101.02 41.05 356.46 64 384.15 64 128.71 41.05 101.02"/><polygon class="cls-8" points="64 400.73 69.44 407.3 69.44 135.28 64 128.71 64 400.73"/><polygon class="cls-3" points="35.5 366.33 40.94 372.9 40.94 100.89 35.5 94.32 35.5 366.33"/><polygon class="cls-6" points="40.94 84.31 40.94 100.89 64 128.71 64 112.14 40.94 84.31"/><polygon class="cls-8" points="64 128.71 69.44 118.71 69.44 135.28 64 128.71"/><polygon class="cls-6" points="69.44 118.71 64 128.71 64 112.14 69.44 118.71"/><polygon class="cls-3" points="35.5 77.74 40.94 100.89 35.5 94.32 35.5 77.74"/><polygon class="cls-6" points="40.94 100.89 35.5 77.74 40.94 84.31 40.94 100.89"/><polygon class="cls-4" points="64 400.73 64 384.15 40.94 356.33 40.94 372.9 64 400.73"/><polygon class="cls-4" points="35.5 366.33 40.94 356.33 40.94 372.9 35.5 366.33"/><polygon class="cls-4" points="64 384.15 69.44 407.3 64 400.73 64 384.15"/><polyline class="cls-22" points="332.5 666.74 311 634.24 332.5 634.24 332.5 666.74"/><polyline class="cls-22" points="332.5 531.74 311 499.24 311 634.24 332.5 634.24"/><rect class="cls-9" x="332.5" y="531.74" width="135" height="135"/><line class="cls-26" x1="360" y1="547.74" x2="360" y2="650.74"/><line class="cls-26" x1="402" y1="547.74" x2="402" y2="650.74"/><line class="cls-26" x1="379" y1="547.74" x2="379" y2="650.74"/><line class="cls-26" x1="443" y1="547.74" x2="443" y2="650.74"/><line class="cls-26" x1="422" y1="547.74" x2="422" y2="650.74"/><g class="cls-30"><path class="cls-15" d="M446.5,600.15c-22.47,21.87-58.36,21.39-80.23-1.08"/><line class="cls-14" x1="367.29" y1="598.7" x2="446.21" y2="599.79"/><path class="cls-18" d="M366.27,599.07c22.47-21.87,58.36-21.39,80.23,1.08"/><circle class="cls-16" cx="427.66" cy="592.52" r="2.36"/><path class="cls-27" d="M414.75,615.25c-8.44-8.44-8.28-22.27.36-30.91"/><path class="cls-27" d="M403.84,615.61c-8.84-8.84-8.84-23.16,0-32"/><path class="cls-27" d="M392.57,613.79c-8.04-8.04-8.2-20.89-.36-28.73"/><polygon class="cls-18" points="353.73 599.25 375.14 599.25 353.73 586.88 353.73 599.25"/><polygon class="cls-15" points="353.73 611.61 375.14 599.25 353.73 599.25 353.73 611.61"/></g><rect class="cls-10" x="324.19" y="591.24" width="150.61" height="16" transform="translate(-306.72 458) rotate(-45)"/><rect class="cls-2" x="332.24" y="596.88" width="150.61" height="4.82" transform="translate(-304.39 463.71) rotate(-45)"/><rect class="cls-1" x="322.24" y="590.88" width="150.61" height="4.82" transform="translate(-303.08 454.88) rotate(-45)"/><rect class="cls-10" x="332.5" y="531.74" width="135" height="16"/><rect class="cls-2" x="332.5" y="531.74" width="135" height="4"/><rect class="cls-1" x="332.5" y="543.74" width="135" height="4"/><rect class="cls-10" x="408" y="591.24" width="103" height="16" transform="translate(1058.74 139.74) rotate(90)"/><rect class="cls-2" x="414" y="597.24" width="103" height="4" transform="translate(-133.74 1064.74) rotate(-90)"/><rect class="cls-1" x="402" y="597.24" width="103" height="4" transform="translate(-145.74 1052.74) rotate(-90)"/><rect class="cls-10" x="332.5" y="650.74" width="135" height="16"/><rect class="cls-2" x="332.5" y="662.74" width="135" height="4"/><rect class="cls-1" x="332.5" y="650.74" width="135" height="4"/><rect class="cls-10" x="289" y="591.24" width="103" height="16" transform="translate(-258.74 939.74) rotate(-90)"/><rect class="cls-2" x="283" y="597.24" width="103" height="4" transform="translate(-264.74 933.74) rotate(-90)"/><rect class="cls-1" x="295" y="597.24" width="103" height="4" transform="translate(-252.74 945.74) rotate(-90)"/><circle class="cls-24" cx="459.5" cy="539.74" r="4"/><circle class="cls-19" cx="459.5" cy="539.74" r="2.67"/><line class="cls-28" x1="459.57" y1="538.27" x2="459.57" y2="541.08"/><line class="cls-28" x1="460.97" y1="539.62" x2="458.17" y2="539.62"/><circle class="cls-24" cx="340.5" cy="658.74" r="4"/><circle class="cls-19" cx="340.5" cy="658.74" r="2.67"/><line class="cls-28" x1="340.57" y1="657.27" x2="340.57" y2="660.08"/><line class="cls-28" x1="341.97" y1="658.62" x2="339.17" y2="658.62"/><circle class="cls-24" cx="459.5" cy="658.74" r="4"/><circle class="cls-19" cx="459.5" cy="658.74" r="2.67"/><line class="cls-28" x1="459.57" y1="657.27" x2="459.57" y2="660.08"/><line class="cls-28" x1="460.97" y1="658.62" x2="458.17" y2="658.62"/><circle class="cls-24" cx="341.5" cy="540.74" r="4"/><circle class="cls-19" cx="341.5" cy="540.74" r="2.67"/><line class="cls-28" x1="341.57" y1="539.27" x2="341.57" y2="542.08"/><line class="cls-28" x1="342.97" y1="540.62" x2="340.17" y2="540.62"/><text class="cls-32" transform="translate(362.49 661.83)"><tspan x="0" y="0">CAUGHT IN NO</tspan><tspan class="cls-33" x="56.2" y="0">R</tspan><tspan class="cls-29" x="61.92" y="0">W</tspan><tspan class="cls-31" x="69.28" y="0">A</tspan><tspan x="74.25" y="0">Y</tspan></text><g class="cls-30"><rect class="cls-12" x="352.5" y="551.21" width="33" height="23.37"/><rect class="cls-21" x="361.41" y="551.21" width="4.17" height="23.54"/><rect class="cls-21" x="366.92" y="546.38" width="4.16" height="33" transform="translate(-193.88 931.88) rotate(-90)"/><rect class="cls-23" x="367.72" y="546.32" width="2.57" height="33" transform="translate(-193.82 931.82) rotate(-90)"/><rect class="cls-23" x="362.11" y="551.21" width="2.72" height="23.54"/></g><polyline class="cls-22" points="332.5 531.74 311 499.24 332.5 499.24 332.5 531.74"/><polyline class="cls-22" points="332.5 396.74 311 364.24 311 499.24 332.5 499.24"/><rect class="cls-9" x="332.5" y="396.74" width="135" height="135"/><line class="cls-26" x1="360" y1="412.74" x2="360" y2="515.74"/><line class="cls-26" x1="402" y1="412.74" x2="402" y2="515.74"/><line class="cls-26" x1="379" y1="412.74" x2="379" y2="515.74"/><line class="cls-26" x1="443" y1="412.74" x2="443" y2="515.74"/><line class="cls-26" x1="422" y1="412.74" x2="422" y2="515.74"/><g class="cls-30"><path class="cls-15" d="M446.5,465.15c-22.47,21.87-58.36,21.39-80.23-1.08"/><line class="cls-14" x1="367.29" y1="463.7" x2="446.21" y2="464.79"/><path class="cls-18" d="M366.27,464.07c22.47-21.87,58.36-21.39,80.23,1.08"/><circle class="cls-16" cx="427.66" cy="457.52" r="2.36"/><path class="cls-27" d="M414.75,480.25c-8.44-8.44-8.28-22.27.36-30.91"/><path class="cls-27" d="M403.84,480.61c-8.84-8.84-8.84-23.16,0-32"/><path class="cls-27" d="M392.57,478.79c-8.04-8.04-8.2-20.89-.36-28.73"/><polygon class="cls-18" points="353.73 464.25 375.14 464.25 353.73 451.88 353.73 464.25"/><polygon class="cls-15" points="353.73 476.61 375.14 464.25 353.73 464.25 353.73 476.61"/></g><rect class="cls-10" x="324.19" y="456.24" width="150.61" height="16" transform="translate(-211.26 418.46) rotate(-45)"/><rect class="cls-2" x="332.24" y="461.88" width="150.61" height="4.82" transform="translate(-208.93 424.17) rotate(-45)"/><rect class="cls-1" x="322.24" y="455.88" width="150.61" height="4.82" transform="translate(-207.62 415.34) rotate(-45)"/><rect class="cls-10" x="332.5" y="396.74" width="135" height="16"/><rect class="cls-2" x="332.5" y="396.74" width="135" height="4"/><rect class="cls-1" x="332.5" y="408.74" width="135" height="4"/><rect class="cls-10" x="408" y="456.24" width="103" height="16" transform="translate(923.74 4.74) rotate(90)"/><rect class="cls-2" x="414" y="462.24" width="103" height="4" transform="translate(1.26 929.74) rotate(-90)"/><rect class="cls-1" x="402" y="462.24" width="103" height="4" transform="translate(-10.74 917.74) rotate(-90)"/><rect class="cls-10" x="332.5" y="515.74" width="135" height="16"/><rect class="cls-2" x="332.5" y="527.74" width="135" height="4"/><rect class="cls-1" x="332.5" y="515.74" width="135" height="4"/><rect class="cls-10" x="289" y="456.24" width="103" height="16" transform="translate(-123.74 804.74) rotate(-90)"/><rect class="cls-2" x="283" y="462.24" width="103" height="4" transform="translate(-129.74 798.74) rotate(-90)"/><rect class="cls-1" x="295" y="462.24" width="103" height="4" transform="translate(-117.74 810.74) rotate(-90)"/><circle class="cls-24" cx="459.5" cy="404.74" r="4"/><circle class="cls-19" cx="459.5" cy="404.74" r="2.67"/><line class="cls-28" x1="459.57" y1="403.27" x2="459.57" y2="406.08"/><line class="cls-28" x1="460.97" y1="404.62" x2="458.17" y2="404.62"/><circle class="cls-24" cx="340.5" cy="523.74" r="4"/><circle class="cls-19" cx="340.5" cy="523.74" r="2.67"/><line class="cls-28" x1="340.57" y1="522.27" x2="340.57" y2="525.08"/><line class="cls-28" x1="341.97" y1="523.62" x2="339.17" y2="523.62"/><circle class="cls-24" cx="459.5" cy="523.74" r="4"/><circle class="cls-19" cx="459.5" cy="523.74" r="2.67"/><line class="cls-28" x1="459.57" y1="522.27" x2="459.57" y2="525.08"/><line class="cls-28" x1="460.97" y1="523.62" x2="458.17" y2="523.62"/><circle class="cls-24" cx="341.5" cy="405.74" r="4"/><circle class="cls-19" cx="341.5" cy="405.74" r="2.67"/><line class="cls-28" x1="341.57" y1="404.27" x2="341.57" y2="407.08"/><line class="cls-28" x1="342.97" y1="405.62" x2="340.17" y2="405.62"/><text class="cls-32" transform="translate(362.49 526.83)"><tspan x="0" y="0">CAUGHT IN NO</tspan><tspan class="cls-33" x="56.2" y="0">R</tspan><tspan class="cls-29" x="61.92" y="0">W</tspan><tspan class="cls-31" x="69.28" y="0">A</tspan><tspan x="74.25" y="0">Y</tspan></text><g class="cls-30"><rect class="cls-12" x="352.5" y="416.21" width="33" height="23.37"/><rect class="cls-21" x="361.41" y="416.21" width="4.17" height="23.54"/><rect class="cls-21" x="366.92" y="411.38" width="4.16" height="33" transform="translate(-58.88 796.88) rotate(-90)"/><rect class="cls-23" x="367.72" y="411.32" width="2.57" height="33" transform="translate(-58.82 796.82) rotate(-90)"/><rect class="cls-23" x="362.11" y="416.21" width="2.72" height="23.54"/></g></g></svg>