<?xml version="1.0" encoding="UTF-8"?><svg id="Layer_2" xmlns="http://www.w3.org/2000/svg" viewBox="0 0 186 371"><defs><style>.cls-1{stroke:#b9cbe3;}.cls-1,.cls-2{fill:none;stroke-miterlimit:10;stroke-width:5.67px;}.cls-3{fill:#ed6e6e;}.cls-3,.cls-4,.cls-5,.cls-6,.cls-7,.cls-8,.cls-9{stroke-width:0px;}.cls-4{fill:#b9cbe3;}.cls-5{fill:#7f2121;}.cls-6{fill:#ed4842;}.cls-2{stroke:#8e9fb2;}.cls-7{fill:#c43d3d;}.cls-8{fill:#6f0000;}.cls-9{fill:#8e9fb2;}</style></defs><g id="Layer_3"><rect class="cls-6" x="1" width="185" height="371"/><rect class="cls-3" x="47.43" y="313.35" width="132.03" height="10.54"/><rect class="cls-7" x="47.43" y="303.69" width="117.49" height="9.65"/><rect class="cls-5" x="47.43" y="292.63" width="132.03" height="11.08"/><polygon class="cls-8" points="164.25 313.29 179.46 324.2 179.46 292.63 164.25 303.54 164.25 313.29"/><rect class="cls-3" x="47.43" y="252.35" width="132.03" height="10.54"/><rect class="cls-7" x="47.43" y="242.69" width="117.49" height="9.65"/><rect class="cls-5" x="47.43" y="231.63" width="132.03" height="11.08"/><polygon class="cls-8" points="164.25 252.29 179.46 263.2 179.46 231.63 164.25 242.54 164.25 252.29"/><rect class="cls-3" x="47.43" y="190.35" width="132.03" height="10.54"/><rect class="cls-7" x="47.43" y="180.69" width="117.49" height="9.65"/><rect class="cls-5" x="47.43" y="169.63" width="132.03" height="11.08"/><polygon class="cls-8" points="164.25 190.29 179.46 201.2 179.46 169.63 164.25 180.54 164.25 190.29"/><rect class="cls-3" x="47.43" y="129.35" width="132.03" height="10.54"/><rect class="cls-7" x="47.43" y="119.69" width="117.49" height="9.65"/><rect class="cls-5" x="47.43" y="108.63" width="132.03" height="11.08"/><polygon class="cls-8" points="164.25 129.29 179.46 140.2 179.46 108.63 164.25 119.54 164.25 129.29"/><rect class="cls-3" x="47.43" y="67.35" width="132.03" height="10.54"/><rect class="cls-7" x="47.43" y="57.69" width="117.49" height="9.65"/><rect class="cls-5" x="47.43" y="46.63" width="132.03" height="11.08"/><polygon class="cls-8" points="164.25 67.29 179.46 78.2 179.46 46.63 164.25 57.54 164.25 67.29"/><rect class="cls-7" x="33.27" y="23.6" width="6.96" height="338.4" transform="translate(73.5 385.6) rotate(180)"/><rect class="cls-5" x="107.37" y="-51.14" width="7.6" height="141.87" transform="translate(91.37 130.97) rotate(-90)"/><polyline class="cls-7" points="40.23 23.6 33.27 16 33.27 23.6"/><polyline class="cls-5" points="33.27 16 40.23 23.6 40.23 16"/><rect class="cls-3" x="107.24" y="287.14" width="7.85" height="141.87" transform="translate(469.24 246.91) rotate(90)"/><line class="cls-1" x1="171" y1="47" x2="171" y2="324"/><rect class="cls-4" x="155" y="355.67" width="30" height="15.33" rx="7.67" ry="7.67"/><line class="cls-2" x1="171" y1="324" x2="171" y2="363"/><circle class="cls-9" cx="171" cy="364" r="5"/><line class="cls-2" x1="171" y1="47" x2="171" y2="8"/><rect class="cls-4" x="4.12" y="60" width="18.94" height="14"/><rect class="cls-9" y="60" width="4.12" height="14"/><rect class="cls-4" x="4.12" y="103" width="18.94" height="14"/><rect class="cls-9" y="103" width="4.12" height="14"/><rect class="cls-4" x="4.12" y="146" width="18.94" height="14"/><rect class="cls-9" y="146" width="4.12" height="14"/><rect class="cls-4" x="4.12" y="189" width="18.94" height="14"/><rect class="cls-9" y="189" width="4.12" height="14"/><rect class="cls-4" x="4.12" y="232" width="18.94" height="14"/><rect class="cls-9" y="232" width="4.12" height="14"/><rect class="cls-4" x="4.12" y="275" width="18.94" height="14"/><rect class="cls-9" y="275" width="4.12" height="14"/><rect class="cls-4" x="4.12" y="318" width="18.94" height="14"/><rect class="cls-9" y="318" width="4.12" height="14"/></g></svg>