<?xml version="1.0" encoding="UTF-8"?>
<svg id="Layer_2" data-name="Layer 2" xmlns="http://www.w3.org/2000/svg" viewBox="0 0 383.47 124.11">
  <defs>
    <style>
      .cls-1 {
        fill: #fff;
      }

      .cls-1, .cls-2, .cls-3, .cls-4 {
        stroke: #000;
        stroke-miterlimit: 10;
      }

      .cls-2 {
        fill: #b1a051;
      }

      .cls-5 {
        fill: #000;
      }

      .cls-5, .cls-6 {
        stroke-width: 0px;
      }

      .cls-6 {
        fill: #c4c1cb;
      }

      .cls-3 {
        fill: none;
      }

      .cls-4 {
        fill: #d5e2e4;
      }
    </style>
  </defs>
  <g id="Layer_1-2" data-name="Layer 1">
    <g>
      <path class="cls-4" d="M.8,92.66c12.94-10.74,29.02-22.05,48.52-32.02,55.73-28.51,109.08-30.58,139.73-29.11,17.71-.37,31.95,1.05,41.72,2.43,17.09,2.41,23.94,5.17,38.33,6.31,16.77,1.33,30.66-.59,39.78-2.43,20.86-12.29,41.72-24.58,62.59-36.87l-6.31,39.78,17.47,35.42-54.82-6.31c-9.62,1.05-23.97,3.22-40.75,8.25-21.29,6.37-32.15,13.03-55.31,22.8-12.38,5.23-30.3,12.2-52.88,18.92-21.57,2.81-47.46,4.59-76.66,3.4-30.28-1.24-56.78-5.38-78.6-10.19-2.43-.45-15.53-3.11-20.86-14.07-.8-1.63-1.55-3.73-1.94-6.31Z"/>
      <line class="cls-3" x1="322.59" y1="34.47" x2="368.32" y2="11.15"/>
      <line class="cls-3" x1="327.54" y1="39.09" x2="367.51" y2="25.9"/>
      <line class="cls-3" x1="333.09" y1="51.07" x2="367.51" y2="48.53"/>
      <path class="cls-6" d="M365.63,37.75l-34.23,7.59c-60.12,21.02-111.79,33.27-150.6,40.74-64.9,12.48-100.36,12.82-121.14,12.19-24.37-.74-44.62-3.31-58.86-5.6,44.3-37.64,82.09-47.98,100.22-52.75,53.77-14.14,105.56-8.18,105.56-8.18,21.84-.15,36.13,2.46,45.37,5.04,2.57.72,8.65,2.52,17.14,3.49,11.4,1.3,20.08.28,22.21.01,6.48-.82,16.3-2.81,27.37-8.21l12.73,13.27"/>
      <line class="cls-3" x1="333.46" y1="58.88" x2="375.77" y2="62.29"/>
      <line class="cls-3" x1="331.92" y1="64.69" x2="381.33" y2="73.55"/>
      <g>
        <circle class="cls-1" cx="26.76" cy="86.45" r="5.93"/>
        <circle class="cls-5" cx="26.76" cy="86.45" r="1.72"/>
      </g>
      <path class="cls-3" d="M49.72,117.96c1.92-1.24,10.44-7.04,13.36-18.59,3.05-12.08-2.26-21.59-3.35-23.45"/>
      <polygon class="cls-3" points=".57 93.61 27.02 103.77 26.07 109.64 .83 96.37 .57 93.61"/>
      <path class="cls-3" d="M76.62,121.71c14.61-5.12,23.61-18.5,22.34-31.62-1.28-13.22-12.47-20.65-14.08-21.68,25.37-6.49,46.95-10.25,62.99-12.54,26.09-3.72,39.14-5.58,57-4.28,20.51,1.49,25.94,5.39,46.74,6.84,20.58,1.44,37.45-.83,48.17-2.85"/>
      <g>
        <path class="cls-2" d="M78.27,46.03c2.11-5.38,6.26-13.98,14.29-22.29,6.81-7.04,13.83-11.22,18.67-13.61,1.55,1.71,4.15,4.28,7.87,6.66,4.8,3.08,7.96,3.61,13.43,6.2,2.92,1.38,7.18,3.67,12.02,7.4,8.02-7.91,16.05-15.83,24.07-23.74,8.79.79,18.54,2.17,29,4.48,16.73,3.69,31.05,8.8,42.7,13.89-1.79,2.66-3.58,5.32-5.36,7.98-31.02-3.71-70.29-4.76-114.49,3.06-15.22,2.7-29.32,6.14-42.23,9.97Z"/>
        <line class="cls-2" x1="90.08" y1="42.73" x2="114.51" y2="13.34"/>
        <line class="cls-2" x1="103.76" y1="39.41" x2="120.99" y2="17.93"/>
        <line class="cls-2" x1="117.28" y1="36.65" x2="128.56" y2="21.28"/>
        <line class="cls-2" x1="129.01" y1="34.65" x2="135.07" y2="24.73"/>
        <line class="cls-2" x1="138.56" y1="33.31" x2="141.74" y2="28.34"/>
        <line class="cls-2" x1="154.1" y1="31.14" x2="176.18" y2="8.21"/>
        <line class="cls-2" x1="165.57" y1="30.18" x2="185.56" y2="8.81"/>
        <line class="cls-2" x1="176.47" y1="30.34" x2="194.61" y2="10.49"/>
        <line class="cls-2" x1="188.18" y1="29.36" x2="202.66" y2="12.3"/>
        <line class="cls-2" x1="198.7" y1="30.32" x2="211.3" y2="14.58"/>
        <line class="cls-2" x1="208.63" y1="30.73" x2="219.1" y2="16.96"/>
        <line class="cls-2" x1="218.27" y1="31.35" x2="226.39" y2="19.46"/>
        <line class="cls-2" x1="227.4" y1="31.54" x2="233.6" y2="22.2"/>
      </g>
      <g>
        <path class="cls-3" d="M110.39,88.17c.89.13,8.02,1.28,11.76,7.87,2.96,5.21,2.64,11.8-.81,16.99"/>
        <path class="cls-2" d="M111.34,88.7c6.54-3.4,14.44-6.87,23.62-9.75,15.07-4.72,28.59-6.24,38.99-6.56-8,7.75-16,15.5-24,23.25l-26.06,4.87c-.88-1.84-2.57-4.77-5.62-7.5-2.58-2.31-5.17-3.6-6.94-4.31Z"/>
        <path class="cls-2" d="M117.02,91.97c6.23-3.4,14.25-7.1,23.93-10.02,10.74-3.24,20.35-4.56,27.93-5.06"/>
        <path class="cls-2" d="M120.13,94.87c5.66-2.6,12.38-5.24,20.08-7.48,8.47-2.46,16.22-3.87,22.87-4.69"/>
        <path class="cls-2" d="M122.47,97.94c4.17-1.88,9.3-3.81,15.3-5.3,6.76-1.69,12.83-2.39,17.81-2.62"/>
      </g>
    </g>
  </g>
</svg>