<?xml version="1.0" encoding="UTF-8"?>
<svg id="Layer_2" data-name="Layer 2" xmlns="http://www.w3.org/2000/svg" viewBox="0 0 397.83 83.91">
  <defs>
    <style>
      .cls-1, .cls-2, .cls-3, .cls-4, .cls-5 {
        stroke: #000;
      }

      .cls-1, .cls-2, .cls-3, .cls-5 {
        stroke-miterlimit: 10;
      }

      .cls-1, .cls-4 {
        fill: #fff;
      }

      .cls-2 {
        fill: #a6babc;
      }

      .cls-3 {
        fill: #b1a051;
      }

      .cls-4 {
        stroke-miterlimit: 10;
        stroke-width: 1px;
      }

      .cls-6 {
        fill: #000;
      }

      .cls-6, .cls-7 {
        stroke-width: 0px;
      }

      .cls-5 {
        fill: none;
      }

      .cls-7 {
        fill: #d3a95e;
      }
    </style>
  </defs>
  <g id="Layer_1-2" data-name="Layer 1">
    <g>
      <g>
        <path class="cls-2" d="M151.68,52.65c3-3.39,6.72-6.95,11.24-10.1,12.91-8.99,25.27-9.64,32.36-9.18,4.1-.12,7.4.33,9.66.77,3.96.76,5.55,1.63,8.88,1.99,3.89.42,7.1-.19,9.21-.77,4.83-3.88,9.66-7.75,14.5-11.63l-1.46,12.55,4.05,11.17-12.7-1.99c-2.23.33-5.55,1.02-9.44,2.6-4.93,2.01-7.45,4.11-12.81,7.19-2.87,1.65-7.02,3.85-12.25,5.97-5,.89-10.99,1.45-17.76,1.07-7.01-.39-13.15-1.7-18.21-3.21-.56-.14-3.6-.98-4.83-4.44-.18-.52-.36-1.18-.45-1.99h.01Z"/>
        <line class="cls-5" x1="226.22" y1="34.3" x2="236.81" y2="26.94"/>
        <line class="cls-5" x1="227.36" y1="35.76" x2="236.62" y2="31.6"/>
        <line class="cls-5" x1="228.65" y1="39.53" x2="236.62" y2="38.73"/>
        <path class="cls-7" d="M236.18,35.33l-7.93,2.39c-13.93,6.63-25.89,10.49-34.88,12.85-15.03,3.94-23.25,4.04-28.06,3.84-5.65-.23-10.33-1.05-13.63-1.77,10.26-11.87,19.01-15.13,23.21-16.64,12.45-4.46,24.45-2.58,24.45-2.58,5.06-.05,8.37.78,10.51,1.59.6.23,2,.8,3.97,1.1,2.64.41,4.65.09,5.15,0,1.5-.26,3.77-.89,6.34-2.59l2.95,4.19"/>
        <line class="cls-5" x1="228.73" y1="42" x2="238.53" y2="43.07"/>
        <line class="cls-5" x1="228.38" y1="43.83" x2="239.82" y2="46.62"/>
        <g>
          <ellipse class="cls-1" cx="157.69" cy="50.69" rx="1.37" ry="1.87"/>
          <ellipse class="cls-6" cx="157.69" cy="50.69" rx=".4" ry=".54"/>
        </g>
        <path class="cls-5" d="M163.01,60.63c.45-.39,2.42-2.22,3.09-5.86.71-3.81-.52-6.81-.78-7.4"/>
        <polygon class="cls-5" points="151.63 52.95 157.75 56.15 157.53 58.01 151.69 53.82 151.63 52.95"/>
        <path class="cls-5" d="M169.24,61.81c3.38-1.61,5.47-5.84,5.18-9.97-.3-4.17-2.89-6.51-3.26-6.84,5.88-2.05,10.87-3.23,14.59-3.96,6.04-1.17,9.06-1.76,13.2-1.35,4.75.47,6.01,1.7,10.83,2.16,4.77.45,8.68-.26,11.16-.9"/>
        <g>
          <path class="cls-3" d="M169.63,37.94c.49-1.7,1.45-4.41,3.31-7.03,1.58-2.22,3.2-3.54,4.33-4.29.36.54.96,1.35,1.82,2.1,1.11.97,1.84,1.14,3.11,1.96.68.44,1.66,1.16,2.79,2.33,1.86-2.5,3.72-4.99,5.58-7.49,2.04.25,4.29.68,6.72,1.41,3.87,1.16,7.19,2.77,9.89,4.38-.41.84-.83,1.68-1.24,2.52-7.19-1.17-16.28-1.5-26.52.97-3.53.85-6.79,1.94-9.78,3.14h0Z"/>
          <line class="cls-5" x1="172.36" y1="36.9" x2="178.02" y2="27.63"/>
          <line class="cls-5" x1="175.53" y1="35.86" x2="179.52" y2="29.08"/>
          <line class="cls-5" x1="178.66" y1="34.98" x2="181.27" y2="30.14"/>
          <line class="cls-5" x1="181.38" y1="34.36" x2="182.78" y2="31.23"/>
          <line class="cls-5" x1="183.59" y1="33.93" x2="184.33" y2="32.36"/>
          <line class="cls-5" x1="187.19" y1="33.25" x2="192.3" y2="26.02"/>
          <line class="cls-5" x1="189.85" y1="32.95" x2="194.48" y2="26.2"/>
          <line class="cls-5" x1="192.37" y1="32.99" x2="196.57" y2="26.73"/>
          <line class="cls-5" x1="195.08" y1="32.69" x2="198.44" y2="27.31"/>
          <line class="cls-5" x1="197.52" y1="32.99" x2="200.44" y2="28.03"/>
          <line class="cls-5" x1="199.82" y1="33.12" x2="202.24" y2="28.78"/>
          <line class="cls-5" x1="202.05" y1="33.32" x2="203.93" y2="29.56"/>
          <line class="cls-5" x1="204.17" y1="33.37" x2="205.6" y2="30.43"/>
        </g>
        <g>
          <path class="cls-5" d="M177.06,51.23c.21.04,1.86.41,2.72,2.48.69,1.64.61,3.72-.19,5.36"/>
          <path class="cls-3" d="M177.28,51.4c1.51-1.07,3.34-2.17,5.47-3.07,3.49-1.49,6.62-1.97,9.03-2.07-1.85,2.44-3.71,4.89-5.56,7.33l-6.04,1.54c-.2-.58-.6-1.51-1.3-2.36-.6-.73-1.2-1.13-1.61-1.36h0Z"/>
          <path class="cls-3" d="M178.6,52.43c1.44-1.07,3.3-2.24,5.54-3.16,2.49-1.02,4.71-1.44,6.47-1.6"/>
          <path class="cls-3" d="M179.32,53.35c1.31-.82,2.87-1.65,4.65-2.36,1.96-.78,3.76-1.22,5.3-1.48"/>
          <path class="cls-3" d="M179.86,54.32c.97-.59,2.16-1.2,3.54-1.67,1.57-.53,2.97-.75,4.13-.83"/>
        </g>
      </g>
      <g>
        <path class="cls-2" d="M125.24,44.3c1.99-2.47,4.47-5.07,7.48-7.36,8.59-6.55,16.82-7.03,21.55-6.69,2.73-.09,4.93.24,6.43.56,2.64.55,3.69,1.19,5.91,1.45,2.59.3,4.73-.14,6.13-.56,3.22-2.83,6.43-5.65,9.65-8.48l-.97,9.15,2.69,8.14-8.45-1.45c-1.48.24-3.7.74-6.28,1.9-3.28,1.46-4.96,2.99-8.53,5.24-1.91,1.2-4.67,2.8-8.15,4.35-3.33.65-7.32,1.06-11.82.78-4.67-.28-8.76-1.24-12.12-2.34-.38-.1-2.39-.72-3.22-3.23-.12-.38-.24-.86-.3-1.45h0Z"/>
        <line class="cls-5" x1="174.86" y1="30.92" x2="181.92" y2="25.56"/>
        <line class="cls-5" x1="175.63" y1="31.98" x2="181.79" y2="28.95"/>
        <line class="cls-5" x1="176.48" y1="34.74" x2="181.79" y2="34.15"/>
        <path class="cls-7" d="M181.5,31.67l-5.28,1.74c-9.27,4.83-17.24,7.65-23.22,9.36-10.01,2.87-15.48,2.95-18.68,2.8-3.76-.17-6.88-.76-9.08-1.29,6.83-8.65,12.66-11.03,15.45-12.13,8.29-3.25,16.28-1.88,16.28-1.88,3.37-.03,5.57.57,7,1.16.4.17,1.33.58,2.64.8,1.76.3,3.1.06,3.43,0,1-.19,2.51-.65,4.22-1.89l1.96,3.05"/>
        <line class="cls-5" x1="176.54" y1="36.53" x2="183.06" y2="37.31"/>
        <line class="cls-5" x1="176.3" y1="37.87" x2="183.92" y2="39.9"/>
        <g>
          <ellipse class="cls-1" cx="129.25" cy="42.87" rx=".92" ry="1.36"/>
          <ellipse class="cls-6" cx="129.25" cy="42.87" rx=".26" ry=".39"/>
        </g>
        <path class="cls-5" d="M132.79,50.11c.3-.29,1.61-1.62,2.06-4.27.47-2.78-.35-4.96-.52-5.39"/>
        <polygon class="cls-5" points="125.21 44.51 129.29 46.85 129.14 48.2 125.25 45.15 125.21 44.51"/>
        <path class="cls-5" d="M136.94,50.97c2.25-1.18,3.64-4.25,3.45-7.27-.2-3.04-1.92-4.75-2.17-4.98,3.91-1.49,7.24-2.36,9.71-2.88,4.02-.85,6.03-1.28,8.79-.98,3.16.34,4,1.24,7.21,1.57,3.17.33,5.78-.19,7.43-.66"/>
        <g>
          <path class="cls-3" d="M137.19,33.58c.32-1.24.97-3.21,2.2-5.12,1.05-1.62,2.13-2.58,2.88-3.13.24.39.64.98,1.21,1.53.74.71,1.23.83,2.07,1.43.45.32,1.11.84,1.85,1.7,1.24-1.82,2.47-3.64,3.71-5.46,1.36.18,2.86.5,4.47,1.03,2.58.85,4.79,2.02,6.58,3.19-.28.61-.55,1.22-.83,1.83-4.78-.85-10.84-1.1-17.65.7-2.35.62-4.52,1.41-6.51,2.29h.02Z"/>
          <line class="cls-5" x1="139.01" y1="32.82" x2="142.78" y2="26.06"/>
          <line class="cls-5" x1="141.12" y1="32.06" x2="143.78" y2="27.12"/>
          <line class="cls-5" x1="143.21" y1="31.42" x2="144.94" y2="27.89"/>
          <line class="cls-5" x1="145.01" y1="30.96" x2="145.95" y2="28.68"/>
          <line class="cls-5" x1="146.49" y1="30.65" x2="146.98" y2="29.51"/>
          <line class="cls-5" x1="148.88" y1="30.15" x2="152.29" y2="24.88"/>
          <line class="cls-5" x1="150.65" y1="29.93" x2="153.73" y2="25.02"/>
          <line class="cls-5" x1="152.33" y1="29.97" x2="155.13" y2="25.41"/>
          <line class="cls-5" x1="154.14" y1="29.75" x2="156.37" y2="25.82"/>
          <line class="cls-5" x1="155.76" y1="29.97" x2="157.7" y2="26.35"/>
          <line class="cls-5" x1="157.29" y1="30.06" x2="158.91" y2="26.89"/>
          <line class="cls-5" x1="158.78" y1="30.2" x2="160.03" y2="27.47"/>
          <line class="cls-5" x1="160.18" y1="30.25" x2="161.14" y2="28.1"/>
        </g>
        <g>
          <path class="cls-5" d="M142.14,43.26c.14.03,1.24.3,1.81,1.81.46,1.2.41,2.71-.12,3.9"/>
          <path class="cls-3" d="M142.29,43.39c1.01-.78,2.23-1.58,3.64-2.24,2.32-1.08,4.41-1.43,6.01-1.51-1.23,1.78-2.47,3.56-3.7,5.34l-4.02,1.12c-.14-.42-.4-1.1-.87-1.72-.4-.53-.8-.83-1.07-.99h.01Z"/>
          <path class="cls-3" d="M143.17,44.14c.96-.78,2.2-1.63,3.69-2.3,1.66-.74,3.14-1.05,4.31-1.16"/>
          <path class="cls-3" d="M143.64,44.8c.87-.6,1.91-1.21,3.1-1.72,1.31-.57,2.5-.89,3.53-1.08"/>
          <path class="cls-3" d="M144.01,45.51c.64-.43,1.43-.87,2.36-1.22,1.04-.39,1.98-.55,2.75-.6"/>
        </g>
      </g>
      <g>
        <path class="cls-2" d="M196.4,58.51c1.82-2.74,4.08-5.63,6.83-8.18,7.84-7.28,15.35-7.81,19.66-7.44,2.49-.09,4.5.27,5.87.62,2.4.62,3.37,1.32,5.39,1.61,2.36.34,4.31-.15,5.6-.62,2.94-3.14,5.87-6.28,8.81-9.42l-.89,10.16,2.46,9.05-7.71-1.61c-1.35.27-3.37.82-5.73,2.11-2.99,1.63-4.52,3.33-7.78,5.82-1.74,1.34-4.26,3.12-7.44,4.83-3.03.72-6.68,1.17-10.79.87-4.26-.32-7.99-1.37-11.06-2.6-.34-.12-2.18-.8-2.94-3.59-.11-.42-.22-.95-.27-1.61h0Z"/>
        <line class="cls-5" x1="241.67" y1="43.64" x2="248.11" y2="37.68"/>
        <line class="cls-5" x1="242.37" y1="44.82" x2="247.99" y2="41.45"/>
        <line class="cls-5" x1="243.15" y1="47.88" x2="247.99" y2="47.23"/>
        <path class="cls-7" d="M247.73,44.48l-4.82,1.94c-8.46,5.37-15.73,8.5-21.19,10.41-9.13,3.19-14.12,3.28-17.04,3.11-3.43-.19-6.28-.85-8.28-1.43,6.23-9.62,11.55-12.26,14.1-13.47,7.56-3.61,14.85-2.09,14.85-2.09,3.07-.04,5.08.63,6.38,1.29.36.18,1.22.64,2.41.89,1.6.33,2.83.07,3.13,0,.91-.21,2.29-.72,3.85-2.1l1.79,3.39"/>
        <line class="cls-5" x1="243.2" y1="49.88" x2="249.16" y2="50.75"/>
        <line class="cls-5" x1="242.99" y1="51.36" x2="249.94" y2="53.62"/>
        <g>
          <ellipse class="cls-1" cx="200.05" cy="56.92" rx=".83" ry="1.52"/>
          <ellipse class="cls-6" cx="200.05" cy="56.92" rx=".24" ry=".44"/>
        </g>
        <path class="cls-5" d="M203.28,64.97c.27-.32,1.47-1.8,1.88-4.75.43-3.08-.32-5.52-.47-5.99"/>
        <polygon class="cls-5" points="196.37 58.75 200.09 61.34 199.95 62.84 196.4 59.45 196.37 58.75"/>
        <path class="cls-5" d="M207.07,65.93c2.05-1.31,3.32-4.73,3.14-8.08-.18-3.38-1.75-5.28-1.98-5.54,3.57-1.66,6.61-2.62,8.86-3.2,3.67-.95,5.51-1.42,8.02-1.09,2.89.38,3.65,1.38,6.58,1.75,2.9.37,5.27-.21,6.78-.73"/>
        <g>
          <path class="cls-3" d="M207.3,46.59c.3-1.37.88-3.57,2.01-5.69.96-1.8,1.95-2.87,2.63-3.48.22.44.58,1.09,1.11,1.7.68.79,1.12.92,1.89,1.58.41.35,1.01.94,1.69,1.89,1.13-2.02,2.26-4.04,3.39-6.07,1.24.2,2.61.55,4.08,1.14,2.35.94,4.37,2.25,6.01,3.55-.25.68-.5,1.36-.75,2.04-4.36-.95-9.89-1.22-16.11.78-2.14.69-4.13,1.57-5.94,2.55h-.01Z"/>
          <line class="cls-5" x1="208.96" y1="45.75" x2="212.4" y2="38.24"/>
          <line class="cls-5" x1="210.89" y1="44.9" x2="213.31" y2="39.42"/>
          <line class="cls-5" x1="212.79" y1="44.2" x2="214.38" y2="40.27"/>
          <line class="cls-5" x1="214.44" y1="43.69" x2="215.29" y2="41.15"/>
          <line class="cls-5" x1="215.78" y1="43.34" x2="216.23" y2="42.07"/>
          <line class="cls-5" x1="217.97" y1="42.79" x2="221.08" y2="36.93"/>
          <line class="cls-5" x1="219.58" y1="42.55" x2="222.4" y2="37.08"/>
          <line class="cls-5" x1="221.12" y1="42.58" x2="223.67" y2="37.51"/>
          <line class="cls-5" x1="222.76" y1="42.34" x2="224.8" y2="37.98"/>
          <line class="cls-5" x1="224.24" y1="42.58" x2="226.02" y2="38.56"/>
          <line class="cls-5" x1="225.64" y1="42.68" x2="227.11" y2="39.17"/>
          <line class="cls-5" x1="227" y1="42.84" x2="228.14" y2="39.81"/>
          <line class="cls-5" x1="228.28" y1="42.89" x2="229.15" y2="40.51"/>
        </g>
        <g>
          <path class="cls-5" d="M211.82,57.36c.12.03,1.13.33,1.65,2.01.42,1.33.37,3.01-.11,4.34"/>
          <path class="cls-3" d="M211.95,57.49c.92-.87,2.03-1.76,3.32-2.49,2.12-1.2,4.02-1.59,5.49-1.68-1.13,1.98-2.25,3.96-3.38,5.94l-3.67,1.25c-.12-.47-.36-1.22-.79-1.92-.36-.59-.73-.92-.98-1.1h0Z"/>
          <path class="cls-3" d="M212.75,58.33c.88-.87,2-1.81,3.37-2.56,1.51-.83,2.86-1.17,3.93-1.29"/>
          <path class="cls-3" d="M213.19,59.07c.8-.66,1.74-1.34,2.82-1.91,1.19-.63,2.28-.99,3.22-1.2"/>
          <path class="cls-3" d="M213.52,59.85c.59-.48,1.31-.97,2.15-1.35.95-.43,1.81-.61,2.51-.67"/>
        </g>
      </g>
      <g>
        <path class="cls-2" d="M238.91,65.09c3-3.39,6.72-6.95,11.24-10.1,12.91-8.99,25.27-9.64,32.36-9.18,4.1-.12,7.4.33,9.66.77,3.96.76,5.55,1.63,8.88,1.99,3.89.42,7.1-.19,9.21-.77,4.83-3.88,9.66-7.75,14.5-11.63l-1.46,12.55,4.05,11.17-12.7-1.99c-2.23.33-5.55,1.02-9.44,2.6-4.93,2.01-7.45,4.11-12.81,7.19-2.87,1.65-7.02,3.85-12.25,5.97-5,.89-10.99,1.45-17.76,1.07-7.01-.39-13.15-1.7-18.21-3.21-.56-.14-3.6-.98-4.83-4.44-.18-.52-.36-1.18-.45-1.99h.01Z"/>
        <line class="cls-5" x1="313.45" y1="46.73" x2="324.04" y2="39.38"/>
        <line class="cls-5" x1="314.59" y1="48.19" x2="323.85" y2="44.03"/>
        <line class="cls-5" x1="315.88" y1="51.97" x2="323.85" y2="51.17"/>
        <path class="cls-7" d="M323.42,47.77l-7.93,2.39c-13.93,6.63-25.89,10.49-34.88,12.85-15.03,3.94-23.25,4.04-28.06,3.84-5.65-.23-10.33-1.05-13.63-1.77,10.26-11.87,19.01-15.13,23.21-16.64,12.45-4.46,24.45-2.58,24.45-2.58,5.06-.05,8.37.78,10.51,1.59.6.23,2,.8,3.97,1.1,2.64.41,4.65.09,5.15,0,1.5-.26,3.77-.89,6.34-2.59l2.95,4.19"/>
        <line class="cls-5" x1="315.97" y1="54.43" x2="325.77" y2="55.51"/>
        <line class="cls-5" x1="315.61" y1="56.27" x2="327.05" y2="59.06"/>
        <g>
          <ellipse class="cls-1" cx="244.92" cy="63.13" rx="1.37" ry="1.87"/>
          <ellipse class="cls-6" cx="244.92" cy="63.13" rx=".4" ry=".54"/>
        </g>
        <path class="cls-5" d="M250.24,73.06c.45-.39,2.42-2.22,3.09-5.86.71-3.81-.52-6.81-.78-7.4"/>
        <polygon class="cls-5" points="238.86 65.39 244.98 68.59 244.76 70.44 238.92 66.26 238.86 65.39"/>
        <path class="cls-5" d="M256.47,74.25c3.38-1.61,5.47-5.84,5.18-9.97-.3-4.17-2.89-6.51-3.26-6.84,5.88-2.05,10.87-3.23,14.59-3.96,6.04-1.17,9.06-1.76,13.2-1.35,4.75.47,6.01,1.7,10.83,2.16,4.77.45,8.68-.26,11.16-.9"/>
        <g>
          <path class="cls-3" d="M256.86,50.38c.49-1.7,1.45-4.41,3.31-7.03,1.58-2.22,3.2-3.54,4.33-4.29.36.54.96,1.35,1.82,2.1,1.11.97,1.84,1.14,3.11,1.96.68.44,1.66,1.16,2.79,2.33,1.86-2.5,3.72-4.99,5.58-7.49,2.04.25,4.29.68,6.72,1.41,3.87,1.16,7.19,2.77,9.89,4.38-.41.84-.83,1.68-1.24,2.52-7.19-1.17-16.28-1.5-26.52.97-3.53.85-6.79,1.94-9.78,3.14h0Z"/>
          <line class="cls-5" x1="259.59" y1="49.34" x2="265.25" y2="40.07"/>
          <line class="cls-5" x1="262.76" y1="48.29" x2="266.75" y2="41.52"/>
          <line class="cls-5" x1="265.89" y1="47.42" x2="268.5" y2="42.57"/>
          <line class="cls-5" x1="268.61" y1="46.79" x2="270.01" y2="43.66"/>
          <line class="cls-5" x1="270.82" y1="46.37" x2="271.56" y2="44.8"/>
          <line class="cls-5" x1="274.42" y1="45.68" x2="279.54" y2="38.45"/>
          <line class="cls-5" x1="277.08" y1="45.38" x2="281.71" y2="38.64"/>
          <line class="cls-5" x1="279.6" y1="45.43" x2="283.8" y2="39.17"/>
          <line class="cls-5" x1="282.31" y1="45.12" x2="285.67" y2="39.74"/>
          <line class="cls-5" x1="284.75" y1="45.43" x2="287.67" y2="40.46"/>
          <line class="cls-5" x1="287.05" y1="45.55" x2="289.48" y2="41.21"/>
          <line class="cls-5" x1="289.28" y1="45.75" x2="291.16" y2="42"/>
          <line class="cls-5" x1="291.4" y1="45.81" x2="292.84" y2="42.86"/>
        </g>
        <g>
          <path class="cls-5" d="M264.3,63.67c.21.04,1.86.41,2.72,2.48.69,1.64.61,3.72-.19,5.36"/>
          <path class="cls-3" d="M264.51,63.84c1.51-1.07,3.34-2.17,5.47-3.07,3.49-1.49,6.62-1.97,9.03-2.07-1.85,2.44-3.71,4.89-5.56,7.33l-6.04,1.54c-.2-.58-.6-1.51-1.3-2.36-.6-.73-1.2-1.13-1.61-1.36h0Z"/>
          <path class="cls-3" d="M265.83,64.87c1.44-1.07,3.3-2.24,5.54-3.16,2.49-1.02,4.71-1.44,6.47-1.6"/>
          <path class="cls-3" d="M266.55,65.78c1.31-.82,2.87-1.65,4.65-2.36,1.96-.78,3.76-1.22,5.3-1.48"/>
          <path class="cls-3" d="M267.09,66.75c.97-.59,2.16-1.2,3.54-1.67,1.57-.53,2.97-.75,4.13-.83"/>
        </g>
      </g>
      <g>
        <path class="cls-2" d="M337.89,75.28c2.01-2.82,4.5-5.8,7.53-8.42,8.65-7.49,16.92-8.04,21.67-7.65,2.75-.1,4.96.28,6.47.64,2.65.63,3.71,1.36,5.95,1.66,2.6.35,4.76-.16,6.17-.64,3.24-3.23,6.47-6.46,9.71-9.69l-.98,10.46,2.71,9.31-8.5-1.66c-1.49.28-3.72.85-6.32,2.17-3.3,1.67-4.99,3.42-8.58,5.99-1.92,1.37-4.7,3.21-8.2,4.97-3.35.74-7.36,1.21-11.89.89-4.7-.33-8.81-1.41-12.19-2.68-.38-.12-2.41-.82-3.24-3.7-.12-.43-.24-.98-.3-1.66h-.01Z"/>
        <line class="cls-5" x1="387.81" y1="59.97" x2="394.9" y2="53.84"/>
        <line class="cls-5" x1="388.58" y1="61.19" x2="394.78" y2="57.72"/>
        <line class="cls-5" x1="389.44" y1="64.34" x2="394.78" y2="63.67"/>
        <path class="cls-7" d="M394.48,60.84l-5.31,2c-9.33,5.53-17.34,8.75-23.36,10.71-10.07,3.28-15.57,3.37-18.79,3.2-3.78-.2-6.92-.87-9.13-1.47,6.87-9.9,12.73-12.61,15.55-13.87,8.34-3.72,16.37-2.15,16.37-2.15,3.39-.04,5.6.65,7.04,1.33.4.19,1.34.66,2.66.92,1.77.34,3.11.07,3.45,0,1-.22,2.53-.74,4.24-2.16l1.97,3.49"/>
        <line class="cls-5" x1="389.5" y1="66.39" x2="396.06" y2="67.29"/>
        <line class="cls-5" x1="389.26" y1="67.92" x2="396.92" y2="70.25"/>
        <g>
          <ellipse class="cls-1" cx="341.92" cy="73.64" rx=".92" ry="1.56"/>
          <ellipse class="cls-6" cx="341.92" cy="73.64" rx=".27" ry=".45"/>
        </g>
        <path class="cls-5" d="M345.48,81.92c.3-.33,1.62-1.85,2.07-4.89.47-3.17-.35-5.68-.52-6.17"/>
        <polygon class="cls-5" points="337.86 75.52 341.96 78.19 341.81 79.74 337.9 76.25 337.86 75.52"/>
        <path class="cls-5" d="M349.66,82.91c2.27-1.34,3.66-4.86,3.47-8.31-.2-3.48-1.93-5.43-2.18-5.7,3.93-1.71,7.28-2.7,9.77-3.3,4.05-.98,6.07-1.47,8.84-1.12,3.18.39,4.02,1.42,7.25,1.8,3.19.38,5.81-.22,7.47-.75"/>
        <g>
          <path class="cls-3" d="M349.91,63.02c.33-1.41.97-3.67,2.22-5.86,1.06-1.85,2.15-2.95,2.9-3.58.24.45.64,1.12,1.22,1.75.74.81,1.23.95,2.08,1.63.45.36,1.11.97,1.87,1.94,1.24-2.08,2.49-4.16,3.73-6.24,1.36.21,2.88.57,4.5,1.18,2.59.97,4.82,2.31,6.62,3.65-.28.7-.55,1.4-.83,2.1-4.81-.97-10.9-1.25-17.76.81-2.36.71-4.55,1.61-6.55,2.62Z"/>
          <line class="cls-5" x1="351.74" y1="62.15" x2="355.53" y2="54.42"/>
          <line class="cls-5" x1="353.87" y1="61.28" x2="356.54" y2="55.63"/>
          <line class="cls-5" x1="355.96" y1="60.55" x2="357.71" y2="56.51"/>
          <line class="cls-5" x1="357.78" y1="60.02" x2="358.72" y2="57.42"/>
          <line class="cls-5" x1="359.26" y1="59.67" x2="359.76" y2="58.36"/>
          <line class="cls-5" x1="361.67" y1="59.1" x2="365.1" y2="53.07"/>
          <line class="cls-5" x1="363.45" y1="58.85" x2="366.55" y2="53.23"/>
          <line class="cls-5" x1="365.14" y1="58.89" x2="367.96" y2="53.67"/>
          <line class="cls-5" x1="366.96" y1="58.63" x2="369.21" y2="54.15"/>
          <line class="cls-5" x1="368.59" y1="58.89" x2="370.55" y2="54.75"/>
          <line class="cls-5" x1="370.13" y1="58.99" x2="371.76" y2="55.37"/>
          <line class="cls-5" x1="371.63" y1="59.16" x2="372.89" y2="56.03"/>
          <line class="cls-5" x1="373.04" y1="59.2" x2="374.01" y2="56.75"/>
        </g>
        <g>
          <path class="cls-5" d="M354.89,74.09c.14.03,1.24.34,1.82,2.07.46,1.37.41,3.1-.12,4.47"/>
          <path class="cls-3" d="M355.04,74.23c1.01-.89,2.24-1.81,3.66-2.56,2.34-1.24,4.44-1.64,6.05-1.72-1.24,2.04-2.48,4.07-3.72,6.11l-4.04,1.28c-.14-.48-.4-1.25-.87-1.97-.4-.61-.8-.95-1.08-1.13h0Z"/>
          <path class="cls-3" d="M355.92,75.09c.97-.89,2.21-1.87,3.71-2.63,1.67-.85,3.16-1.2,4.33-1.33"/>
          <path class="cls-3" d="M356.4,75.85c.88-.68,1.92-1.38,3.11-1.97,1.31-.65,2.52-1.02,3.55-1.23"/>
          <path class="cls-3" d="M356.77,76.66c.65-.49,1.44-1,2.37-1.39,1.05-.44,1.99-.63,2.76-.69"/>
        </g>
      </g>
      <g>
        <path class="cls-2" d="M283.44,77.11c1.21-1.84,2.71-3.78,4.53-5.48,5.21-4.88,10.19-5.24,13.06-4.98,1.66-.06,2.99.18,3.9.42,1.6.41,2.24.89,3.58,1.08,1.57.23,2.86-.1,3.72-.42,1.95-2.1,3.9-4.21,5.85-6.31l-.59,6.81,1.63,6.06-5.12-1.08c-.9.18-2.24.55-3.81,1.41-1.99,1.09-3,2.23-5.17,3.9-1.16.89-2.83,2.09-4.94,3.24-2.02.48-4.44.79-7.16.58-2.83-.21-5.31-.92-7.34-1.74-.23-.08-1.45-.53-1.95-2.41-.07-.28-.15-.64-.18-1.08h-.01Z"/>
        <line class="cls-5" x1="313.51" y1="67.15" x2="317.78" y2="63.15"/>
        <line class="cls-5" x1="313.97" y1="67.94" x2="317.71" y2="65.68"/>
        <line class="cls-5" x1="314.49" y1="69.99" x2="317.71" y2="69.55"/>
        <path class="cls-7" d="M317.53,67.71l-3.2,1.3c-5.62,3.6-10.45,5.7-14.07,6.98-6.06,2.14-9.38,2.2-11.32,2.09-2.28-.13-4.17-.57-5.5-.96,4.14-6.45,7.67-8.22,9.37-9.03,5.02-2.42,9.86-1.4,9.87-1.4,2.04-.03,3.38.42,4.24.86.24.12.81.43,1.6.6,1.07.22,1.88.05,2.08,0,.61-.14,1.52-.48,2.56-1.41l1.19,2.27"/>
        <line class="cls-5" x1="314.53" y1="71.33" x2="318.48" y2="71.91"/>
        <line class="cls-5" x1="314.38" y1="72.32" x2="319" y2="73.84"/>
        <g>
          <ellipse class="cls-1" cx="285.86" cy="76.05" rx=".55" ry="1.02"/>
          <ellipse class="cls-6" cx="285.86" cy="76.05" rx=".16" ry=".29"/>
        </g>
        <path class="cls-5" d="M288.01,81.44c.18-.21.98-1.21,1.25-3.18.29-2.07-.21-3.7-.31-4.02"/>
        <polygon class="cls-5" points="283.42 77.27 285.89 79.01 285.8 80.02 283.44 77.75 283.42 77.27"/>
        <path class="cls-5" d="M290.52,82.09c1.36-.88,2.21-3.17,2.09-5.41-.12-2.26-1.17-3.54-1.32-3.71,2.37-1.11,4.39-1.76,5.89-2.15,2.44-.64,3.66-.95,5.33-.73,1.92.26,2.42.92,4.37,1.17,1.92.25,3.5-.14,4.5-.49"/>
        <g>
          <path class="cls-3" d="M290.68,69.13c.2-.92.59-2.39,1.34-3.82.64-1.21,1.29-1.92,1.75-2.33.15.29.39.73.74,1.14.45.53.74.62,1.26,1.06.27.24.67.63,1.12,1.27.75-1.36,1.5-2.71,2.25-4.07.82.14,1.73.37,2.71.77,1.56.63,2.9,1.51,3.99,2.38-.17.46-.33.91-.5,1.37-2.9-.63-6.57-.82-10.7.52-1.42.46-2.74,1.05-3.95,1.71h-.01Z"/>
          <line class="cls-5" x1="291.78" y1="68.56" x2="294.06" y2="63.53"/>
          <line class="cls-5" x1="293.06" y1="67.99" x2="294.67" y2="64.31"/>
          <line class="cls-5" x1="294.32" y1="67.52" x2="295.38" y2="64.89"/>
          <line class="cls-5" x1="295.42" y1="67.18" x2="295.99" y2="65.48"/>
          <line class="cls-5" x1="296.31" y1="66.95" x2="296.61" y2="66.1"/>
          <line class="cls-5" x1="297.76" y1="66.58" x2="299.83" y2="62.65"/>
          <line class="cls-5" x1="298.84" y1="66.41" x2="300.71" y2="62.75"/>
          <line class="cls-5" x1="299.86" y1="66.44" x2="301.55" y2="63.04"/>
          <line class="cls-5" x1="300.95" y1="66.27" x2="302.3" y2="63.35"/>
          <line class="cls-5" x1="301.93" y1="66.44" x2="303.11" y2="63.74"/>
          <line class="cls-5" x1="302.86" y1="66.51" x2="303.84" y2="64.15"/>
          <line class="cls-5" x1="303.76" y1="66.61" x2="304.52" y2="64.58"/>
          <line class="cls-5" x1="304.61" y1="66.64" x2="305.19" y2="65.05"/>
        </g>
        <g>
          <path class="cls-5" d="M293.68,76.34c.08.02.75.22,1.1,1.35.28.89.25,2.02-.08,2.91"/>
          <path class="cls-3" d="M293.77,76.43c.61-.58,1.35-1.18,2.21-1.67,1.41-.81,2.67-1.07,3.64-1.12-.75,1.33-1.49,2.65-2.24,3.98l-2.44.83c-.08-.32-.24-.82-.53-1.28-.24-.39-.48-.62-.65-.74h.01Z"/>
          <path class="cls-3" d="M294.3,76.99c.58-.58,1.33-1.22,2.24-1.72,1-.55,1.9-.78,2.61-.87"/>
          <path class="cls-3" d="M294.59,77.49c.53-.45,1.16-.9,1.88-1.28.79-.42,1.52-.66,2.14-.8"/>
          <path class="cls-3" d="M294.81,78.01c.39-.32.87-.65,1.43-.91.63-.29,1.2-.41,1.66-.45"/>
        </g>
      </g>
      <g>
        <path class="cls-2" d="M307.87,68.24c1.62-2.08,3.66-4.31,6.21-6.35,7.28-5.82,14.68-6.92,18.98-7.07,2.46-.31,4.47-.25,5.86-.13,2.42.2,3.43.6,5.45.6,2.36,0,4.26-.52,5.5-.97,2.7-2.47,5.39-4.94,8.09-7.41l-.19,7.16,3.05,6.06-7.75-.38c-1.32.32-3.29.9-5.54,2.02-2.86,1.42-4.26,2.75-7.32,4.8-1.64,1.1-4.01,2.58-7.05,4.08-2.96.79-6.54,1.46-10.63,1.64-4.24.19-8.01-.19-11.13-.75-.35-.05-2.22-.34-3.15-2.22-.14-.28-.28-.64-.38-1.1v.02Z"/>
        <line class="cls-5" x1="351.73" y1="53.54" x2="357.7" y2="48.77"/>
        <line class="cls-5" x1="352.5" y1="54.29" x2="357.84" y2="51.4"/>
        <line class="cls-5" x1="353.48" y1="56.35" x2="358.23" y2="55.43"/>
        <path class="cls-7" d="M357.78,53.54l-4.64,1.81c-8.02,4.55-15.01,7.43-20.29,9.28-8.83,3.1-13.77,3.64-16.68,3.81-3.41.2-6.28.01-8.3-.2,5.53-7.29,10.62-9.64,13.06-10.74,7.25-3.24,14.58-2.88,14.58-2.88,3.04-.32,5.08-.05,6.41.28.37.09,1.25.33,2.45.39,1.61.08,2.8-.22,3.1-.3.89-.23,2.22-.72,3.67-1.83l2,2.19"/>
        <line class="cls-5" x1="353.67" y1="57.73" x2="359.62" y2="57.76"/>
        <line class="cls-5" x1="353.55" y1="58.79" x2="360.59" y2="59.69"/>
        <g>
          <ellipse class="cls-4" cx="311.4" cy="66.76" rx=".83" ry="1.06" transform="translate(-5 30.43) rotate(-5.55)"/>
          <ellipse class="cls-6" cx="311.4" cy="66.76" rx=".24" ry=".31" transform="translate(-5 30.43) rotate(-5.55)"/>
        </g>
        <path class="cls-5" d="M315.13,72.08c.25-.25,1.33-1.39,1.54-3.49.22-2.19-.69-3.81-.87-4.13"/>
        <polygon class="cls-5" points="307.86 68.42 311.72 69.86 311.69 70.92 307.94 68.9 307.86 68.42"/>
        <path class="cls-5" d="M318.95,72.38c1.95-1.11,2.97-3.61,2.57-5.93-.41-2.33-2.1-3.5-2.34-3.66,3.42-1.5,6.37-2.46,8.56-3.08,3.57-1.01,5.36-1.52,7.87-1.53,2.89-.01,3.71.61,6.63.58,2.89-.02,5.21-.65,6.67-1.16"/>
        <g>
          <path class="cls-3" d="M317.87,58.9c.2-.99.63-2.57,1.61-4.16.83-1.34,1.73-2.18,2.37-2.67.25.28.65.7,1.21,1.08.72.48,1.17.53,1.98.92.43.21,1.06.56,1.8,1.15.98-1.52,1.96-3.03,2.95-4.55,1.24.02,2.62.14,4.12.4,2.4.43,4.48,1.14,6.19,1.89-.2.5-.41.99-.61,1.49-4.39-.24-9.88.1-15.91,2.1-2.08.69-3.98,1.49-5.71,2.34h0Z"/>
          <line class="cls-5" x1="319.46" y1="58.16" x2="322.35" y2="52.6"/>
          <line class="cls-5" x1="321.31" y1="57.38" x2="323.34" y2="53.33"/>
          <line class="cls-5" x1="323.14" y1="56.7" x2="324.45" y2="53.82"/>
          <line class="cls-5" x1="324.74" y1="56.19" x2="325.42" y2="54.34"/>
          <line class="cls-5" x1="326.05" y1="55.82" x2="326.41" y2="54.9"/>
          <line class="cls-5" x1="328.18" y1="55.23" x2="330.86" y2="50.85"/>
          <line class="cls-5" x1="329.76" y1="54.9" x2="332.18" y2="50.83"/>
          <line class="cls-5" x1="331.29" y1="54.78" x2="333.47" y2="51"/>
          <line class="cls-5" x1="332.9" y1="54.45" x2="334.63" y2="51.22"/>
          <line class="cls-5" x1="334.38" y1="54.48" x2="335.87" y2="51.51"/>
          <line class="cls-5" x1="335.78" y1="54.41" x2="337" y2="51.82"/>
          <line class="cls-5" x1="337.13" y1="54.4" x2="338.06" y2="52.17"/>
          <line class="cls-5" x1="338.41" y1="54.3" x2="339.11" y2="52.56"/>
        </g>
        <g>
          <path class="cls-5" d="M323.07,65.96c.13.01,1.14.12,1.78,1.24.5.89.57,2.06.18,3.03"/>
          <path class="cls-3" d="M323.21,66.04c.85-.69,1.89-1.42,3.12-2.05,2.02-1.04,3.88-1.5,5.32-1.69-.98,1.49-1.96,2.97-2.94,4.46l-3.55,1.22c-.15-.32-.44-.81-.91-1.26-.4-.38-.78-.57-1.04-.67h0Z"/>
          <path class="cls-3" d="M324.06,66.55c.81-.69,1.86-1.46,3.16-2.11,1.44-.72,2.76-1.09,3.81-1.28"/>
          <path class="cls-3" d="M324.55,67.02c.74-.54,1.64-1.1,2.67-1.6,1.14-.55,2.19-.91,3.11-1.14"/>
          <path class="cls-3" d="M324.93,67.54c.55-.39,1.23-.8,2.04-1.15.91-.39,1.75-.6,2.44-.71"/>
        </g>
      </g>
      <g>
        <path class="cls-2" d="M.61,30.07c3-3.39,6.72-6.95,11.24-10.1,12.91-8.99,25.27-9.64,32.36-9.18,4.1-.12,7.4.33,9.66.77,3.96.76,5.55,1.63,8.88,1.99,3.89.42,7.1-.19,9.21-.77,4.83-3.88,9.66-7.75,14.5-11.63l-1.46,12.55,4.05,11.17-12.7-1.99c-2.23.33-5.55,1.02-9.44,2.6-4.93,2.01-7.45,4.11-12.81,7.19-2.87,1.65-7.02,3.85-12.25,5.97-5,.89-10.99,1.45-17.76,1.07-7.01-.39-13.15-1.7-18.21-3.21-.56-.14-3.6-.98-4.83-4.44-.18-.52-.36-1.18-.45-1.99h.01Z"/>
        <line class="cls-5" x1="75.15" y1="11.71" x2="85.74" y2="4.36"/>
        <line class="cls-5" x1="76.29" y1="13.17" x2="85.55" y2="9.01"/>
        <line class="cls-5" x1="77.58" y1="16.95" x2="85.55" y2="16.14"/>
        <path class="cls-7" d="M85.12,12.75l-7.93,2.39c-13.93,6.63-25.89,10.49-34.88,12.85-15.03,3.94-23.25,4.04-28.06,3.84-5.65-.23-10.33-1.05-13.63-1.77,10.26-11.87,19.01-15.13,23.21-16.64,12.45-4.46,24.45-2.58,24.45-2.58,5.06-.05,8.37.78,10.51,1.59.6.23,2,.8,3.97,1.1,2.64.41,4.65.09,5.15,0,1.5-.26,3.77-.89,6.34-2.59l2.95,4.19"/>
        <line class="cls-5" x1="77.67" y1="19.41" x2="87.47" y2="20.49"/>
        <line class="cls-5" x1="77.31" y1="21.24" x2="88.75" y2="24.04"/>
        <g>
          <ellipse class="cls-1" cx="6.62" cy="28.11" rx="1.37" ry="1.87"/>
          <ellipse class="cls-6" cx="6.62" cy="28.11" rx=".4" ry=".54"/>
        </g>
        <path class="cls-5" d="M11.94,38.04c.45-.39,2.42-2.22,3.09-5.86.71-3.81-.52-6.81-.78-7.4"/>
        <polygon class="cls-5" points=".56 30.36 6.69 33.57 6.47 35.42 .62 31.23 .56 30.36"/>
        <path class="cls-5" d="M18.18,39.23c3.38-1.61,5.47-5.84,5.18-9.97-.3-4.17-2.89-6.51-3.26-6.84,5.88-2.05,10.87-3.23,14.59-3.96,6.04-1.17,9.06-1.76,13.2-1.35,4.75.47,6.01,1.7,10.83,2.16,4.77.45,8.68-.26,11.16-.9"/>
        <g>
          <path class="cls-3" d="M18.56,15.36c.49-1.7,1.45-4.41,3.31-7.03,1.58-2.22,3.2-3.54,4.33-4.29.36.54.96,1.35,1.82,2.1,1.11.97,1.84,1.14,3.11,1.96.68.44,1.66,1.16,2.79,2.33,1.86-2.5,3.72-4.99,5.58-7.49,2.04.25,4.29.68,6.72,1.41,3.87,1.16,7.19,2.77,9.89,4.38-.41.84-.83,1.68-1.24,2.52-7.19-1.17-16.28-1.5-26.52.97-3.53.85-6.79,1.94-9.78,3.14h0Z"/>
          <line class="cls-5" x1="21.29" y1="14.32" x2="26.95" y2="5.05"/>
          <line class="cls-5" x1="24.46" y1="13.27" x2="28.45" y2="6.5"/>
          <line class="cls-5" x1="27.59" y1="12.4" x2="30.21" y2="7.55"/>
          <line class="cls-5" x1="30.31" y1="11.77" x2="31.71" y2="8.64"/>
          <line class="cls-5" x1="32.52" y1="11.35" x2="33.26" y2="9.78"/>
          <line class="cls-5" x1="36.12" y1="10.66" x2="41.24" y2="3.43"/>
          <line class="cls-5" x1="38.78" y1="10.36" x2="43.41" y2="3.62"/>
          <line class="cls-5" x1="41.3" y1="10.41" x2="45.5" y2="4.15"/>
          <line class="cls-5" x1="44.01" y1="10.1" x2="47.37" y2="4.72"/>
          <line class="cls-5" x1="46.45" y1="10.4" x2="49.37" y2="5.44"/>
          <line class="cls-5" x1="48.75" y1="10.53" x2="51.18" y2="6.19"/>
          <line class="cls-5" x1="50.99" y1="10.73" x2="52.87" y2="6.98"/>
          <line class="cls-5" x1="53.1" y1="10.79" x2="54.54" y2="7.84"/>
        </g>
        <g>
          <path class="cls-5" d="M26,28.65c.21.04,1.86.41,2.72,2.48.69,1.64.61,3.72-.19,5.36"/>
          <path class="cls-3" d="M26.22,28.81c1.51-1.07,3.34-2.17,5.47-3.07,3.49-1.49,6.62-1.97,9.03-2.07-1.85,2.44-3.71,4.89-5.56,7.33l-6.04,1.54c-.2-.58-.6-1.51-1.3-2.36-.6-.73-1.2-1.13-1.61-1.36h0Z"/>
          <path class="cls-3" d="M27.53,29.85c1.44-1.07,3.3-2.24,5.54-3.16,2.49-1.02,4.71-1.44,6.47-1.6"/>
          <path class="cls-3" d="M28.25,30.76c1.31-.82,2.87-1.65,4.65-2.36,1.96-.78,3.76-1.22,5.3-1.48"/>
          <path class="cls-3" d="M28.79,31.73c.97-.59,2.16-1.2,3.54-1.67,1.57-.53,2.97-.75,4.13-.83"/>
        </g>
      </g>
      <g>
        <path class="cls-2" d="M36.58,23.29c1.31-2.12,2.93-4.36,4.9-6.34,5.63-5.64,11.01-6.05,14.1-5.76,1.79-.07,3.22.21,4.21.48,1.73.48,2.42,1.02,3.87,1.25,1.69.26,3.09-.12,4.02-.48,2.11-2.43,4.21-4.86,6.32-7.3l-.64,7.87,1.76,7.01-5.53-1.25c-.97.21-2.42.64-4.11,1.63-2.15,1.26-3.24,2.58-5.58,4.51-1.25,1.03-3.06,2.41-5.34,3.74-2.18.56-4.79.91-7.74.67-3.06-.25-5.73-1.06-7.93-2.02-.25-.09-1.57-.62-2.11-2.78-.08-.32-.16-.74-.2-1.25v.02Z"/>
        <line class="cls-5" x1="69.06" y1="11.77" x2="73.68" y2="7.16"/>
        <line class="cls-5" x1="69.56" y1="12.69" x2="73.59" y2="10.08"/>
        <line class="cls-5" x1="70.12" y1="15.06" x2="73.59" y2="14.56"/>
        <path class="cls-7" d="M73.41,12.42l-3.46,1.5c-6.07,4.16-11.28,6.58-15.2,8.06-6.55,2.47-10.13,2.54-12.23,2.41-2.46-.15-4.5-.66-5.94-1.11,4.47-7.45,8.29-9.49,10.12-10.44,5.43-2.8,10.65-1.62,10.65-1.62,2.2-.03,3.65.49,4.58,1,.26.14.87.5,1.73.69,1.15.26,2.03.06,2.24,0,.65-.16,1.64-.56,2.76-1.62l1.28,2.63"/>
        <line class="cls-5" x1="70.16" y1="16.6" x2="74.43" y2="17.28"/>
        <line class="cls-5" x1="70" y1="17.75" x2="74.99" y2="19.51"/>
        <g>
          <ellipse class="cls-1" cx="39.2" cy="22.06" rx=".6" ry="1.17"/>
          <ellipse class="cls-6" cx="39.2" cy="22.06" rx=".17" ry=".34"/>
        </g>
        <path class="cls-5" d="M41.52,28.29c.19-.25,1.05-1.39,1.35-3.68.31-2.39-.23-4.27-.34-4.64"/>
        <polygon class="cls-5" points="36.56 23.48 39.23 25.48 39.13 26.65 36.59 24.02 36.56 23.48"/>
        <path class="cls-5" d="M44.24,29.04c1.47-1.01,2.38-3.66,2.26-6.26-.13-2.62-1.26-4.09-1.42-4.29,2.56-1.28,4.74-2.03,6.36-2.48,2.63-.74,3.95-1.1,5.75-.85,2.07.3,2.62,1.07,4.72,1.35,2.08.28,3.78-.16,4.86-.56"/>
        <g>
          <path class="cls-3" d="M44.4,14.06c.21-1.06.63-2.77,1.44-4.41.69-1.39,1.4-2.22,1.88-2.69.16.34.42.85.79,1.32.48.61.8.71,1.36,1.23.29.27.72.73,1.21,1.46.81-1.57,1.62-3.13,2.43-4.7.89.16,1.87.43,2.93.89,1.69.73,3.13,1.74,4.31,2.75-.18.53-.36,1.05-.54,1.58-3.13-.73-7.09-.94-11.56.61-1.54.53-2.96,1.22-4.26,1.97h.01Z"/>
          <line class="cls-5" x1="45.59" y1="13.41" x2="48.06" y2="7.59"/>
          <line class="cls-5" x1="46.97" y1="12.75" x2="48.71" y2="8.5"/>
          <line class="cls-5" x1="48.34" y1="12.21" x2="49.48" y2="9.16"/>
          <line class="cls-5" x1="49.52" y1="11.81" x2="50.13" y2="9.85"/>
          <line class="cls-5" x1="50.49" y1="11.54" x2="50.81" y2="10.56"/>
          <line class="cls-5" x1="52.05" y1="11.12" x2="54.28" y2="6.58"/>
          <line class="cls-5" x1="53.21" y1="10.93" x2="55.23" y2="6.7"/>
          <line class="cls-5" x1="54.31" y1="10.96" x2="56.14" y2="7.03"/>
          <line class="cls-5" x1="55.49" y1="10.76" x2="56.96" y2="7.39"/>
          <line class="cls-5" x1="56.56" y1="10.95" x2="57.83" y2="7.84"/>
          <line class="cls-5" x1="57.56" y1="11.03" x2="58.62" y2="8.31"/>
          <line class="cls-5" x1="58.53" y1="11.16" x2="59.35" y2="8.8"/>
          <line class="cls-5" x1="59.45" y1="11.19" x2="60.08" y2="9.35"/>
        </g>
        <g>
          <path class="cls-5" d="M47.64,22.4c.09.03.81.25,1.19,1.56.3,1.03.27,2.33-.08,3.36"/>
          <path class="cls-3" d="M47.74,22.5c.66-.67,1.46-1.36,2.38-1.93,1.52-.93,2.89-1.23,3.94-1.3-.81,1.53-1.61,3.07-2.42,4.6l-2.63.96c-.09-.36-.26-.94-.57-1.48-.26-.46-.52-.71-.7-.85Z"/>
          <path class="cls-3" d="M48.31,23.15c.63-.67,1.44-1.4,2.42-1.98,1.08-.64,2.05-.9,2.82-1"/>
          <path class="cls-3" d="M48.63,23.72c.57-.51,1.25-1.04,2.03-1.48.85-.49,1.64-.77,2.31-.93"/>
          <path class="cls-3" d="M48.86,24.33c.42-.37.94-.75,1.54-1.05.68-.33,1.3-.47,1.8-.52"/>
        </g>
      </g>
      <g>
        <path class="cls-2" d="M45.88,36.16c3-3.39,6.72-6.95,11.24-10.1,12.91-8.99,25.27-9.64,32.36-9.18,4.1-.12,7.4.33,9.66.77,3.96.76,5.55,1.63,8.88,1.99,3.89.42,7.1-.19,9.21-.77,4.83-3.88,9.66-7.75,14.5-11.63l-1.46,12.55,4.05,11.17-12.7-1.99c-2.23.33-5.55,1.02-9.44,2.6-4.93,2.01-7.45,4.11-12.81,7.19-2.87,1.65-7.02,3.85-12.25,5.97-5,.89-10.99,1.45-17.76,1.07-7.01-.39-13.15-1.7-18.21-3.21-.56-.14-3.6-.98-4.83-4.44-.18-.52-.36-1.18-.45-1.99h.01Z"/>
        <line class="cls-5" x1="120.42" y1="17.8" x2="131.01" y2="10.45"/>
        <line class="cls-5" x1="121.56" y1="19.26" x2="130.82" y2="15.1"/>
        <line class="cls-5" x1="122.85" y1="23.04" x2="130.82" y2="22.23"/>
        <path class="cls-7" d="M130.38,18.84l-7.93,2.39c-13.93,6.63-25.89,10.49-34.88,12.85-15.03,3.94-23.25,4.04-28.06,3.84-5.65-.23-10.33-1.05-13.63-1.77,10.26-11.87,19.01-15.13,23.21-16.64,12.45-4.46,24.45-2.58,24.45-2.58,5.06-.05,8.37.78,10.51,1.59.6.23,2,.8,3.97,1.1,2.64.41,4.65.09,5.15,0,1.5-.26,3.77-.89,6.34-2.59l2.95,4.19"/>
        <line class="cls-5" x1="122.93" y1="25.5" x2="132.73" y2="26.57"/>
        <line class="cls-5" x1="122.58" y1="27.33" x2="134.02" y2="30.13"/>
        <g>
          <ellipse class="cls-1" cx="51.89" cy="34.2" rx="1.37" ry="1.87"/>
          <ellipse class="cls-6" cx="51.89" cy="34.2" rx=".4" ry=".54"/>
        </g>
        <path class="cls-5" d="M57.21,44.13c.45-.39,2.42-2.22,3.09-5.86.71-3.81-.52-6.81-.78-7.4"/>
        <polygon class="cls-5" points="45.83 36.45 51.95 39.66 51.73 41.51 45.89 37.32 45.83 36.45"/>
        <path class="cls-5" d="M63.44,45.32c3.38-1.61,5.47-5.84,5.18-9.97-.3-4.17-2.89-6.51-3.26-6.84,5.88-2.05,10.87-3.23,14.59-3.96,6.04-1.17,9.06-1.76,13.2-1.35,4.75.47,6.01,1.7,10.83,2.16,4.77.45,8.68-.26,11.16-.9"/>
        <g>
          <path class="cls-3" d="M63.83,21.45c.49-1.7,1.45-4.41,3.31-7.03,1.58-2.22,3.2-3.54,4.33-4.29.36.54.96,1.35,1.82,2.1,1.11.97,1.84,1.14,3.11,1.96.68.44,1.66,1.16,2.79,2.33,1.86-2.5,3.72-4.99,5.58-7.49,2.04.25,4.29.68,6.72,1.41,3.87,1.16,7.19,2.77,9.89,4.38-.41.84-.83,1.68-1.24,2.52-7.19-1.17-16.28-1.5-26.52.97-3.53.85-6.79,1.94-9.78,3.14h0Z"/>
          <line class="cls-5" x1="66.56" y1="20.41" x2="72.22" y2="11.14"/>
          <line class="cls-5" x1="69.73" y1="19.36" x2="73.72" y2="12.59"/>
          <line class="cls-5" x1="72.86" y1="18.49" x2="75.47" y2="13.64"/>
          <line class="cls-5" x1="75.58" y1="17.86" x2="76.98" y2="14.73"/>
          <line class="cls-5" x1="77.79" y1="17.43" x2="78.53" y2="15.87"/>
          <line class="cls-5" x1="81.39" y1="16.75" x2="86.5" y2="9.52"/>
          <line class="cls-5" x1="84.05" y1="16.45" x2="88.68" y2="9.71"/>
          <line class="cls-5" x1="86.57" y1="16.5" x2="90.77" y2="10.24"/>
          <line class="cls-5" x1="89.28" y1="16.19" x2="92.64" y2="10.81"/>
          <line class="cls-5" x1="91.72" y1="16.49" x2="94.64" y2="11.53"/>
          <line class="cls-5" x1="94.02" y1="16.62" x2="96.44" y2="12.28"/>
          <line class="cls-5" x1="96.25" y1="16.82" x2="98.13" y2="13.07"/>
          <line class="cls-5" x1="98.37" y1="16.88" x2="99.8" y2="13.93"/>
        </g>
        <g>
          <path class="cls-5" d="M71.26,34.74c.21.04,1.86.41,2.72,2.48.69,1.64.61,3.72-.19,5.36"/>
          <path class="cls-3" d="M71.48,34.9c1.51-1.07,3.34-2.17,5.47-3.07,3.49-1.49,6.62-1.97,9.03-2.07-1.85,2.44-3.71,4.89-5.56,7.33l-6.04,1.54c-.2-.58-.6-1.51-1.3-2.36-.6-.73-1.2-1.13-1.61-1.36h0Z"/>
          <path class="cls-3" d="M72.8,35.94c1.44-1.07,3.3-2.24,5.54-3.16,2.49-1.02,4.71-1.44,6.47-1.6"/>
          <path class="cls-3" d="M73.52,36.85c1.31-.82,2.87-1.65,4.65-2.36,1.96-.78,3.76-1.22,5.3-1.48"/>
          <path class="cls-3" d="M74.06,37.82c.97-.59,2.16-1.2,3.54-1.67,1.57-.53,2.97-.75,4.13-.83"/>
        </g>
      </g>
      <g>
        <path class="cls-2" d="M86.15,46.49c1.53-1.88,3.43-3.87,5.74-5.61,6.59-5,12.91-5.36,16.53-5.1,2.1-.07,3.78.18,4.94.43,2.02.42,2.83.91,4.53,1.11,1.98.23,3.63-.1,4.71-.43,2.47-2.16,4.94-4.31,7.4-6.47l-.75,6.98,2.07,6.21-6.49-1.11c-1.14.18-2.84.57-4.82,1.45-2.52,1.12-3.8,2.28-6.54,4-1.46.92-3.58,2.14-6.26,3.32-2.55.49-5.61.81-9.07.6-3.58-.22-6.72-.94-9.3-1.79-.29-.08-1.84-.55-2.47-2.47-.09-.29-.18-.65-.23-1.11h0Z"/>
        <line class="cls-5" x1="124.22" y1="36.28" x2="129.63" y2="32.19"/>
        <line class="cls-5" x1="124.8" y1="37.09" x2="129.53" y2="34.78"/>
        <line class="cls-5" x1="125.46" y1="39.19" x2="129.53" y2="38.75"/>
        <path class="cls-7" d="M129.31,36.86l-4.05,1.33c-7.11,3.69-13.23,5.83-17.82,7.14-7.68,2.19-11.87,2.25-14.33,2.14-2.88-.13-5.28-.58-6.96-.98,5.24-6.6,9.71-8.41,11.86-9.25,6.36-2.48,12.49-1.43,12.49-1.43,2.58-.03,4.27.43,5.37.88.3.13,1.02.44,2.03.61,1.35.23,2.38.05,2.63,0,.77-.14,1.93-.49,3.24-1.44l1.51,2.33"/>
        <line class="cls-5" x1="125.5" y1="40.56" x2="130.51" y2="41.16"/>
        <line class="cls-5" x1="125.32" y1="41.58" x2="131.17" y2="43.14"/>
        <g>
          <path class="cls-1" d="M89.22,44.36c.39,0,.7.47.7,1.04s-.31,1.04-.7,1.04-.7-.47-.7-1.04.31-1.04.7-1.04Z"/>
          <ellipse class="cls-6" cx="89.22" cy="45.4" rx=".2" ry=".3"/>
        </g>
        <path class="cls-5" d="M91.93,50.92c.23-.22,1.24-1.24,1.58-3.26.36-2.12-.27-3.79-.4-4.11"/>
        <polygon class="cls-5" points="86.12 46.65 89.25 48.44 89.14 49.46 86.15 47.14 86.12 46.65"/>
        <path class="cls-5" d="M95.12,51.58c1.73-.9,2.79-3.24,2.64-5.54-.15-2.32-1.48-3.62-1.67-3.8,3-1.14,5.55-1.8,7.45-2.2,3.09-.65,4.63-.98,6.74-.75,2.43.26,3.07.94,5.53,1.2,2.43.25,4.43-.14,5.7-.5"/>
        <g>
          <path class="cls-3" d="M95.31,38.31c.25-.94.74-2.45,1.69-3.91.81-1.24,1.64-1.97,2.21-2.39.18.3.49.75.93,1.17.57.54.94.63,1.59,1.09.35.24.85.64,1.42,1.3.95-1.39,1.9-2.78,2.85-4.16,1.04.14,2.19.38,3.43.78,1.98.65,3.67,1.54,5.05,2.43-.21.47-.42.93-.63,1.4-3.67-.65-8.32-.84-13.54.54-1.8.47-3.47,1.08-5,1.75h0Z"/>
          <line class="cls-5" x1="96.71" y1="37.73" x2="99.6" y2="32.58"/>
          <line class="cls-5" x1="98.33" y1="37.15" x2="100.37" y2="33.38"/>
          <line class="cls-5" x1="99.93" y1="36.67" x2="101.26" y2="33.97"/>
          <line class="cls-5" x1="101.32" y1="36.32" x2="102.03" y2="34.58"/>
          <line class="cls-5" x1="102.44" y1="36.08" x2="102.82" y2="35.21"/>
          <line class="cls-5" x1="104.28" y1="35.7" x2="106.9" y2="31.68"/>
          <line class="cls-5" x1="105.64" y1="35.53" x2="108.01" y2="31.78"/>
          <line class="cls-5" x1="106.93" y1="35.56" x2="109.08" y2="32.08"/>
          <line class="cls-5" x1="108.32" y1="35.39" x2="110.03" y2="32.4"/>
          <line class="cls-5" x1="109.56" y1="35.56" x2="111.05" y2="32.8"/>
          <line class="cls-5" x1="110.74" y1="35.63" x2="111.97" y2="33.21"/>
          <line class="cls-5" x1="111.88" y1="35.74" x2="112.84" y2="33.65"/>
          <line class="cls-5" x1="112.96" y1="35.77" x2="113.69" y2="34.13"/>
        </g>
        <g>
          <path class="cls-5" d="M99.11,45.7c.1.02.95.23,1.39,1.38.35.91.31,2.07-.1,2.98"/>
          <path class="cls-3" d="M99.22,45.79c.77-.6,1.71-1.21,2.79-1.71,1.78-.83,3.38-1.09,4.61-1.15-.95,1.36-1.89,2.72-2.84,4.08l-3.08.85c-.1-.32-.3-.84-.67-1.31-.31-.4-.61-.63-.82-.76h.01Z"/>
          <path class="cls-3" d="M99.9,46.37c.74-.6,1.69-1.25,2.83-1.76,1.27-.57,2.41-.8,3.3-.89"/>
          <path class="cls-3" d="M100.26,46.87c.67-.46,1.46-.92,2.38-1.31,1-.43,1.92-.68,2.71-.82"/>
          <path class="cls-3" d="M100.54,47.41c.49-.33,1.1-.67,1.81-.93.8-.3,1.52-.42,2.11-.46"/>
        </g>
      </g>
      <g>
        <path class="cls-2" d="M111.14,30.76c.89-1.09,1.99-2.25,3.33-3.26,3.82-2.91,7.48-3.12,9.58-2.97,1.21-.04,2.19.11,2.86.25,1.17.25,1.64.53,2.63.64,1.15.14,2.1-.06,2.73-.25,1.43-1.25,2.86-2.51,4.29-3.76l-.43,4.06,1.2,3.61-3.76-.64c-.66.11-1.64.33-2.79.84-1.46.65-2.2,1.33-3.79,2.32-.85.53-2.08,1.24-3.63,1.93-1.48.29-3.25.47-5.26.35-2.08-.13-3.89-.55-5.39-1.04-.17-.05-1.06-.32-1.43-1.43-.05-.17-.11-.38-.13-.64h-.01Z"/>
        <line class="cls-5" x1="133.2" y1="24.83" x2="136.34" y2="22.45"/>
        <line class="cls-5" x1="133.54" y1="25.3" x2="136.28" y2="23.95"/>
        <line class="cls-5" x1="133.92" y1="26.52" x2="136.28" y2="26.26"/>
        <path class="cls-7" d="M136.15,25.16l-2.35.77c-4.12,2.14-7.67,3.39-10.33,4.15-4.45,1.27-6.88,1.31-8.31,1.24-1.67-.08-3.06-.34-4.04-.57,3.04-3.84,5.63-4.89,6.87-5.38,3.69-1.44,7.24-.83,7.24-.83,1.5-.02,2.48.25,3.11.51.18.07.59.26,1.18.36.78.13,1.38.03,1.52,0,.44-.08,1.12-.29,1.88-.84l.87,1.35"/>
        <line class="cls-5" x1="133.95" y1="27.31" x2="136.85" y2="27.66"/>
        <line class="cls-5" x1="133.84" y1="27.91" x2="137.23" y2="28.81"/>
        <g>
          <ellipse class="cls-1" cx="112.92" cy="30.13" rx=".41" ry=".61"/>
          <ellipse class="cls-6" cx="112.92" cy="30.13" rx=".12" ry=".17"/>
        </g>
        <path class="cls-5" d="M114.49,33.34c.13-.13.72-.72.92-1.9.21-1.23-.16-2.2-.23-2.39"/>
        <polygon class="cls-5" points="111.12 30.86 112.93 31.89 112.87 32.49 111.14 31.14 111.12 30.86"/>
        <path class="cls-5" d="M116.34,33.72c1-.52,1.62-1.89,1.53-3.22-.09-1.35-.86-2.11-.97-2.21,1.74-.66,3.22-1.05,4.32-1.28,1.79-.38,2.68-.57,3.91-.44,1.41.15,1.78.55,3.21.7,1.41.15,2.57-.08,3.3-.29"/>
        <g>
          <path class="cls-3" d="M116.45,26c.14-.55.43-1.42.98-2.27.47-.72.95-1.14,1.28-1.39.11.17.28.44.54.68.33.31.55.37.92.63.2.14.49.37.82.75.55-.81,1.1-1.61,1.65-2.42.6.08,1.27.22,1.99.46,1.15.38,2.13.9,2.93,1.42-.12.27-.25.54-.37.81-2.13-.38-4.82-.49-7.85.31-1.04.27-2.01.63-2.9,1.02h.01Z"/>
          <line class="cls-5" x1="117.26" y1="25.67" x2="118.93" y2="22.67"/>
          <line class="cls-5" x1="118.2" y1="25.33" x2="119.38" y2="23.14"/>
          <line class="cls-5" x1="119.12" y1="25.05" x2="119.9" y2="23.48"/>
          <line class="cls-5" x1="119.93" y1="24.84" x2="120.34" y2="23.83"/>
          <line class="cls-5" x1="120.58" y1="24.71" x2="120.8" y2="24.2"/>
          <line class="cls-5" x1="121.65" y1="24.49" x2="123.16" y2="22.15"/>
          <line class="cls-5" x1="122.44" y1="24.39" x2="123.81" y2="22.21"/>
          <line class="cls-5" x1="123.18" y1="24.4" x2="124.43" y2="22.38"/>
          <line class="cls-5" x1="123.99" y1="24.3" x2="124.98" y2="22.57"/>
          <line class="cls-5" x1="124.71" y1="24.4" x2="125.57" y2="22.8"/>
          <line class="cls-5" x1="125.39" y1="24.44" x2="126.11" y2="23.04"/>
          <line class="cls-5" x1="126.05" y1="24.51" x2="126.61" y2="23.3"/>
          <line class="cls-5" x1="126.68" y1="24.53" x2="127.1" y2="23.57"/>
        </g>
        <g>
          <path class="cls-5" d="M118.65,30.3c.06.01.55.13.81.8.2.53.18,1.2-.06,1.73"/>
          <path class="cls-3" d="M118.72,30.35c.45-.35.99-.7,1.62-.99,1.03-.48,1.96-.64,2.67-.67-.55.79-1.1,1.58-1.65,2.37l-1.79.5c-.06-.19-.18-.49-.39-.76-.18-.24-.35-.37-.48-.44h.02Z"/>
          <path class="cls-3" d="M119.11,30.69c.43-.35.98-.72,1.64-1.02.74-.33,1.4-.47,1.92-.52"/>
          <path class="cls-3" d="M119.32,30.98c.39-.27.85-.53,1.38-.76.58-.25,1.11-.39,1.57-.48"/>
          <path class="cls-3" d="M119.48,31.3c.29-.19.64-.39,1.05-.54.46-.17.88-.24,1.22-.27"/>
        </g>
      </g>
    </g>
  </g>
</svg>