<?xml version="1.0" encoding="UTF-8"?>
<svg id="Layer_2" data-name="Layer 2" xmlns="http://www.w3.org/2000/svg" viewBox="0 0 345.03 291.93">
  <defs>
    <style>
      .cls-1 {
        font-size: 10.29px;
      }

      .cls-1, .cls-2 {
        font-family: Skia-Regular, Skia;
        font-variation-settings: 'wght' 1, 'wdth' 1;
      }

      .cls-1, .cls-2, .cls-3, .cls-4, .cls-5, .cls-6, .cls-7, .cls-8, .cls-9, .cls-10, .cls-11, .cls-12, .cls-13, .cls-14, .cls-15 {
        isolation: isolate;
      }

      .cls-1, .cls-2, .cls-4, .cls-7, .cls-10, .cls-16, .cls-13, .cls-14, .cls-15 {
        fill: #fff;
      }

      .cls-17 {
        stroke-width: .1px;
      }

      .cls-17, .cls-18, .cls-19, .cls-20, .cls-21, .cls-22, .cls-23, .cls-24, .cls-25, .cls-26, .cls-27 {
        stroke-miterlimit: 10;
      }

      .cls-17, .cls-18, .cls-19, .cls-20, .cls-21, .cls-22, .cls-23, .cls-24, .cls-27 {
        fill: none;
      }

      .cls-17, .cls-21, .cls-22, .cls-23, .cls-27 {
        stroke: #33215e;
      }

      .cls-2 {
        font-size: 9.02px;
      }

      .cls-28 {
        fill: #aaa;
      }

      .cls-28, .cls-29, .cls-30, .cls-31, .cls-32, .cls-33, .cls-34, .cls-35, .cls-16 {
        stroke-width: 0px;
      }

      .cls-29 {
        fill: #e26f42;
      }

      .cls-30 {
        fill: #9e9d9d;
      }

      .cls-31 {
        fill: #e86321;
      }

      .cls-3 {
        letter-spacing: -.02em;
      }

      .cls-3, .cls-6, .cls-8, .cls-11 {
        fill: #000;
        font-family: BrushScriptMT, 'Brush Script MT';
      }

      .cls-3, .cls-11 {
        font-size: 5.31px;
      }

      .cls-18 {
        stroke-width: .5px;
      }

      .cls-18, .cls-19, .cls-20, .cls-24 {
        stroke: #ffb9a4;
      }

      .cls-19, .cls-25, .cls-26 {
        stroke-width: .25px;
      }

      .cls-4, .cls-7, .cls-10, .cls-13, .cls-14, .cls-15 {
        font-family: Arial-ItalicMT, Arial;
        font-style: italic;
      }

      .cls-4, .cls-10, .cls-14 {
        font-size: 6.6px;
      }

      .cls-5 {
        font-size: 7.98px;
      }

      .cls-5, .cls-9 {
        fill: #f96f23;
        font-family: ArialMT, Arial;
      }

      .cls-32 {
        fill: #1a1e56;
      }

      .cls-33 {
        fill: #a3d3d8;
      }

      .cls-6, .cls-8 {
        font-size: 4.66px;
      }

      .cls-7 {
        letter-spacing: -.02em;
      }

      .cls-7, .cls-13, .cls-15 {
        font-size: 7.53px;
      }

      .cls-21 {
        stroke-width: .9px;
      }

      .cls-34 {
        fill: #75b2bc;
      }

      .cls-22 {
        stroke-width: .15px;
      }

      .cls-8 {
        letter-spacing: -.02em;
      }

      .cls-23 {
        stroke-width: .6px;
      }

      .cls-9 {
        font-size: 7px;
      }

      .cls-10 {
        letter-spacing: -.02em;
      }

      .cls-35 {
        fill: #ffb9a4;
      }

      .cls-24, .cls-27 {
        stroke-width: .75px;
      }

      .cls-25 {
        fill: #b1c7c9;
      }

      .cls-25, .cls-26 {
        stroke: #000;
      }

      .cls-13 {
        letter-spacing: .02em;
      }

      .cls-14 {
        letter-spacing: .02em;
      }

      .cls-26 {
        fill: #fcfcfc;
      }
    </style>
  </defs>
  <g id="Layer_1-2" data-name="Layer 1">
    <g>
      <g id="fish-package">
        <path class="cls-25" d="M166.27,26.72c-.52-3.1-3.36-19.07-15.49-24.8-1.63-.79-3.64-1.46-6.08-1.8C101.73,15.47,58.73,30.85,15.72,46.2c-1.73.66-8.48,3.5-12.63,11.28-5.36,10.05-1.91,19.99-1.44,21.27,17.01,62.86,34.01,125.73,51.01,188.56.65,7.16,4.67,13.18,10.57,15.62,7.01,2.93,13.49-.56,14.51-1.12,41.85-14.95,83.7-29.9,125.52-44.85,1.78-.79,7.18-3.47,10.62-9.9,5.15-9.61,1.47-19.33,1.02-20.43-16.22-59.96-32.46-119.95-48.68-179.91h.06Z"/>
        <path class="cls-34" d="M160.2,34.37c-.24-2.42-1.4-10.71-7.97-16.93-3.9-3.66-8.03-5.09-10.4-5.66-40.44,14.29-80.92,28.56-121.37,42.86-3.53,1.11-9.17,3.5-11.34,8.76-1.7,4.13-.58,8.28-.17,9.85,2.82,10.39,22.02,82.81,48.64,182.3.05,1,.53,9.78,7.45,14.37,4.33,2.88,8.81,2.57,10.42,2.36,40.15-14.18,80.27-28.35,120.43-42.53,1.07-.59,8.08-4.64,10.3-13.5,1.62-6.52-.32-11.74-1-13.38-14.98-56.17-29.99-112.33-44.97-168.5h-.03Z"/>
        <path class="cls-33" d="M149.23,42.73c-1.28-5.13-3.98-12.43-9.62-14.24-2.9-.92-5.51-.1-6.49.2-69.04,21.32-78.83,26.22-98.8,34.88-1.57.69-4.2,2.12-6.39,5-5,6.6-3.2,14.86-2.97,15.85,14.01,52.48,28.02,104.99,42.03,157.46.46,1.9,2.37,8.89,8.75,12.91,2.97,1.89,5.84,2.45,7.76,2.64,32.14-11.35,64.29-22.69,96.43-34.04,1.02-.37,7.07-2.69,10.28-9.66,3.39-7.34,1.01-14.03.63-15.02-13.88-51.98-27.76-103.97-41.61-155.96v-.03Z"/>
        <polygon class="cls-26" points="25.36 167.96 46.48 247.1 210.45 189.21 189.33 110.07 25.36 167.96"/>
        <polygon class="cls-32" points="34.52 202.22 46.48 247.1 210.45 189.21 198.46 144.34 34.52 202.22"/>
        <g class="cls-12">
          <text class="cls-5" transform="translate(48.33 243.25) rotate(-19.44) scale(1.01 1) skewX(-4.44)"><tspan x="0" y="0">BONELESS STEAK</tspan></text>
        </g>
        <path class="cls-30" d="M51.67,177.51c1.5,1.03,4.03,3.06,6.21,6.59,2.37,3.86,3.16,7.61,3.47,9.63.61,1.44,1.32,3.66,1.5,6.46.32,5.18-1.49,9.09-2.3,10.64,3.34-2.45,5.67-4.9,7.14-6.66,3.58-4.23,4.46-6.99,7.88-9.76,2.59-2.1,5.17-3,6.87-3.47.81.28,1.44.95,1.59,1.78.21,1.21-.75,2.7-2.36,2.91,2.8,2.1,5.6,4.23,8.37,6.34l6.61-6.99,13.38-.08-1.3,7.71,9.03-8.88c8.16-2.46,14.77-5.34,19.61-7.7,8.2-4,14.76-7.26,21.68-14.12,4.2-4.17,7.16-8.28,9.06-11.23-2.96,1.22-5.89,2.44-8.86,3.63,2.44-3.11,4.89-6.21,7.33-9.32-7.24,2.23-12.99,2.23-16.91,1.84-9.09-.93-13.32-4.59-21.81-3.93-5.29.4-9.5,2.29-12.16,3.79-4.93-2.31-9.86-4.63-14.79-6.94l-2.33,12.99,3.79-.03c-1.6,1.36-3.23,2.7-4.95,4.06-4.44,3.51-8.78,6.57-12.95,9.24-2.48.19-4.97.38-7.45.56l1.42,4.43-7.56,1.89-19.27-5.35h.06Z"/>
        <g class="cls-12">
          <text class="cls-1" transform="translate(83.67 190.82) rotate(-19.44) scale(.86 1) skewX(-5.26)"><tspan x="0" y="0">Norwegian Salmon</tspan></text>
        </g>
        <polygon class="cls-28" points="163.77 185.55 168.24 202.31 209.55 187.73 205.08 170.97 163.77 185.55"/>
        <polygon class="cls-16" points="164.76 186.22 168.73 201.03 191.33 193.04 187.36 178.23 164.76 186.22"/>
        <line class="cls-22" x1="169.26" y1="199.5" x2="165.92" y2="187.04"/>
        <line class="cls-22" x1="169.93" y1="199.25" x2="166.6" y2="186.82"/>
        <line class="cls-27" x1="171.29" y1="198.75" x2="168" y2="186.32"/>
        <line class="cls-22" x1="172.48" y1="198.35" x2="169.16" y2="185.92"/>
        <line class="cls-17" x1="172.93" y1="198.17" x2="169.64" y2="185.74"/>
        <line class="cls-23" x1="174.15" y1="197.76" x2="170.81" y2="185.31"/>
        <line class="cls-17" x1="175.41" y1="197.32" x2="172.09" y2="184.89"/>
        <line class="cls-17" x1="175.73" y1="197.2" x2="172.41" y2="184.77"/>
        <line class="cls-17" x1="176.08" y1="197.07" x2="172.78" y2="184.64"/>
        <line class="cls-17" x1="177.5" y1="196.56" x2="174.18" y2="184.13"/>
        <line class="cls-17" x1="177.91" y1="196.43" x2="174.61" y2="183.99"/>
        <line class="cls-17" x1="178.31" y1="196.29" x2="175.02" y2="183.86"/>
        <line class="cls-21" x1="179.71" y1="195.79" x2="176.38" y2="183.36"/>
        <line class="cls-22" x1="176.8" y1="196.81" x2="173.48" y2="184.38"/>
        <line class="cls-22" x1="183.5" y1="194.47" x2="180.17" y2="182.01"/>
        <line class="cls-17" x1="189.74" y1="192.27" x2="186.41" y2="179.82"/>
        <line class="cls-17" x1="184.42" y1="194.15" x2="181.08" y2="181.69"/>
        <line class="cls-21" x1="185.73" y1="193.66" x2="182.43" y2="181.23"/>
        <line class="cls-22" x1="187.26" y1="193.13" x2="183.97" y2="180.7"/>
        <line class="cls-22" x1="188.5" y1="192.69" x2="185.17" y2="180.26"/>
        <line class="cls-22" x1="181.3" y1="195.25" x2="177.96" y2="182.79"/>
        <line class="cls-22" x1="182.4" y1="194.86" x2="179.07" y2="182.4"/>
        <g class="cls-12">
          <text class="cls-11" transform="translate(190.46 182.39) rotate(-19.44) scale(1.15 1) skewX(-3.91)"><tspan x="0" y="0" xml:space="preserve"> Ready </tspan></text>
          <text class="cls-3" transform="translate(192.1 188.53) rotate(-19.44) scale(1.15 1) skewX(-3.91)"><tspan x="0" y="0">T</tspan></text>
          <text class="cls-11" transform="translate(195.25 187.42) rotate(-19.44) scale(1.15 1) skewX(-3.91)"><tspan x="0" y="0">o Cook</tspan></text>
        </g>
        <polygon class="cls-31" points="34.47 164.74 37.38 175.57 77.95 161.22 75.09 150.41 34.47 164.74"/>
        <g class="cls-12">
          <text class="cls-15" transform="translate(40.6 171.06) rotate(-19.44) scale(1.09 1) skewX(-4.09)"><tspan x="0" y="0">W</tspan></text>
          <text class="cls-15" transform="translate(47.51 168.63) rotate(-19.44) scale(1.09 1) skewX(-4.09)"><tspan x="0" y="0">i</tspan></text>
          <text class="cls-15" transform="translate(49.33 167.98) rotate(-19.44) scale(1.09 1) skewX(-4.09)"><tspan x="0" y="0">l</tspan></text>
          <text class="cls-13" transform="translate(51.12 167.35) rotate(-19.44) scale(1.09 1) skewX(-4.09)"><tspan x="0" y="0">d</tspan></text>
          <text class="cls-15" transform="translate(55.68 165.74) rotate(-19.44) scale(1.09 1) skewX(-4.09)"><tspan x="0" y="0"> </tspan></text>
          <text class="cls-7" transform="translate(57.63 165.06) rotate(-19.44) scale(1.09 1) skewX(-4.09)"><tspan x="0" y="0">F</tspan></text>
          <text class="cls-15" transform="translate(61.85 163.56) rotate(-19.44) scale(1.09 1) skewX(-4.09)"><tspan x="0" y="0">i</tspan></text>
          <text class="cls-15" transform="translate(63.7 162.91) rotate(-19.44) scale(1.09 1) skewX(-4.09)"><tspan x="0" y="0">sh</tspan></text>
        </g>
        <path class="cls-29" d="M60.35,156.14c-12.88-32.35-11.3-66.43,5.61-87.5,3.76-4.69,9.87-10.74,19.55-15.34,5.76-2.11,16.73-5.12,28.89-1.41,15.55,4.73,23.8,17.61,31.05,28.91,4.85,7.57,11.96,20.79,15.59,39.78-33.57,11.85-67.13,23.71-100.71,35.54v.03Z"/>
        <path class="cls-24" d="M96.53,90.36c-13.58,3.56-20.83-.79-31.31,6.38-5.57,3.81-7.11,7.51-7.64,9.2-1.2,3.82-1.12,9.48,1.76,11.65,6.09,4.63,17.8-11.57,41.1-17.65,19.93-5.2,35.07.49,40.65-8.33.28-.45,2.15-3.48,1.66-6.86-.75-5.53-7.25-8.99-12.07-9.86-11.76-2.17-15.55,10.58-34.15,15.44v.03Z"/>
        <path class="cls-18" d="M93.83,74.74c-7.14,1.91-10.9-.23-16.45,3.46-2.96,1.95-3.77,3.84-4.06,4.69-.67,1.92-.65,4.79.86,5.85,3.15,2.28,9.4-5.96,21.64-9.21,10.48-2.77,18.35-.06,21.35-4.52.16-.24,1.14-1.77.92-3.46-.35-2.77-3.73-4.46-6.25-4.84-6.15-.99-8.22,5.43-18,8.04Z"/>
        <path class="cls-35" d="M103.43,140.93l1.63-6.58c-.84-.76-1.9-1.99-2.25-3.76-.46-2.47.69-4.49,1.37-6.56.9-2.79.44-5.17-.47-9.79-1.66-8.26-4.15-10.63-6.33-17.88-2.67-8.98.1-8.83-2.68-17.03-1.97-5.76-4.87-10.34-8.16-15.55-2.32-3.68-4.45-6.61-6.01-8.67l16.1-5.68c-2.63,13.81-1.2,23.7.64,30.18,1.61,5.68,3.44,8.6,6.08,17.01,2.82,8.99,4.18,16.69,4.87,21.74,1.71,1.24,3.96,3.2,5.65,6.14,1.1,1.93,1.68,3.74,2.02,5.26,1.21,1.82,2.42,3.63,3.63,5.45l-16.1,5.68v.03Z"/>
        <path class="cls-18" d="M80.53,55.11c-9.19,5.03-14.06,12.71-16.78,16.99-13.65,21.53-11.51,49.79-10.88,56.41,2.42,9.06,4.85,18.12,7.27,27.18l100.88-35.08c-9.21-34.35-25.94-58.15-41.08-65.27-11.94-5.61-23.06-4.82-23.06-4.82-2.95.21-9.31.73-16.38,4.6h.03Z"/>
        <path class="cls-19" d="M68.13,67.3c2.98,1.18,11.12,3.9,21.27,1.01,11.97-3.45,18.62-12.46,20.45-15.08"/>
        <line class="cls-19" x1="58.32" y1="82.96" x2="72.32" y2="84.2"/>
        <polyline class="cls-19" points="124.78 58.1 120.03 63.71 116.04 68.44"/>
        <path class="cls-19" d="M55.41,135.23c1.61-4.87,4.03-7.85,5.49-9.37,6.73-7.01,15.64-7.03,18.03-6.92,4.61.21,5.17,1.66,9.26,1.63,6-.05,10.97-3.2,14.36-5.96"/>
        <path class="cls-19" d="M106.12,118.7c1.61-4.87,4.03-7.85,5.49-9.37,6.73-7.01,15.64-7.03,18.03-6.92,4.61.21,5.17,1.66,9.26,1.63,6-.05,10.97-3.2,14.36-5.96"/>
        <path class="cls-19" d="M63.78,72.1c1.02,4.29,2.36,5.5,3.48,5.72,2.17.42,3.61-2.93,7-3.74,2.78-.67,5.41.73,7.38,2.22"/>
        <path class="cls-19" d="M116.03,53.66c1.88,2.79,2,4.11,1.62,4.76-.92,1.42-4.35-.5-6.28,1.32-1.24,1.18-1.33,3.42-1.1,5.45"/>
        <path class="cls-19" d="M66.5,115.03c.09-1.48.55-5.28,3.27-8.75,2.88-3.71,6.6-4.79,7.98-5.17,4.56-1.27,6.12.63,9.92-.41,2.14-.61,5.18-2.21,8.34-6.92"/>
        <path class="cls-19" d="M102.07,92.72c3.63,1.34,8.65,2.35,13.53.1,4.05-1.91,5.06-4.75,8.57-6.11,3.09-1.18,7.95-1.14,15.53,4.67"/>
        <path class="cls-20" d="M104.17,121.19c-13.58,3.56-20.83-.79-31.31,6.38-5.57,3.81-7.11,7.51-7.64,9.2-1.2,3.82-1.12,9.48,1.76,11.65,6.09,4.63,17.8-11.57,41.1-17.65,19.93-5.2,35.07.49,40.65-8.33.28-.45,2.15-3.48,1.66-6.86-.75-5.53-7.25-8.99-12.07-9.86-11.76-2.17-15.55,10.58-34.15,15.44v.03Z"/>
      </g>
      <g id="fish-package-2" data-name="fish-package">
        <path class="cls-25" d="M304.67,58.32c-.34-2.75-2.27-16.89-14.53-21.53-1.65-.65-3.69-1.16-6.22-1.37-45.75,15.37-91.52,30.77-137.3,46.14-1.85.65-9.06,3.45-13.88,10.56-6.24,9.18-3.28,17.91-2.87,19.04,13.65,55.44,27.3,110.87,40.95,166.29.22,6.37,4.02,11.58,10,13.53,7.11,2.34,14.09-1.03,15.18-1.56,44.55-14.97,89.1-29.95,133.61-44.91,1.91-.77,7.7-3.38,11.7-9.25,5.98-8.78,2.77-17.3,2.38-18.27-13.03-52.88-26.06-105.78-39.09-158.66h.06Z"/>
        <path class="cls-34" d="M297.85,65.39c-.09-2.15-.77-9.51-7.21-14.8-3.82-3.12-8.04-4.23-10.46-4.64-43.04,14.33-86.12,28.64-129.16,42.97-3.75,1.13-9.77,3.48-12.38,8.26-2.04,3.75-1.14,7.41-.81,8.79,2.27,9.16,17.59,73.04,38.89,160.79-.01.89-.08,8.71,6.83,12.54,4.33,2.4,9.01,1.95,10.7,1.7,42.73-14.22,85.43-28.43,128.16-42.64,1.15-.57,8.72-4.46,11.6-12.45,2.11-5.88.42-10.46-.17-11.9-11.97-49.54-23.98-99.08-35.95-148.62h-.03Z"/>
        <path class="cls-33" d="M285.89,73.27c-1.01-4.52-3.35-10.94-9.1-12.34-2.96-.71-5.73.12-6.77.43-73.27,21.72-83.79,26.47-105.14,34.97-1.68.68-4.51,2.06-6.97,4.71-5.64,6.09-4.29,13.39-4.11,14.26,11.2,46.29,22.41,92.6,33.61,138.88.35,1.67,1.89,7.84,8.27,11.18,2.97,1.57,5.92,1.96,7.91,2.05,34.21-11.38,68.42-22.76,102.62-34.13,1.08-.37,7.53-2.67,11.33-9.02,4.01-6.68,1.96-12.56,1.63-13.43-11.1-45.85-22.19-91.7-33.26-137.55v-.03Z"/>
        <polygon class="cls-26" points="148.81 189.85 165.69 259.65 340.19 201.61 323.31 131.81 148.81 189.85"/>
        <polygon class="cls-32" points="156.13 220.08 165.69 259.65 340.19 201.61 330.6 162.03 156.13 220.08"/>
        <g class="cls-12">
          <text class="cls-9" transform="translate(167.86 256.14) rotate(-18.4) scale(1.22 1) skewX(-3.93)"><tspan x="0" y="0">BONELESS STEAK</tspan></text>
        </g>
        <path class="cls-30" d="M175.59,197.35c1.49.86,4,2.57,6.04,5.64,2.22,3.35,2.8,6.67,3,8.46.54,1.26,1.14,3.21,1.15,5.7,0,4.61-2.13,8.17-3.09,9.59,3.64-2.32,6.22-4.59,7.86-6.22,4-3.92,5.1-6.41,8.84-9.02,2.83-1.97,5.58-2.88,7.38-3.37.82.22,1.44.79,1.54,1.52.14,1.07-.96,2.44-2.64,2.69,2.78,1.77,5.56,3.56,8.31,5.33l7.34-6.5,13.94-.59-1.85,6.93,9.98-8.27c8.65-2.52,15.73-5.34,20.92-7.64,8.8-3.89,15.84-7.05,23.49-13.45,4.64-3.88,7.99-7.67,10.16-10.37-3.16,1.21-6.29,2.4-9.46,3.58,2.75-2.87,5.49-5.74,8.24-8.6-7.69,2.27-13.67,2.5-17.73,2.3-9.41-.48-13.57-3.58-22.46-2.66-5.53.57-10.04,2.41-12.91,3.85-4.98-1.87-9.97-3.75-14.95-5.62l-3.26,11.69,3.95-.18c-1.75,1.28-3.54,2.54-5.42,3.82-4.85,3.3-9.57,6.21-14.09,8.75-2.6.26-5.2.53-7.79.79l1.19,3.9-8,1.99-19.73-4.02h.06Z"/>
        <g class="cls-12">
          <text class="cls-2" transform="translate(208.06 207.98) rotate(-18.4) scale(1.03 1) skewX(-4.66)"><tspan x="0" y="0">Norwegian Salmon</tspan></text>
        </g>
        <polygon class="cls-28" points="291.82 200.16 295.39 214.94 339.36 200.32 335.78 185.54 291.82 200.16"/>
        <polygon class="cls-16" points="292.81 200.72 295.98 213.78 320.04 205.77 316.86 192.71 292.81 200.72"/>
        <line class="cls-22" x1="296.63" y1="212.39" x2="293.96" y2="201.4"/>
        <line class="cls-22" x1="297.34" y1="212.15" x2="294.68" y2="201.18"/>
        <line class="cls-27" x1="298.8" y1="211.65" x2="296.17" y2="200.68"/>
        <line class="cls-22" x1="300.06" y1="211.24" x2="297.4" y2="200.28"/>
        <line class="cls-17" x1="300.54" y1="211.07" x2="297.91" y2="200.1"/>
        <line class="cls-23" x1="301.83" y1="210.65" x2="299.17" y2="199.67"/>
        <line class="cls-17" x1="303.18" y1="210.2" x2="300.52" y2="199.24"/>
        <line class="cls-17" x1="303.52" y1="210.08" x2="300.86" y2="199.12"/>
        <line class="cls-17" x1="303.89" y1="209.96" x2="301.26" y2="198.99"/>
        <line class="cls-17" x1="305.4" y1="209.45" x2="302.74" y2="198.49"/>
        <line class="cls-17" x1="305.83" y1="209.31" x2="303.2" y2="198.34"/>
        <line class="cls-17" x1="306.27" y1="209.17" x2="303.63" y2="198.21"/>
        <line class="cls-21" x1="307.75" y1="208.67" x2="305.09" y2="197.71"/>
        <line class="cls-22" x1="304.66" y1="209.7" x2="302" y2="198.74"/>
        <line class="cls-22" x1="311.79" y1="207.35" x2="309.12" y2="196.36"/>
        <line class="cls-17" x1="318.43" y1="205.15" x2="315.76" y2="194.16"/>
        <line class="cls-17" x1="312.76" y1="207.03" x2="310.09" y2="196.04"/>
        <line class="cls-21" x1="314.16" y1="206.54" x2="311.53" y2="195.57"/>
        <line class="cls-22" x1="315.79" y1="206.01" x2="313.16" y2="195.04"/>
        <line class="cls-22" x1="317.1" y1="205.56" x2="314.44" y2="194.6"/>
        <line class="cls-22" x1="309.44" y1="208.13" x2="306.77" y2="197.14"/>
        <line class="cls-22" x1="310.62" y1="207.74" x2="307.95" y2="196.75"/>
        <g class="cls-12">
          <text class="cls-6" transform="translate(319.82 196.29) rotate(-18.4) scale(1.38 1) skewX(-3.46)"><tspan x="0" y="0" xml:space="preserve"> Ready </tspan></text>
          <text class="cls-8" transform="translate(321.13 201.71) rotate(-18.4) scale(1.38 1) skewX(-3.46)"><tspan x="0" y="0">T</tspan></text>
          <text class="cls-6" transform="translate(324.48 200.6) rotate(-18.4) scale(1.38 1) skewX(-3.46)"><tspan x="0" y="0">o Cook</tspan></text>
        </g>
        <polygon class="cls-31" points="158.5 186.62 160.83 196.18 204.01 181.79 201.72 172.26 158.5 186.62"/>
        <g class="cls-12">
          <text class="cls-4" transform="translate(164.48 192.03) rotate(-18.4) scale(1.32 1) skewX(-3.61)"><tspan x="0" y="0">W</tspan></text>
          <text class="cls-4" transform="translate(171.83 189.59) rotate(-18.4) scale(1.32 1) skewX(-3.61)"><tspan x="0" y="0">i</tspan></text>
          <text class="cls-4" transform="translate(173.77 188.94) rotate(-18.4) scale(1.32 1) skewX(-3.61)"><tspan x="0" y="0">l</tspan></text>
          <text class="cls-14" transform="translate(175.67 188.31) rotate(-18.4) scale(1.32 1) skewX(-3.61)"><tspan x="0" y="0">d</tspan></text>
          <text class="cls-4" transform="translate(180.52 186.69) rotate(-18.4) scale(1.32 1) skewX(-3.61)"><tspan x="0" y="0"> </tspan></text>
          <text class="cls-10" transform="translate(182.6 186) rotate(-18.4) scale(1.32 1) skewX(-3.61)"><tspan x="0" y="0">F</tspan></text>
          <text class="cls-4" transform="translate(187.09 184.51) rotate(-18.4) scale(1.32 1) skewX(-3.61)"><tspan x="0" y="0">i</tspan></text>
          <text class="cls-4" transform="translate(189.06 183.85) rotate(-18.4) scale(1.32 1) skewX(-3.61)"><tspan x="0" y="0">sh</tspan></text>
        </g>
        <path class="cls-29" d="M186.01,177.95c-11.33-28.37-7.48-58.84,11.5-78.3,4.22-4.33,10.97-9.97,21.35-14.46,6.13-2.11,17.75-5.22,30.18-2.39,15.89,3.61,23.65,14.79,30.47,24.59,4.56,6.57,11.11,18.09,13.67,34.89-35.72,11.89-71.45,23.77-107.18,35.64v.03Z"/>
        <path class="cls-24" d="M227.93,117.83c-14.37,3.71-21.65.11-33.02,6.91-6.05,3.62-7.89,6.98-8.55,8.5-1.5,3.46-1.78,8.5,1.08,10.33,6.04,3.89,19.29-11.02,43.95-17.35,21.09-5.42,36.49-.93,42.87-9.01.32-.41,2.46-3.19,2.17-6.19-.43-4.91-6.97-7.74-11.94-8.32-12.11-1.48-16.87,10.04-36.56,15.11v.03Z"/>
        <path class="cls-18" d="M226.12,104c-7.56,1.98-11.34.22-17.36,3.73-3.21,1.86-4.17,3.57-4.53,4.34-.82,1.74-.99,4.3.51,5.18,3.14,1.91,10.17-5.68,23.13-9.06,11.09-2.88,19.11-.77,22.52-4.87.18-.22,1.3-1.62,1.19-3.13-.18-2.46-3.6-3.83-6.2-4.08-6.34-.64-8.91,5.17-19.27,7.88Z"/>
        <path class="cls-35" d="M231.85,162.69l2.12-5.94c-.83-.64-1.85-1.71-2.1-3.27-.32-2.19,1-4.03,1.85-5.91,1.12-2.52.79-4.63.14-8.72-1.19-7.3-3.64-9.32-5.44-15.71-2.2-7.91.68-7.88-1.69-15.09-1.68-5.06-4.4-9.04-7.49-13.56-2.18-3.2-4.21-5.73-5.7-7.5l17.13-5.69c-3.63,12.43-2.78,21.19-1.28,26.91,1.31,5,3.03,7.54,5.23,14.94,2.36,7.91,3.28,14.73,3.67,19.21,1.7,1.04,3.91,2.7,5.49,5.26,1.02,1.68,1.51,3.27,1.76,4.62,1.14,1.57,2.29,3.15,3.43,4.72l-17.13,5.69v.03Z"/>
        <path class="cls-18" d="M213.55,87c-9.89,4.85-15.46,11.89-18.57,15.82-15.61,19.75-15.2,44.88-14.97,50.76,1.94,7.99,3.88,15.98,5.82,23.97l107.33-35.24c-7.38-30.29-23.26-50.89-38.57-56.65-12.07-4.54-23.7-3.41-23.7-3.41-3.09.31-9.74,1.01-17.36,4.75h.03Z"/>
        <path class="cls-19" d="M199.85,98.36c3.03.94,11.33,3.05,22.08.07,12.69-3.54,20.2-11.84,22.27-14.26"/>
        <line class="cls-19" x1="188.61" y1="112.72" x2="203.12" y2="113.28"/>
        <polyline class="cls-19" points="259.44 87.94 254.12 93.13 249.66 97.51"/>
        <path class="cls-19" d="M182.22,159.48c1.99-4.41,4.71-7.17,6.32-8.58,7.46-6.52,16.74-6.88,19.23-6.88,4.79,0,5.28,1.28,9.54,1.09,6.25-.28,11.63-3.28,15.34-5.88"/>
        <path class="cls-19" d="M236.09,142.75c1.99-4.41,4.71-7.17,6.32-8.58,7.46-6.52,16.74-6.88,19.23-6.88,4.79,0,5.28,1.28,9.54,1.09,6.25-.28,11.63-3.28,15.34-5.88"/>
        <path class="cls-19" d="M195,102.81c.78,3.79,2.11,4.82,3.25,4.97,2.23.29,3.95-2.75,7.53-3.61,2.94-.71,5.59.44,7.55,1.7"/>
        <path class="cls-19" d="M250.61,84.32c1.78,2.42,1.82,3.59,1.37,4.18-1.05,1.3-4.5-.28-6.62,1.42-1.37,1.1-1.6,3.1-1.49,4.9"/>
        <path class="cls-19" d="M195.07,141.02c.19-1.33.91-4.74,3.97-7.93,3.24-3.42,7.18-4.54,8.64-4.93,4.83-1.32,6.34.32,10.36-.76,2.27-.63,5.54-2.18,9.14-6.5"/>
        <path class="cls-19" d="M233.55,119.72c3.69,1.05,8.86,1.76,14.08-.43,4.35-1.86,5.58-4.44,9.32-5.78,3.3-1.18,8.35-1.33,15.87,3.56"/>
        <path class="cls-20" d="M233.89,145.05c-14.37,3.71-21.65.11-33.02,6.91-6.05,3.62-7.89,6.98-8.55,8.5-1.5,3.46-1.78,8.5,1.08,10.33,6.04,3.89,19.29-11.02,43.95-17.35,21.09-5.42,36.49-.93,42.87-9.01.32-.41,2.46-3.19,2.17-6.19-.43-4.91-6.97-7.74-11.94-8.32-12.11-1.48-16.87,10.04-36.56,15.11v.03Z"/>
      </g>
    </g>
  </g>
</svg>