<?xml version="1.0" encoding="UTF-8"?>
<svg id="Layer_2" data-name="Layer 2" xmlns="http://www.w3.org/2000/svg" viewBox="0 0 64.37 88.89">
  <defs>
    <style>
      .cls-1 {
        letter-spacing: 0em;
      }

      .cls-2 {
        stroke-width: .1px;
      }

      .cls-2, .cls-3, .cls-4, .cls-5, .cls-6, .cls-7, .cls-8, .cls-9, .cls-10, .cls-11, .cls-12 {
        stroke-miterlimit: 10;
      }

      .cls-2, .cls-3, .cls-4, .cls-5, .cls-6, .cls-7, .cls-8, .cls-9, .cls-12 {
        fill: none;
      }

      .cls-2, .cls-6, .cls-7, .cls-8, .cls-12 {
        stroke: #33215e;
      }

      .cls-13 {
        fill: #aaa;
      }

      .cls-13, .cls-14, .cls-15, .cls-16, .cls-17, .cls-18, .cls-19, .cls-20, .cls-21 {
        stroke-width: 0px;
      }

      .cls-14 {
        fill: #e26f42;
      }

      .cls-22 {
        fill: #f96f23;
        font-family: MyriadPro-Regular, 'Myriad Pro';
        font-size: 2.66px;
      }

      .cls-15 {
        fill: #9e9d9d;
      }

      .cls-16 {
        fill: #e86321;
      }

      .cls-23 {
        fill: #000;
        font-family: BrushScriptMT, 'Brush Script MT';
        font-size: 1.77px;
      }

      .cls-3 {
        stroke-width: .5px;
      }

      .cls-3, .cls-4, .cls-5, .cls-9 {
        stroke: #ffb9a4;
      }

      .cls-4, .cls-10, .cls-11 {
        stroke-width: .25px;
      }

      .cls-24 {
        font-family: Skia-Bold, Skia;
        font-size: 3.43px;
        font-variation-settings: 'wght' 1, 'wdth' 1;
        font-weight: 700;
      }

      .cls-24, .cls-25, .cls-21 {
        fill: #fff;
      }

      .cls-25 {
        font-family: AcuminConcept-Italic, 'Acumin Variable Concept';
        font-size: 2.51px;
        font-style: italic;
        font-variation-settings: 'wght' 400, 'wdth' 100, 'slnt' 12;
      }

      .cls-17 {
        fill: #1a1e56;
      }

      .cls-18 {
        fill: #a3d3d8;
      }

      .cls-26 {
        letter-spacing: 0em;
      }

      .cls-6 {
        stroke-width: .9px;
      }

      .cls-19 {
        fill: #75b2bc;
      }

      .cls-27 {
        letter-spacing: .02em;
      }

      .cls-7 {
        stroke-width: .15px;
      }

      .cls-28 {
        letter-spacing: -.02em;
      }

      .cls-8 {
        stroke-width: .6px;
      }

      .cls-20 {
        fill: #ffb9a4;
      }

      .cls-9, .cls-12 {
        stroke-width: .75px;
      }

      .cls-10 {
        fill: #b1c7c9;
      }

      .cls-10, .cls-11 {
        stroke: #000;
      }

      .cls-11 {
        fill: #fcfcfc;
      }

      .cls-29 {
        letter-spacing: 0em;
      }
    </style>
  </defs>
  <g id="Layer_1-2" data-name="Layer 1">
    <g id="fish-package">
      <path class="cls-10" d="M64.06,10.17c.16-1.05.92-6.46-2.52-9.08-.46-.36-1.06-.7-1.84-.96C43.69,2.54,27.67,4.96,11.65,7.37c-.65.11-3.21.63-5.43,2.93-2.87,2.97-2.78,6.44-2.76,6.89C2.41,38.85,1.36,60.51.31,82.16c-.55,2.39.15,4.61,1.86,5.77,2.03,1.39,4.57.64,4.97.52,15.59-2.35,31.18-4.7,46.76-7.05.68-.15,2.77-.7,4.61-2.6,2.75-2.84,2.56-6.25,2.53-6.64,1-20.66,2-41.33,3-61.99Z"/>
      <path class="cls-19" d="M61.21,12.31c.18-.81.68-3.6-.85-6.04-.91-1.44-2.14-2.16-2.87-2.49-15.05,2.22-30.11,4.43-45.16,6.65-1.3.15-3.44.59-4.73,2.18-1.01,1.25-1.08,2.68-1.11,3.22-.17,3.58-1.51,28.51-3.27,62.77-.09.33-.87,3.24.95,5.17,1.14,1.21,2.67,1.38,3.23,1.41,14.94-2.2,29.87-4.4,44.81-6.6.42-.13,3.2-1.03,4.89-3.8,1.24-2.04,1.15-3.87,1.1-4.45,1.01-19.34,2.01-38.68,3.02-58.02Z"/>
      <path class="cls-18" d="M56.65,14.38c.12-1.76,0-4.32-1.69-5.26-.87-.48-1.83-.37-2.19-.33-25.36,2.78-29.16,3.79-36.76,5.41-.6.13-1.63.44-2.67,1.25-2.38,1.86-2.66,4.68-2.69,5.02-.94,18.07-1.88,36.15-2.82,54.22-.05.65-.16,3.06,1.54,4.77.79.8,1.69,1.16,2.31,1.34,11.96-1.76,23.92-3.52,35.88-5.28.38-.06,2.65-.45,4.47-2.54,1.92-2.2,1.84-4.54,1.82-4.89.93-17.9,1.86-35.8,2.8-53.7Z"/>
      <polygon class="cls-11" points="1.83 47.9 .41 75.15 61.42 66.17 62.84 38.92 1.83 47.9"/>
      <polygon class="cls-17" points="1.22 59.7 .41 75.15 61.42 66.17 62.22 50.72 1.22 59.7"/>
      <text/>
      <text class="cls-22" transform="translate(1.44 74) rotate(-8.37) scale(1.08 .98) skewX(-10.34)"><tspan x="0" y="0">BONELESS STEAK</tspan></text>
      <path class="cls-15" d="M9.6,52.64c.39.43,1.02,1.25,1.37,2.54.38,1.41.24,2.69.13,3.37.05.51.05,1.28-.19,2.21-.45,1.72-1.47,2.89-1.91,3.35,1.38-.6,2.42-1.26,3.1-1.75,1.65-1.17,2.24-2.02,3.68-2.72,1.09-.53,2.05-.67,2.67-.72.24.14.38.4.34.68-.06.41-.54.84-1.1.81.71.86,1.42,1.73,2.12,2.59l2.96-1.89,4.48.79-1.26,2.45,3.97-2.36c2.99-.31,5.51-.85,7.38-1.33,3.17-.81,5.71-1.48,8.76-3.31,1.85-1.11,3.28-2.28,4.23-3.13-1.12.22-2.23.44-3.35.65,1.15-.87,2.3-1.74,3.45-2.61-2.66.29-4.58-.06-5.85-.43-2.94-.86-3.96-2.32-6.87-2.62-1.81-.19-3.42.17-4.47.5-1.4-1.06-2.8-2.12-4.2-3.18l-2.17,4.12,1.27.22c-.68.35-1.37.69-2.09,1.03-1.86.88-3.64,1.62-5.32,2.24-.85-.09-1.7-.18-2.55-.27v1.54s-2.73.16-2.73.16l-5.87-2.93Z"/>
      <text class="cls-24" transform="translate(18.87 58.96) rotate(-8.37) scale(.91 .98) skewX(-12.22)"><tspan x="0" y="0">Norwegian Salmon</tspan></text>
      <polygon class="cls-13" points="46.21 62.12 45.91 67.89 61.28 65.63 61.58 59.86 46.21 62.12"/>
      <polygon class="cls-21" points="46.47 62.4 46.21 67.5 54.62 66.26 54.88 61.16 46.47 62.4"/>
      <line class="cls-7" x1="46.55" y1="67.03" x2="46.77" y2="62.74"/>
      <line class="cls-7" x1="46.8" y1="66.99" x2="47.02" y2="62.71"/>
      <line class="cls-12" x1="47.31" y1="66.91" x2="47.54" y2="62.63"/>
      <line class="cls-7" x1="47.75" y1="66.85" x2="47.97" y2="62.57"/>
      <line class="cls-2" x1="47.92" y1="66.82" x2="48.15" y2="62.54"/>
      <line class="cls-8" x1="48.37" y1="66.76" x2="48.59" y2="62.47"/>
      <line class="cls-2" x1="48.84" y1="66.69" x2="49.06" y2="62.41"/>
      <line class="cls-2" x1="48.96" y1="66.67" x2="49.18" y2="62.39"/>
      <line class="cls-2" x1="49.09" y1="66.65" x2="49.32" y2="62.37"/>
      <line class="cls-2" x1="49.62" y1="66.57" x2="49.84" y2="62.29"/>
      <line class="cls-2" x1="49.77" y1="66.55" x2="50" y2="62.27"/>
      <line class="cls-2" x1="49.92" y1="66.53" x2="50.15" y2="62.25"/>
      <line class="cls-6" x1="50.44" y1="66.45" x2="50.66" y2="62.17"/>
      <line class="cls-7" x1="49.36" y1="66.61" x2="49.58" y2="62.33"/>
      <line class="cls-7" x1="51.85" y1="66.25" x2="52.07" y2="61.96"/>
      <line class="cls-2" x1="54.17" y1="65.91" x2="54.39" y2="61.62"/>
      <line class="cls-2" x1="52.19" y1="66.2" x2="52.41" y2="61.91"/>
      <line class="cls-6" x1="52.68" y1="66.12" x2="52.91" y2="61.84"/>
      <line class="cls-7" x1="53.25" y1="66.04" x2="53.48" y2="61.76"/>
      <line class="cls-7" x1="53.71" y1="65.97" x2="53.93" y2="61.69"/>
      <line class="cls-7" x1="51.03" y1="66.37" x2="51.25" y2="62.08"/>
      <line class="cls-7" x1="51.44" y1="66.31" x2="51.66" y2="62.02"/>
      <text class="cls-23" transform="translate(55.47 62.71) rotate(-8.37) scale(1.22 .98) skewX(-9.16)"><tspan x="0" y="0" xml:space="preserve"> Ready </tspan><tspan class="cls-28" x="0" y="2.12">T</tspan><tspan x=".97" y="2.12">o Cook</tspan></text>
      <polygon class="cls-16" points="5.22 47.4 5.03 51.13 20.13 48.9 20.33 45.18 5.22 47.4"/>
      <text class="cls-25" transform="translate(6.59 49.85) rotate(-8.37) scale(1.16 .98) skewX(-9.6)"><tspan class="cls-29" x="0" y="0">W</tspan><tspan class="cls-1" x="2.24" y="0">i</tspan><tspan x="2.83" y="0">l</tspan><tspan class="cls-27" x="3.41" y="0">d</tspan><tspan x="4.89" y="0"> </tspan><tspan class="cls-26" x="5.52" y="0">F</tspan><tspan class="cls-29" x="6.89" y="0">i</tspan><tspan x="7.49" y="0">sh</tspan></text>
      <path class="cls-14" d="M14.79,46.16c-.84-11.4,3.34-22.48,11.25-28.36,1.76-1.31,4.45-2.92,8.18-3.84,2.15-.34,6.14-.66,9.81,1.3,4.69,2.5,6.07,7.23,7.28,11.38.81,2.78,1.77,7.55.95,14-12.49,1.84-24.98,3.68-37.47,5.51Z"/>
      <path class="cls-9" d="M33.93,26.79c-4.92.34-6.88-1.53-11.15.18-2.27.91-3.18,2.03-3.54,2.55-.81,1.18-1.39,3.04-.66,3.93,1.54,1.89,7.19-2.71,15.63-3.28,7.22-.49,11.67,2.3,14.48-.25.14-.13,1.09-1.01,1.29-2.15.34-1.86-1.46-3.39-2.98-3.97-3.7-1.43-6.33,2.52-13.07,2.98Z"/>
      <path class="cls-3" d="M34.7,21.5c-2.59.19-3.62-.74-5.87.13-1.2.46-1.67,1.03-1.86,1.29-.43.59-.73,1.53-.34,1.97.81.94,3.78-1.38,8.22-1.7,3.8-.27,6.14,1.1,7.62-.18.08-.07.57-.51.68-1.08.18-.93-.77-1.69-1.57-1.97-1.95-.7-3.33,1.28-6.88,1.54Z"/>
      <path class="cls-20" d="M30.82,43.8l1.25-2.06c-.2-.3-.42-.77-.35-1.37.11-.84.71-1.43,1.16-2.07.6-.86.7-1.67.89-3.24.33-2.81-.25-3.74-.2-6.25.07-3.11.98-2.89.93-5.75-.04-2.01-.52-3.69-1.06-5.6-.38-1.35-.78-2.44-1.08-3.21l5.99-.88c-2.36,4.37-2.94,7.7-3.02,9.94-.07,1.96.23,3.03.21,5.95-.02,3.12-.39,5.73-.7,7.43.44.51.98,1.29,1.23,2.36.16.7.16,1.33.11,1.85.21.67.42,1.34.63,2.01l-5.99.88Z"/>
      <path class="cls-3" d="M32.36,14.25c-3.61,1.09-6.06,3.31-7.43,4.55-6.87,6.23-9.18,15.63-9.68,17.84-.16,3.12-.32,6.24-.48,9.36l37.48-5.35c.6-11.83-2.44-20.66-6.74-23.92-3.39-2.57-7.19-2.99-7.19-2.99-1.01-.11-3.19-.33-5.97.51Z"/>
      <path class="cls-4" d="M26.91,17.49c.87.57,3.3,1.96,7,1.63,4.37-.4,7.56-2.95,8.45-3.7"/>
      <line class="cls-4" x1="21.95" y1="22.03" x2="26.5" y2="23.29"/>
      <polyline class="cls-4" points="46.83 17.93 44.64 19.48 42.8 20.79"/>
      <path class="cls-4" d="M15.38,39c1.06-1.5,2.19-2.33,2.84-2.74,3-1.89,5.98-1.35,6.77-1.17,1.52.35,1.55.86,2.92,1.1,2.01.35,4.01-.38,5.44-1.08"/>
      <path class="cls-4" d="M34.1,36.67c1.06-1.5,2.19-2.33,2.84-2.74,3-1.89,5.98-1.35,6.77-1.17,1.52.35,1.55.86,2.92,1.1,2.01.35,4.01-.38,5.44-1.08"/>
      <path class="cls-4" d="M24.94,18.8c-.12,1.47.2,1.95.55,2.09.68.27,1.52-.74,2.74-.8,1-.05,1.73.57,2.23,1.18"/>
      <path class="cls-4" d="M44.38,15.94c.33,1.03.23,1.47.03,1.66-.46.41-1.4-.43-2.24.05-.54.31-.81,1.04-.95,1.72"/>
      <path class="cls-4" d="M21.25,33.05c.19-.48.75-1.7,2.03-2.67,1.36-1.04,2.72-1.17,3.22-1.21,1.66-.14,1.98.58,3.36.47.78-.07,1.97-.41,3.53-1.76"/>
      <path class="cls-4" d="M35.53,27.9c1.07.66,2.64,1.3,4.51.86,1.56-.38,2.2-1.25,3.52-1.48,1.16-.2,2.78.11,4.69,2.48"/>
      <path class="cls-5" d="M33.18,37.37c-4.92.34-6.88-1.53-11.15.18-2.27.91-3.18,2.03-3.54,2.55-.81,1.18-1.39,3.04-.66,3.93,1.54,1.89,7.19-2.71,15.63-3.28,7.22-.49,11.67,2.3,14.48-.25.14-.13,1.09-1.01,1.29-2.15.34-1.86-1.46-3.39-2.98-3.97-3.7-1.43-6.33,2.52-13.07,2.98Z"/>
    </g>
  </g>
</svg>