<?xml version="1.0" encoding="UTF-8"?>
<svg id="Layer_2" data-name="Layer 2" xmlns="http://www.w3.org/2000/svg" viewBox="0 0 984.9 534.22">
  <defs>
    <style>
      .cls-1 {
        fill: none;
        stroke: #000;
        stroke-miterlimit: 10;
      }

      .cls-2 {
        fill: #10110e;
        stroke-width: 0px;
      }
    </style>
  </defs>
  <g id="Layer_1-2" data-name="Layer 1">
    <g id="path-line-and-triangles-A-B">
      <polygon class="cls-2" points="99.67 23.44 115.19 18.21 104.21 8.16 99.67 23.44"/>
      <polygon class="cls-2" points="346.46 350.17 348.76 333.96 334.85 339.26 346.46 350.17"/>
      <polygon class="cls-2" points="392.28 431.54 387.18 415.98 377.04 426.87 392.28 431.54"/>
      <polygon class="cls-2" points="300.8 267 294.11 252.05 285.16 263.94 300.8 267"/>
      <polygon class="cls-2" points="213.74 225.6 203.75 212.62 197.82 226.28 213.74 225.6"/>
      <polygon class="cls-2" points="29.54 225.66 20.32 212.13 13.61 225.41 29.54 225.66"/>
      <polygon class="cls-2" points="11.19 137.15 25.46 129.12 12.79 121.3 11.19 137.15"/>
      <polygon class="cls-2" points="61.93 85.5 78.3 85.12 70.8 72.27 61.93 85.5"/>
      <polygon class="cls-2" points="125.53 214.82 110.26 208.89 112.26 223.64 125.53 214.82"/>
      <polygon class="cls-2" points="940.61 311.4 942.7 327.64 954.7 318.84 940.61 311.4"/>
      <polygon class="cls-2" points="977.94 406.08 970.02 420.41 984.9 420.41 977.94 406.08"/>
      <polygon class="cls-2" points="930.83 497.14 914.47 497.84 922.22 510.55 930.83 497.14"/>
      <polygon class="cls-2" points="811.55 528.59 798 519.4 796.65 534.22 811.55 528.59"/>
      <polygon class="cls-2" points="688.88 502.69 678.75 489.82 672.97 503.54 688.88 502.69"/>
      <polygon class="cls-2" points="597.5 460.35 588.79 446.48 581.59 459.5 597.5 460.35"/>
      <polygon class="cls-2" points="497.63 429.94 483.29 422.02 483.29 436.9 497.63 429.94"/>
      <g id="path-linje">
        <path class="cls-1" d="M125.53.41c-6.66,4.62-13.89,10.52-21,18-21.2,22.33-13.57,44.31-34,62-7.72,6.68-8.51,3.67-21.5,13.5-5.92,4.48-19.28,14.75-30,31-7.9,11.97-23.46,35.56-17,63,1.37,5.82,7.12,26.19,25,37,27.04,16.34,49.44-8.78,107-11,41.4-1.6,73.96,9.66,95,17,32.02,11.16,54.44,18.98,75,39,16.53,16.1,14.93,23.6,56,109,17.93,37.29,27.57,55.26,47,61,15.19,4.49,30.07-.36,40-5,13.18-2.81,32.67-5.65,56-4,22.41,1.58,42.76,6.91,92,28,25.41,10.88,57.85,25.68,95,45,26.02,11.76,87.03,34.88,161,20,33.78-6.79,92.99-18.7,117-66,24.66-48.58,4.48-119.34-51-173"/>
      </g>
    </g>
  </g>
</svg>