<?xml version="1.0" encoding="UTF-8"?>
<svg id="Layer_2" data-name="Layer 2" xmlns="http://www.w3.org/2000/svg" viewBox="0 0 979.38 532.23">
  <defs>
    <style>
      .cls-1 {
        fill: none;
        stroke: #000;
        stroke-miterlimit: 10;
      }

      .cls-2 {
        fill: #10110e;
        stroke-width: 0px;
      }
    </style>
  </defs>
  <g id="Layer_1-2" data-name="Layer 1">
    <g id="path-line-and-triangles-B-A">
      <g id="path-linje">
        <path class="cls-1" d="M125.53.41c-6.66,4.62-13.89,10.52-21,18-21.2,22.33-13.57,44.31-34,62-7.72,6.68-8.51,3.67-21.5,13.5-5.92,4.48-19.28,14.75-30,31-7.9,11.97-23.46,35.56-17,63,1.37,5.82,7.12,26.19,25,37,27.04,16.34,49.44-8.78,107-11,41.4-1.6,73.96,9.66,95,17,32.02,11.16,54.44,18.98,75,39,16.53,16.1,14.93,23.6,56,109,17.93,37.29,27.57,55.26,47,61,15.19,4.49,30.07-.36,40-5,13.18-2.81,32.67-5.65,56-4,22.41,1.58,42.76,6.91,92,28,25.41,10.88,57.85,25.68,95,45,26.02,11.76,87.03,34.88,161,20,33.78-6.79,92.99-18.7,117-66,24.66-48.58,4.48-119.34-51-173"/>
      </g>
      <polygon class="cls-2" points="938.52 308.04 936.06 291.84 924.26 300.92 938.52 308.04"/>
      <polygon class="cls-2" points="876.02 518.18 892.18 520.86 887.2 506.83 876.02 518.18"/>
      <polygon class="cls-2" points="104.41 17.53 90.84 26.72 104.11 33.47 104.41 17.53"/>
      <polygon class="cls-2" points="73.65 77.63 57.49 80.31 66.73 91.99 73.65 77.63"/>
      <polygon class="cls-2" points="14.89 130.85 .63 138.91 13.31 146.71 14.89 130.85"/>
      <polygon class="cls-2" points="26.01 224.15 37.41 235.91 41.75 221.67 26.01 224.15"/>
      <polygon class="cls-2" points="136.7 214.2 149.75 224.1 151.89 209.37 136.7 214.2"/>
      <polygon class="cls-2" points="234.92 232.4 246.75 243.73 250.56 229.35 234.92 232.4"/>
      <polygon class="cls-2" points="315.33 285.37 316.22 301.73 328.84 293.83 315.33 285.37"/>
      <polygon class="cls-2" points="352.29 363.4 353.29 379.74 365.85 371.76 352.29 363.4"/>
      <polygon class="cls-2" points="404.74 439.03 417.55 449.24 420.04 434.56 404.74 439.03"/>
      <polygon class="cls-2" points="510.77 431.94 523.44 442.32 526.12 427.67 510.77 431.94"/>
      <polygon class="cls-2" points="623.5 471.68 632.91 485.08 639.43 471.7 623.5 471.68"/>
      <polygon class="cls-2" points="743.74 522.04 756.56 532.23 759.03 517.56 743.74 522.04"/>
      <polygon class="cls-2" points="965.91 461.91 979.38 452.59 966.04 445.98 965.91 461.91"/>
      <polygon class="cls-2" points="973.33 375.86 979 360.5 964.29 362.74 973.33 375.86"/>
    </g>
  </g>
</svg>