<?xml version="1.0" encoding="UTF-8"?>
<svg id="Layer_2" data-name="Layer 2" xmlns="http://www.w3.org/2000/svg" viewBox="0 0 1209.2 916.07">
  <defs>
    <style>
      .cls-1 {
        stroke: #489627;
      }

      .cls-1, .cls-2, .cls-3, .cls-4, .cls-5, .cls-6, .cls-7, .cls-8, .cls-9, .cls-10, .cls-11 {
        fill-rule: evenodd;
      }

      .cls-1, .cls-2, .cls-5, .cls-11 {
        stroke-miterlimit: 10;
      }

      .cls-1, .cls-3 {
        fill: #489627;
      }

      .cls-2 {
        stroke: #a00023;
      }

      .cls-2, .cls-7 {
        fill: #a00023;
      }

      .cls-3, .cls-4, .cls-6, .cls-12, .cls-13, .cls-9, .cls-10, .cls-14 {
        stroke-width: 0px;
      }

      .cls-4 {
        fill: #024500;
      }

      .cls-5 {
        fill: #297300;
        stroke: #047300;
      }

      .cls-6 {
        fill: #00e78d;
      }

      .cls-7 {
        stroke: #516d33;
      }

      .cls-7, .cls-8 {
        stroke-linecap: round;
        stroke-linejoin: round;
        stroke-width: .25px;
      }

      .cls-8 {
        stroke: #257cad;
      }

      .cls-8, .cls-9 {
        fill: #00a237;
      }

      .cls-12 {
        fill: #238c4d;
      }

      .cls-13 {
        fill: #0aa200;
      }

      .cls-10 {
        fill: #41bc13;
      }

      .cls-14 {
        fill: #14840b;
      }

      .cls-11 {
        fill: #12a200;
        stroke: #12a200;
      }
    </style>
  </defs>
  <g id="Layer_2-2" data-name="Layer 2">
    <g id="world-map">
      <g>
        <g id="europe">
          <path id="danmark" class="cls-5" d="M201.41,191.02l-3.77,7.65c-2.2.95-3.47,2.24-4.14,3.07-.76.94-1.79,2.2-1.34,3.24.33.76,1.41,1.29,2,1,.39-.19.38-.62,1-3,.31-1.19.49-1.76,1-2,.47-.22.96-.02,1,0,.72.31,1.05,1.31,1,2-.13,1.77-2.79,1.69-4,4-1.01,1.94-.27,4.18,0,5,.35,1.07.8,2.42,2,3,1.51.73,2.51-.6,4,0,1.85.74,1.32,3.21,3,4,2.28,1.08,6.29-2.02,6-3-.14-.46-1.11-.15-2-1-.9-.85-.96-2.14-1-3-.08-1.8.56-3.22,1-4l-.91-.46,1.19-.84-.34-3.67,2.6-2.76-4.21.15-4.08-9.38h0Z"/>
          <path id="europe-2" class="cls-12" d="M259.25,209.15l-21.1,1.21-8.14-4.58c-14.03,10.52-21.19,10.83-25.15,9.03-1.11-.51-2.08-1.22-3.08-1.94-1.67-1.18-3.45-2.34-6.18-2.44-4.37-.17-5.94,2.55-9.83,2.82-6.69.45-10.54-8.59-12.78-7.52-2.03.97,1.16,7.77-1.97,10.33-2.09,1.71-5.58.39-7.87,0-5.09-.87-13.08,1.4-25.56,15.97l1.53,3.15c-.57,1.22-1.65,2.99-3.62,3.8-3.13,1.28-5.46-1.13-8.72-.37-3.39.79-4.25,4.19-6.88,7.52-2.36,2.98-6.59,6.44-14.75,8.46l-9.05-3.41,2.73,9.13-22.97.68,19.58,12.08,7.11,19.18-8.08,14.05h-39.82c-1.46-1.22-3.59-2.61-5.48-2.06-1.35.4-1.86,1.58-3,2.96-1.18,1.42-3.22,3.26-6.88,4.7l3.82,4.06c.4,9.85-1.28,15.21-3.01,18.31-1.39,2.5-2.47,5.15-3.76,7.7-1.64,3.25-2.6,5.02-1.97,5.64.62.6,2.46-.18,3.93-.94l-1.42,17.34,11.17-1.29c6.78.29,8.47,1.45,8.73,2.46.25.94-.8,1.46-.78,3.09.03,2.51,2.54,5.02,3.93,4.7.42-.1.53-.41.98-.94,1.85-2.17,4.08-1.69,6.88-3.76.5-.37,1.22-.97,1.97-1.88l17.66.05,5.98-7.85c2.04.27,3.2-.19,3.88-.66,2.55-1.73,1.15-5.37,3.93-7.52,1.66-1.28,3.3-.88,3.56-1.92.31-1.23-1.93-2.05-2.58-4.66-.28-1.13-.13-2.04,0-2.82.36-2.12,2.27-7.03,8.85-11.27,7.03-4.54,10.8-2.78,14.75-7.52,1-1.2,2.49-2.99,2.95-5.64.6-3.51-1.16-5.42,0-7.52.57-1.03,1.96-2.33,5.9-2.82l14.38,4.04c5.55-1.79,9.51-4.08,12.16-5.92,4.66-3.23,6-5.54,9.47-5.75,3.62-.21,7.22,2.02,9.21,4.81,2.27,3.17,2.07,6.5,1.97,7.52l19.01,15.5,5.62-.32,8.24,8.85,8.02,4.94c2.39,4.17,2.14,6.39,1.4,7.66-.79,1.35-2.27,1.84-2.95,3.76-.5,1.4-.28,2.74-.03,3.64,1.54-1.01,3.07-2.03,4.61-3.04l1.45-4.18c1.84-.31,3.71-.89,4.02-2.04.59-2.19-5.06-4.16-5.13-7.53-.03-1.38.87-3.29,4.92-5.64l8.51,5.54.97-2.5-33.3-22.46c-8.57-7.1-10.18-11.64-10.6-13.45-.2-.85-.31-1.91-.91-4.6-1.06-4.73-1.6-5.45-1.06-6.67.92-2.07,4.15-3.79,6.88-2.82,1.87.67,2.72,2.33,2.95,2.82l1.82,6.3,3.54-4.97,7.93,10.09c.25,1.43.85,3.29,2.45,4.55,1.67,1.33,3.34,1.15,5.9,1.88,2.1.6,3.72,1.66,6.88,3.76,5.6,3.72,10.53,8.05,13.28,10.58l1.97,2.35-.57,11.26,5.71,5.67,8.25,12,10.08,16.98,4.48.49c-2.19-10.67-3.6-22.01-3.87-33.97-.02-.98-.04-1.96-.04-2.94,2.96,1.61,5.93,3.21,8.89,4.82-.63-2.13-1.25-4.26-1.88-6.38,1.69-.85,4.37-1.89,7.78-2.07,1.95-.1,5.95-.31,9.42,1.93,2.8,1.81,2.57,3.48,4.34,3.71,2.78.36,4.08-3.65,8.85-5.64,2.57-1.07,5.07-1.1,6.88-.94l-10.69-10.98,6.71-10.59,6.05-19.65,15.07-10.53,12.57,8.2c-5.11,2.32-5.98,3.5-5.82,4.15.29,1.21,4.05.5,5.6,2.76,1.34,1.97-.43,4.07.98,5.64,1.29,1.43,4,1.06,4.92.94,3.81-.51,4.39-2.85,8.85-4.7,3.81-1.58,6.89-1.34,6.88-1.88-.01-.84-7.31.11-10.82-3.76-1.83-2.02-2.04-4.72-1.97-6.58l33.28-14.49-1.3-9.54c-5.94-.15-16.27-1.22-27.07-6.97-5.15-2.74-9.13-5.87-12.06-8.59l-3.93-7.29-16.38-4.24c-.92-1.04-2.23-2.8-3.02-5.25-.45-1.41-.62-2.67-.67-3.68,7.16-.51,8.71-1.27,8.76-1.87.07-.77-2.31-1.07-5.14-3.84-.84-.82-1.06-1.21-1.97-1.88-1.64-1.2-2.47-1.07-3.93-1.88-.24-.14-3.19-1.83-3.93-4.7-.49-1.89.49-2.34,0-4.7-.23-1.1-.59-2.87-1.97-3.76-1.79-1.16-3.17.52-6.88,0-1.93-.27-2.01-.79-5.9-1.88-1.64-.46-3.01-.76-3.93-.94l-2.64-9.12c-1.14-6.02.12-9.47,1.65-11.55,1.15-1.55,3.21-3.37,2.66-4.24-.18-.28-.58-.39-2.66-.46-1.96-.06-2.94-.09-3.93,0-4.43.41-7.86-1.51-13.76-.94-2.12.21-7.42.72-8.85,3.76-.66,1.41.12,2.05,0,4.7-.15,3.17-1.53,7.86-3.93,8.46-3.1.76-5.18-5.96-8.85-5.64-4.23.38-8.21,9.91-5.9,16.91.49,1.48,1.11,3.38,2.95,4.7,2.86,2.05,5.99.78,7.87,2.82.69.75,1.35,2.1.98,4.7l-5.17-.34h0Z"/>
        </g>
        <path id="middle-east" class="cls-13" d="M372.56,307.25c-.89.85-3.97,4.42-9.31,5.92-4.56,1.27-10.57,1.73-27.09-3.18-15.59-4.63-16.33-6.85-22-6-7.62,1.14-8.32,5.44-18,7-7.68,1.24-14.7-.27-14.93.91-.18.93,4.13,1.79,4.11,3.18-.05,3.37-25.64,3.14-26.96,9.75-.65,3.28,5.45,4.27,8.2,12.1,2.37,6.75.16,12.61,3.12,14.02,1.68.8,2.7-.92,6.31-.25.72.13,3.52.7,5.75,2.94,1.54,1.56,1.09,2.19,2.41,3.34,2.16,1.89,6.16,2.61,8,1,1.21-1.06.81-2.53,3-5,.51-.57.76-.86,1-1,3.09-1.81,7.88,7.75,15,8,6.18.22,11.84-6.67,17-6,.5.06,1.58.27,3,0,2.75-.53,3.68-2.28,4.52-1.94,1.28.52.28,5.06.01,9.53-.36,5.99.75,8.87,1.07,12.55,1.11,12.7-8.86,15.7-10.17,31.51-.64,7.71.87,17.46,5.77,19.43,1.69.68,4.24.61,4.3,1.32.08.87-3.69.9-5.5,3.59-1.37,2.04-1.24,5.06,0,7,1.47,2.3,4.36,2.85,5,3,8.74,2.08,18.38,30.45,28,49,1.33,2.57,13.38,25.79,27,42,2.25,2.68,7.92,9.18,10,19,.76,3.57.37,4.41,1,12,1.1,13.19,1.65,19.79,4,22,4.03,3.79,16.07-.76,40-10,21.84-8.44,27.1-12.14,30-18,1.38-2.8,2.33-6.28,6-9,5.35-3.96,10.02-1.5,16-3,6.85-1.72,8.26-6.83,22-28,11.28-17.39,14.73-20.73,13-25-1.68-4.15-5.78-3.14-20-13-6.14-4.26-8.52-6.62-10-10-2.49-5.66-.9-10.61-2.3-11-2.3-.65-4.69,13.32-14.41,18.55-7.54,4.06-16.39,1.17-19.77.07-15.18-4.95-21.35-18.99-31.71-42.55-2.48-5.64-4.57-11.35-1.87-15.2,2.06-2.94,6.42-4.09,9.91-3.56,3.64.56,6.1,2.93,8.84,6.2,7.52,8.94,7.43,12.92,12.09,18.97,6.97,9.03,19.35,15.92,25.42,12.68,2.84-1.52,3.35-4.74,7.8-6.15,1.04-.33,4.21-1.34,7,0,5,2.4,2.94,9.53,8,14,2.06,1.82,4.11,2.15,12,3,12.46,1.34,18.69,2.01,21,2,22.13-.1,32.29-7.85,38-2,1.76,1.8,2.01,3.78,6,8,1.57,1.66,2.5,2.38,7,6,10.67,8.58,12.1,9.89,15,10,3.79.14,6.45-1.9,7-1,.53.86-1.4,3.54-4,5-3.5,1.96-6.23.59-7,2-1.06,1.92,3.14,6.14,6,9,4.05,4.06,6.08,6.1,8,6,5.91-.3,7.94-14.25,12-14,2.72.17,4.4,6.61,5,9,4.79,19.07,6.95,35.05,8,41,1.38,7.77,2.49,7.52,12,31,17.6,43.46,17.93,54.58,24,55,9.01.62,22.6-22.91,22-45-.41-15.08-7.18-19.88-3-29,4.35-9.48,13.28-7.83,29-23,3.55-3.42,8.2-7.92,13-15,8.44-12.46,10.53-22.91,16-23,3.7-.06,6.01,4.64,7,4,2.47-1.6-13.71-29.39-9-33,.97-.74,2.25-.02,3-1,2.15-2.81-6.42-11.33-5-13,.97-1.13,5.69,1.9,12,5,14.27,7.01,23,7.66,23,11,0,3.14-7.7,3.51-9,9-.99,4.2,2.27,9.21,4,9,1.77-.22,1.71-5.92,3-6,1.79-.11,2.02,11,7,22,5.54,12.24,10.81,10.73,15,21,5.89,14.41-.58,26.96,4,29,4.77,2.12,12.33-11.24,20-9,3.7,1.08,5.48,5.23,7,9,9.06,22.55,13.59,33.83,13,45-.81,15.52-7.02,25.66-1,32,1.58,1.66,2.71,1.7,6,5,5.77,5.78,5.57,8.9,10,11,2.86,1.35,5.13,1.08,6,3,.91,2.01-.89,3.82,0,5,1.37,1.82,8.05.78,9-2,1.17-3.45-7.65-6.2-15-16-1.06-1.41-11.42-15.61-9-31,.98-6.25,3.37-8.23,4-17,.3-4.13.1-8.3,2-9,1.25-.46,3.09.7,4,2,1.31,1.86.25,3.34,1,5,1.45,3.21,7,1.21,12,4,5.22,2.92,3.03,7.26,9,13,5.49,5.28,9.33,3.52,12,8,3.69,6.2-1.03,14.01,1,15,1.61.78,4.28-4.27,11-10,7.79-6.65,11.31-5.92,17-12,3.34-3.57,6.03-7.98,7-11,6.35-19.76-41.61-39.44-39-68,.91-9.92,7.93-21.14,17-24,1.32-.42,7.16-2.26,12,1,3.6,2.42,6.16,7.32,5,11-.54,1.7-2.03,3.14-5,6-2.87,2.76-3.65,2.83-4,4-1.06,3.59,4.21,10.28,9,10,5.83-.35,10.56-11.02,8-16-1.07-2.07-3.31-2.99-5-7-.64-1.52-1.19-2.81-1-4,.7-4.45,11.56-6.15,16-7,30.67-5.85,48.93-26.61,49-32,.04-3.15,0-3.93,0-3.93-.19-3.64-.79-4.71,0-6.02.89-1.48,2.32-1.23,2.67-2.45.43-1.5-1.65-2.3-2.27-4.29-.8-2.58,1.94-6.59,7.45-14.5.92-1.32,2.32-3.3,1.89-5.5-.29-1.49-1.15-1.67-1.51-3.06-.83-3.24,3-5.39,2.38-7.34-1.01-3.18-12.36-1.1-13.16-3.65-.63-2.01,6.36-3.51,7.44-7.56,2.59-9.75-32.62-20.83-32.06-37.67.08-2.45,1.03-8.19,5.17-12.03,4.75-4.4,11.48-4.25,12.02-7.81.21-1.43-.7-2.64-1.41-3.58-2.88-3.8-9.17-4.97-13.58-3-4.29,1.92-4.22,5.66-6.92,5.73-3.65.1-3.97-6.73-10.1-9.33-4.32-1.83-6.76.46-10-2-2.79-2.12-4.3-6.35-3-8,1.76-2.24,7.42,1.84,11-1,1.73-1.37.96-2.77,3-7,1.63-3.38,3.52-7.31,7-8,3.89-.77,8.75,2.73,9,6,.25,3.16-3.84,5.75-3,7,.66.97,3.36-.29,3.99.67.85,1.29-3.07,5.02-2.74,5.39.56.62,10.04-11.74,20-10.84,6.7.6,13.29,7.17,12.75,11.78-.3,2.53-2.62,3.47-2.1,4.97.91,2.64,8.19.08,14.61,4.04,4.57,2.81,7.1,7.93,6.23,8.97-.76.9-4.1-1.34-4.73-.5-.8,1.06,4.91,4.3,7.32,11.27.51,1.49.42,1.81,2.56,9.49.8,2.87,1.39,4.87,2.25,4.9.97.03.92-2.43,2.85-4.14,2.71-2.41,6.06-.39,9-2,3.17-1.74,4.24-6.81,4-10-.97-12.79-24.77-17.72-29-32-.41-1.39-1.08-3.75-.22-6.3,1.75-5.19,7.55-4.55,9.51-8.88,2.8-6.17-5.97-14.23-3-17.72,1.5-1.76,4.35-.43,5.06-1.85,1.65-3.31-13.41-11.05-11.87-17.86.48-2.14,2.54-3.93,4.47-4.47,3.92-1.08,7.09,3.12,8.43,2.15,2.63-1.91-7.64-19.4-3.4-23.06.71-.62,1.59-.64,1.9-1.52.69-2.01-2.47-6.06-5.9-6.48-4.04-.5-5.2,4.46-11,6-4.82,1.28-9.27-.75-12-2-6.85-3.14-7.08-7-13-11-6.63-4.48-9.93-2.06-18-5-9.08-3.3-8.87-7.8-22-19-9.24-7.88-16.43-14.02-27-16-11.21-2.1-23.32,1-24,5-.4,2.32,3.38,3.16,7,9,2.48,4,6.29,12.44,3,17-2.66,3.69-8.86,3.34-15,3-10.22-.57-12.09-3.74-19-4-11.06-.42-11.92,7.5-23,9-14.65,1.98-17.69-11.25-36-11-9.97.13-13.99,4.13-22,1l-36.45-16.57-4.33,4.91,6.22,13.33-43.98-6.73-25.16,15.34-23.34-8.46-16.16-9.58-21.63,2.91-36.72-30.87-18.84,5.57c-1.49-1.76-3.92-4.08-7.48-5.36-3.57-1.29-5.13-.39-8.13-1.49-5.25-1.93-5.41-6.49-9-9-5.9-4.13-15.32,1.36-25,5-7.83,2.95-19.38,6.03-35,6l8.44,9.46-10.65,10.25,11.56,5.92-10.24,5.26-37.83-2.45-28.21-6.67c-5.42,14.38-9.27,17.26-11.82,17.09-3.26-.22-5.16-5.48-7.26-4.85-2,.6-2.38,6-2,10,.81,8.57,6.15,21.55,16,24,1.66.41,7.44-.39,19-2,6.5-.9,8.59-1.3,11,0,5.75,3.1,7.67,12.8,5,15-2.69,2.22-9.23-3.84-13-1-1.91,1.44-1.98,4.31-2,5-.18,7.26,9.2,10,15,21,1.75,3.31,2.59,6.26,3,8l15.86,8.64-13.76,3.02c15.2,13.45,19.88,29.12,14.86,35.66-4.94,6.45-20.12,5.16-29.97-1.32-9.39-6.19-12.25-16.01-13-19l8.47-11.57-13.93-13.9-7.61,4.93-20.39-13.91-8.56,1.28-27.29-8.96,12.71,18.41.03-.04Z"/>
        <path id="russia" class="cls-14" d="M1042.95,312.22c1.41,1.56,6.86,7.57,12.87,7.41,10.99-.29,20.31-21.19,22.18-37.95,1.84-16.53-3.63-28.48-12.97-48.86-9.51-20.78-16.13-23.72-19.95-24.43-4.65-.87-5.59,1.49-12.97,2.12-14.33,1.23-28.97-6.12-28.93-11.68.01-1.79,1.54-2.01,3.99-5.31,4.62-6.22,2.37-9.69,5.98-19.12.38-1,4.7-11.92,12.97-17,1.04-.64,1.81-.98,1.99-1.06,5.42-2.38,10.5-.74,13.96,0,4.47.96,4.21-.01,15.96,0,22.2.02,40.92,5.38,41.89,2.12.69-2.33-8.93-5-9.97-12.75-.56-4.12,1.33-9.6,4.99-11.68,8.93-5.09,23.29,12.91,28.93,8.5,4.19-3.28-1.29-15.12,1.99-17,3.15-1.8,13.67,5.99,14.96,15.93,1.55,11.95-11.68,15.84-12.97,29.74-.94,10.13,5.69,18.43,18.95,35.05,13.29,16.66,28.59,30.35,31.92,27.62,2.66-2.18-2.98-14.26,1-17,1.53-1.05,3.45-.02,3.99-1.06,1.14-2.22-7.08-7.81-5.98-10.62.89-2.28,6.81-.03,7.98-2.12,1.97-3.54-11.91-15.36-27.93-36.12-1.87-2.43-10.11-13.2-7.98-15.93,1.77-2.27,9.81,2.14,11.97-1.06,1.02-1.52,0-3.66,1-4.25,1.25-.73,2.91,2.54,5.98,3.19,3.89.82,5.31-3.55,9.97-4.25,6.19-.93,9.31,5.92,12.97,4.25,3.1-1.41,1.4-6.57,4.99-12.75,4.25-7.31,9.99-5.84,11.97-10.62,4.15-10.02-16.45-27.63-13.96-30.81,1.71-2.19,11.94,5.59,13.96,3.19,1.72-2.04-2.94-10.91-8.98-17-10.51-10.6-22.66-10.2-44.88-12.75-35.25-4.04-57.85-11.12-58.85-7.44-.65,2.41,8.72,6.54,7.98,8.5-1,2.67-19.56-1.93-28.93-4.25-13.39-3.32-20.8-5.92-23.94-2.12-2.6,3.15.19,7.74-1.99,9.56-3.82,3.18-13.6-9.85-28.93-15.93-13.6-5.4-17.42.3-41.89-2.12-10.48-1.04-18.62-3.17-34.91-7.44-27.92-7.31-45.7-14.87-47.88-10.62-1.47,2.88,5.76,8.16,3.99,11.68-2.28,4.55-17.15,1.43-23.94,0-11.01-2.31-17.04-5.31-19.95-2.12-2.47,2.71-.03,6.97-1.99,8.5-3.44,2.68-12.83-9-28.93-18.06-2.73-1.53-25.47-14.1-32.91-6.37-1.91,1.99-1,3.42-2.99,5.31-4.61,4.36-12.7-.29-28.93-4.25-7.68-1.88-21.81-5.33-23.94-1.06-1.38,2.78,3.1,7.26,1.99,8.5-1.67,1.86-10.63-9.58-22.94-10.62-12-1.02-21.45,8.36-21.94,7.44-.39-.73,5.57-6.41,13.96-10.62,6.34-3.18,9.62-3.29,9.97-5.31.8-4.58-14.74-11.17-15.96-11.68-9.13-3.82-23.96-7.92-44.88-5.31l3.5-2.33-21.63,1.41,7,5.86-11.89-.62c5.38,2.88,6.4,4.26,6.21,4.99-.63,2.42-14.28-3.61-32.05.25-10.05,2.19-11.91,5.48-22.94,6.37-3.4.28-8.66.41-8.98,2.12-.27,1.47,3.38,2.59,6.98,7.44,1.97,2.64,3.53,5.88,2.99,6.37-.63.58-3.15-3.37-7.98-5.31-2.58-1.04-4.43-.95-13.96,0-11.61,1.15-12.85,1.41-12.97,2.12-.28,1.8,7.14,3.24,14.96,8.5,7.19,4.82,11.91,10.98,14.96,15.93l-38.98-14.96v4.65l-8.8.47,19.88,7,4.93,23.08-15.38-4.73-9.43,21.1-25.5-54.79-17.62-1.2-5.01,14.78,3.12,11.1,14.76,8.39c-.95,1.05-2.47,2.44-4.61,3.21-6.08,2.2-10.89-2.78-22.1-7.46-8.38-3.5-15.64-6.54-19.95-3.19-4.09,3.18-1.91,9.31-5.98,11.68-3.97,2.31-7.05-2.93-14.96-3.19-9.69-.32-15.76,7.2-18.95,4.25-1.85-1.71-.11-4.54-1.99-6.37-2.67-2.61-8.9.42-18.95,5.31-6.78,3.3-10.18,4.95-12.97,7.44-4.67,4.16-5.84,7.44-8.98,7.44-3.86,0-7.77-4.96-6.98-7.44.76-2.41,5.71-1.6,5.98-3.19.48-2.76-13.71-9.48-15.96-6.37-.63.87-.01,2.06,1.99,7.44,4.89,13.11,4.34,14.36,3.99,14.87-2.08,3.02-9.23-2.72-14.96,1.06-4.47,2.96-2.84,8.26-6.98,10.62-6.14,3.49-16.32-4.42-16.96-3.19-.41.78,4.13,3.12,3.99,6.37-.1,2.28-2.49,4.72-4.99,5.31-4.78,1.13-7.97-5-19.95-15.93-8.05-7.35-11.52-9.07-10.97-10.62,1.03-2.92,15.23-2.35,27.93,2.12,7.39,2.61,12.99,6.08,17.95,3.19.46-.27,3.35-2.01,3.99-5.31.71-3.67-1.61-7.97-5.98-10.62l-53.72-15.31-6.92-6.09.33-11.7,1.03,1.57.25-3.8-7.22-4.51-6.5-3.75-3.42,4.79-7.18-1.45-6.25,2.04-5.84-3.1-4.69-3.58-2.16,2.95-5.4.63.94,6.41-3.53,1.33-8.42-1.59-2.43,7.14-3.75-1.23-5.85,7.67c.55,1.18,1.19,3.06.81,5.14-.37,2-1.33,2.33-3.73,5.8-2.83,4.09-3.13,6.01-4.99,6.37-1.41.27-2.69-.54-2.99,0-.25.45.48,1.25,1,2.12,1.41,2.39,1.13,5.14,1,6.37-.54,5.15-5.65,6.57-4.99,9.56.41,1.82,2.41,1.73,2.99,4.25.36,1.54.07,3.55-1,4.25-.76.5-1.39,0-2.99,0-1.86,0-3.26.7-3.99,1.06-3.24,1.6-5.84,5.63-4.99,7.44.27.57,1.04,1.26,1.99,2.12.7.63.91.73,1,1.06.25,1.02-1.32,1.71-1.99,3.19-.83,1.8.48,3.01,1,6.37.74,4.83-1.37,6.11,0,8.5,1.19,2.07,3.17,1.78,3.99,4.25.18.54.53,1.89,0,3.19-.51,1.25-1.37,1.28-1.99,2.12-1.63,2.19,1.64,5.32,1,9.56-.5,3.31-2.82,3.47-3.99,7.44-.85,2.86-.47,5.57,0,7.44l3.25,3.71-1.44.72v2.51l-2.08-.28c1.37,1.04,3.2,2.8,3.84,5.44.55,2.27-.51,3.88.43,4.91.52.57,1.28.6,4.99,0,6.12-.98,6.75-1.49,6.98-2.12.57-1.54-1.54-2.8-1-4.25.56-1.5,3.25-1.33,8.98-2.12,3.62-.5,5.43-.75,5.98-1.06,5.19-2.9,5.65-12.86,5.98-20.18.13-2.73.07-4.96,0-6.37l1.95-.55-5.05-1.38,18.89-7.78c-3.93-.16-4.82-.45-4.83-.71-.03-.42,2.35-.52,4.99-2.32,1.59-1.08,2.86-1.95,2.99-3.19.31-2.92-5.92-6.3-9.97-8.5-3.01-1.64-3.96-1.79-4.99-3.19-2.02-2.75-1.64-6.67-1-9.56l2.37.04-.86-9.14,4.29-.93-.37-3.56,4.78-1.17,21.41-13.61,5.11,4.62,3.48,2.68.58,6.31c-.78.29-1.92.8-3.1,1.75-1.98,1.59-2.49,3.16-4.79,7.7-3.2,6.33-4.42,7.66-5.98,8.5-1.71.91-2.06.28-2.99,1.06-2.97,2.46.82,8.5,0,18.06-.56,6.55-2.84,9.49-1,11.68,1.66,1.97,4.33.58,6.98,3.19,2.33,2.3,1.34,4.45,2.99,5.31,2.99,1.56,6.55-5.35,14.96-6.37,1.76-.21,3.17-.1,3.99,0,7.6.96,13.64,6.86,12.97,8.5-.6,1.46-5.92-1.9-9.97,1.06-2.7,1.97-3.24,5.57-3.99,10.62-.82,5.53-2.01,13.51,1.99,17,1.34,1.17,3.56,1.49,7.98,2.12,5.94.85,7.02-.06,8.98,1.06,3.73,2.13,3.63,7.61,4.99,12.75,3.19,12.03,15.38,14.95,13.96,19.12-.86,2.55-5.19,2.07-5.98,5.31-.46,1.87.4,4.38,1.99,5.31,2.59,1.52,4.94-2.4,9.97-2.12,3.87.21,7.81,2.82,7.98,5.31.1,1.51-1.24,1.95-1,3.19.51,2.59,6.56,1.43,8.98,5.31,1.36,2.18.41,4.1,1.99,5.31,1.47,1.12,3.48.37,4.99,0,2.97-.73,7.97.93,17.95,4.25,8.23,2.73,9.6,3.77,9.97,5.31.57,2.31-1.56,3.81-1,7.44.49,3.19,2.4,3.7,1.99,5.31-.71,2.83-6.71,1.64-9.97,6.37-.18.25-1.59,2.33-1,3.19.98,1.42,6.8-1.5,6.98-1.06.18.45-6.38,2.41-6.98,6.37-.4,2.62,2.18,3.67,1.99,6.37-.3,4.36-7.22,4.88-7.98,8.5-1.41,6.75,19.79,18.73,21.94,15.93.86-1.11-1.87-3.81-1-5.31,1.57-2.7,12.97,1.49,27.93,8.5l29.36,14.83,6.09-4.2-13.15-22.36,4.54-11.53,9.87-5.96-5.04-4.88,2.73-.33-5.44-5.42-16.92-18.71.97-7.66,2.18-11.09,8.51,5.46.04-7.51,11.75-10.64h10.77l14.05,5.31,17.16,2.72,23.89,1.65,10.21-5.58-11.53-6.29,10.62-10.89-8.42-10.05c6.84.31,16.9-.09,28.43-3.72,9.39-2.96,16.76-7.12,21.94-10.62,7.12-.64,10.35,1.21,11.97,3.19,1.17,1.43,1.7,3.17,3.99,5.31,1.96,1.83,3.85,2.67,4.99,3.19,12.95,5.82,12.07,6.01,13.96,6.37,8.59,1.64,12.51-8.78,18.95-6.37.53.2.87.4,4.99,4.25,4.94,4.62,7.41,6.92,9.97,9.56,10.48,10.76,15.72,16.14,19.95,18.06,8.14,3.71,9.97-2.37,21.94,0,2.29.45,3.49.9,19.95,8.5,14.66,6.76,15.67,7.32,17.95,7.44,5.31.28,13.85-1.97,24.94-17l42.89,9.56-3.27-12.92,5.27-7.27c16.38,15.66,29.68,19.02,38.9,19.12,10.89.12,17.91-4.28,29.92,0,10.35,3.69,10.76,8.95,18.95,9.56,10.75.8,12.31-8.11,25.93-8.5,10.28-.29,18.95,2.12,18.95,2.12,4.05,1.13,7.25,2.51,10.97,1.06,2.49-.97,6.15-3.56,6.98-7.44,1.84-8.55-11.93-14.82-9.97-22.31,1.25-4.8,8.13-6.88,9.97-7.44,3.57-1.08,6.92-.89,10.97,0,13.19,2.89,23.17,11.06,23.94,11.68,16.83,13.65,15.55,23.93,27.93,27.62,5.57,1.66,7.84.18,13.96,3.19,5.46,2.68,6.62,5.31,14.96,10.62,5.44,3.46,8.16,5.19,10.97,5.31,8.26.34,10.96-8.64,15.96-7.44,5.67,1.37,6.63,14.02,7.98,31.87.22,2.97.5,7.85-1.99,9.56-2.72,1.86-6.46-1.59-7.98,0-1.84,1.93,1.27,9.55,5.85,14.6h.07Z"/>
        <path id="china" class="cls-7" d="M891.15,239.98c-1.48.37-2.24.97-2.56,1.68h0c-.83.54-1.02,1.06-1.06,1.37-.2,1.38,1.8,3.09,3.79,3.5,2.69.56,3.55-1.62,6.46-1.19,2.33.34,2.95,1.91,4.56,1.5,1.49-.38,1.52-1.87,2.82-2.77,2.26-1.55,5.97.31,10.98,2.9,2.95,1.53,8.87,4.9,10,9,.13.47.14.76,0,1-1.07,1.74-9.2-2.13-12,0-.32.24-.97.87-2,1-1,.12-1.47-.34-2,0-.71.45-.28,1.51-1,2-.5.34-.96,0-2,0-.16,0-2.18.02-3,1-1.04,1.24.78,2.93,0,5-.67,1.79-2.81,2.57-4,3-3.05,1.11-4.24-.17-6,1-2.06,1.37-1.04,3.54-3,5-2.1,1.57-5.42.68-8,0-4.17-1.11-5.38-2.77-7-2-1.66.79-2.14,3.37-2,5,.16,1.8,1.21,3.94,3,5,1.22.72,2.65.87,3,2,.07.24.1.55,0,1-.5,2.13-3.12,3.47-5,5-2.55,2.07-2.16,3.23-4,5-2.55,2.45-4.97,1.86-16,3-10.19,1.06-11.78,1.95-13,3-2.07,1.79-2.79,3.81-5,4-2,.17-2.68-1.38-6-2-1.86-.35-2.51-.02-5,0-3.1.03-5.37-.45-8-1-5.86-1.23-10.04-3.94-12-5-13.89-7.54-29.8,5.63-40.02-2.13-.69-.52-6.64-5.16-8.98-8.87-.14-.22-1.09-1.48-3-4-.87-1.15-1.32-1.73-2.07-2.07-1.4-.64-2.48.01-3.93.07-2.46.09-4.05-1.6-6-3-2.99-2.15-5.77-2.88-10-4-7.29-1.92-12-.32-17-3-1.23-.66-2.45-1.56-3-3-.56-1.46-.05-2.5,0-4,.07-2.27-.96-3.86-3-7-3.19-4.91-4.26-3.58-7-8-.96-1.54-2.25-3.99-4-4-.51,0-1.07.2-2,0-1.05-.23-1.72-.79-2-1-1.56-1.16-3.23-.58-6-1-4.43-.68-8.15-3.39-8-5,.03-.29.19-.62,0-1-.34-.69-1.3-.39-2-1-.96-.84-.14-2.25-1-3-.29-.26-.64-.3-3,0-3.5.45-3.82.7-4,1-.46.78.35,1.38,0,3-.11.49-.3,1.39-1,2-1.25,1.09-2.8.07-4,1-1.06.82-1.01,2.55-1,3,.08,2.73,2.38,3.45,3,7,.21,1.19.07,1.77,0,2-.49,1.66-2.29,2.99-4,3-1.2,0-1.22-.64-3-1-1.7-.34-1.93.2-4,0-1.52-.15-2.76-.57-4-1-2.26-.78-2.48-1.2-3-1-.95.37-.91,2.07-1,8-.08,5.54-.15,6.97,1,8,1.17,1.04,2.73.89,3,2,.19.76-.32,1.79-1,2-1.02.31-1.99-1.38-3-1-.58.22-.48.86-1,1-.88.25-1.56-1.48-3-2-1.2-.43-2.25.22-4,1-5.05,2.26-7.99,2.07-8,3-.01.75,1.87.91,4,2,6.77,3.46,9.81,13.04,7.69,15.24-.56.58-1.69.86-1.67,1.55.02.74,1.37,1.09,1.29,1.63-.1.6-1.83.39-2.13,1.15-.33.83,1.55,1.69,1.82,3.44.19,1.21-.49,2.24-1,3-2.51,3.72-6.04,2.49-9,6-1.68,1.99-1.36,3.34-3,4-1.41.56-2.17-.23-5,0-1.86.15-3,.24-4,1-2.2,1.67-.92,4.49-3,6-1.41,1.02-3.74.99-5,0-1.33-1.04-1.25-2.97-2-3-.71-.03-.84,1.7-2,2-1.26.32-2.45-1.38-3-1-.39.27.23,1.09,0,2-.58,2.32-5.87,2.38-6,4-.06.77,1.12,1.1,1,2-.13,1.03-1.72,1.01-2,2-.4,1.44,2.74,2.38,3,5,.14,1.35-.6,2.07,0,3,.42.65,1.26,1.03,2,1,.92-.03,1.14-.68,2-1,1.6-.6,3.93.45,5,2,.84,1.21.12,1.61,1,4,.22.59.81,1.73,2,4,.93,1.78,1.31,2.44,1,3-.18.33-.46.36-2,1-1.33.55-2,.83-2,1,0,.57,3.22.58,7,2,2.62.98,4.97,1.86,6,4,1.03,2.12-.23,3.46,1,5,.98,1.24,2.09.76,5,2,2.94,1.25,2.64,2.09,5,3,3.63,1.4,4.89-.38,7,1,2.59,1.7,1.02,4.61,4,7,1.72,1.38,2.93.97,5,3,.62.61,1.54,1.54,2,3,.53,1.69-.11,2.38,0,4,.18,2.75,2.16,3.06,4,7,.8,1.72,2.06,5.16,1,6-1.14.9-4.12-1.85-5-1-.77.74.78,3.6,1,4,1.44,2.64,3.01,3.16,3,5,0,.58-.16,1.06,0,2,.09.5.31,1.81,1,2,.7.19,1.09-.97,2-1,1.11-.04,1.33,1.65,3,3,1.85,1.49,2.87.47,5,2,1.71,1.22,1.34,2.08,3,3s2.22.16,4,1c2.4,1.13,2.61,3.09,4,3,1.14-.07,1.28-1.41,3-2,1.19-.41,2.27-.17,3,0,2.83.67,4.23,2.69,8,6,3.83,3.37,5.8,5.06,8,5,1.65-.04,2.99-.82,4,0,.94.77.23,1.83,1,3,1.59,2.43,6.38.55,8,3,.76,1.15.03,2.05,1,3,1.03,1.01,2.09.21,4,1,2.39.99,3.37,3.33,4,3,.46-.24.06-1.55.5-1.72.54-.21,1.33,1.67,2.34,1.58.74-.06,1.16-1.15,1.38-1.56,1.85-3.46,13.72-4.38,17.69.92,2.22,2.96,1.06,6.63,2.3,6.91,2.11.47,5.35-10.06,8.7-9.59.92.13.8.95,2.97,2.09,1.08.57,3.23,1.71,5.09.96.75-.3.8-.65,1.51-.75,1.16-.16,2.33.59,3,1.38.61.71.43,1.03.83,1.45,1.24,1.32,5.43.78,7.7-1.66,2.08-2.24.86-4.27,3-6,1.84-1.48,3.16-.32,5-2,1.55-1.42,1.13-2.72,3-4,.43-.3,1.55-1.05,3-1,.5.02.78.12,3,1,2.51.99,2.66,1.06,3,1,1.46-.28,1.33-2.12,3-3,1.86-.98,4.7-.13,5,1,.31,1.18-2.11,2.89-2,3,.07.07.87-.96,2-1,.7-.03,1.61.32,2,1,.92,1.61-1.76,4.01-1,5,.51.67,1.8-.34,4,0,2.79.43,3.99,2.55,5,2,.97-.53.22-2.66,1-3,.95-.42,3.41,2.15,5,5,1.51,2.71,1.77,4.85,3,5,.89.11,1.17-.96,2-1,3.06-.16,6.07,14.01,4,18-.29.57-.89,1.72-2,2-.96.24-1.57-.35-2,0-.82.67.79,3.37,0,4-.51.4-1.51-.45-2,0-.36.33,0,.98,0,2,0,1.55-.86,1.77-1,3-.24,2.08,2.05,2.72,2,5-.04,1.7-1.34,2.63-1,3,.38.41,1.98-.8,5-2,2.63-1.05,4.07-1.62,5-1,1.34.91-.16,3.16,1,6,1.45,3.53,4.98,2.96,6,6,1.11,3.34-2.42,6.21-1,8,1.25,1.58,4.54,0,6,2,.75,1.02.11,1.74,1,3,.86,1.22,2.48,2.01,4,2,2.67-.02,3.79-2.53,5-2,1.31.58.2,3.59,2,5,1.14.89,3.13.89,4,0,1.42-1.43-.04-5.2-1-7-1.15-2.16-2.3-2.81-2-4,.29-1.18,1.83-2.2,3-2,1.02.17,1.4,1.19,2,1,.48-.15.39-.85,1-2,.23-.44,1.08-2.03,2-2,.7.03.75.98,2,2,.76.62,2.22,1.48,3,1,.74-.45.39-1.8,1-2,.64-.21,1.34,1.2,2,1,.7-.21.57-1.95,1-2,.56-.07.96,2.9,2,3,.61.06.87-.93,2-2,1.41-1.33,2.3-.99,4-2,2.81-1.67,2.46-3.85,4-4,2-.2,2.67,3.49,6,4,.93.14.98-.13,3,0,2.25.15,3.42.22,4,1,.72.97-.23,1.99,0,4,.21,1.82,1.24,3.08,2,4,3.79,4.61,12.17,5.55,14,3,.52-.73.32-1.48.98-1.78,1.13-.52,3.53.92,4.81,2.76.39.55.58,1.02,1.16,1.27.89.39,2.2.09,2.66-.68.35-.58-.04-.98.22-1.33.79-1.03,5.74.42,7.7,3.59.54.88.69,1.61.73,1.85.08.43.23,1.66-.58,3.4-.8,1.73-1.86,2.49-4.69,4.93-2.4,2.07-3.6,3.11-3.8,3.54-1.45,3.07.66,8.87,4.8,10.46,4.79,1.84,10.15-2.77,12-7,1.14-2.59,1.71-6.76,0-9-.27-.36-.94-1.11-2.47-3.02-.82-1.03-1.22-1.55-1.53-1.98-1.21-1.64-1.82-2.46-2-3-.79-2.36.86-4.81,1-5,1.47-2.11,3.91-2.74,5-3,7.44-1.8,16.87-3.56,19-4,4.95-1.02,8.63-3.01,16-7,1.93-1.04,9.21-5.06,17-12,0,0,6.99-6.23,7-10v-6h0c0-3.64-.52-4.33,0-5,.49-.64,1.07-.15,2-1,.17-.15,1.01-.92,1-2,0-.88-.58-1.53-1-2-.92-1.04-1.74-1.11-2-2-.05-.18-.11-.49,0-1,.68-3.13,4-7,4-7,0,0,4.3-5.01,6-10,.24-.71.71-2.24,0-3-.57-.61-1.51-.32-2-1-.4-.55-.21-1.35,0-2,1.14-3.59,3.37-4.68,3-6-.48-1.7-4.78-1.99-5-2-2.01-.12-4,0-4,0-.42.02-.65.05-1,0-1.23-.16-2.87-1-3-2-.17-1.25,2.15-1.75,5-5,1.21-1.38,1.82-2.07,2-3,.66-3.34-4.62-7.02-6-8-5.21-3.72-28.16-21.35-26-31,1.41-6.3,14.87-15.36,16-16,.14-.08.7-.38,1-1,.37-.78.12-1.62,0-2-.62-1.96-3.68-6.48-9-7-.22-.02-.99-.09-2,0-3.46.31-5.96,2.13-7,3-2.68,2.24-2.65,4.01-4,4-1.4-.01-2.65-1.93-4-4-.72-1.11-1-1.8-2-3-.83-.99-1.27-1.53-2-2-1.71-1.11-3.71-1.07-7-1-1.19.03-1.36.09-2,0-2.3-.34-3.77-1.77-4-2-1.42-1.42-1.77-3-2-4-.31-1.4-.54-2.4,0-3,.53-.59,1.37-.32,5,0,2.8.25,3.38.18,4,0,.46-.14,2.03-.6,3-2,.86-1.24.2-1.71,1-4,.67-1.91,1.21-1.81,2-4,.14-.39.4-1.16,1-2,.35-.49.34-.34.95-1.11,0,0,.56-.71,1.05-.89h0s.99-.73,1.49-1.08c.77-.54,1.16-.8,1.51-.92.65-.21,1.19-.13,2,0,.36.06,1.26.23,3,1,1.12.5,1.67.74,2,1,.98.77,2,2.2,2,4,0,.3,0,1.86-1,3-.34.39-.53.42-1,1-.35.43-.85,1.07-1,2-.08.52-.12.78,0,1,.58,1.04,3.39-.04,4,1,.1.17.15.41,0,1-.62,2.41-2.98,4.03-3,4-.03-.04,3.57-3.15,6-5,4.59-3.5,7.7-5.87,12-6,4.07-.13,7.13,1.82,9,3,1.37.87,5.14,3.26,6,7,.24,1.06.47,2.03,0,3-.56,1.17-1.74,1.53-2,3-.06.32-.11.64,0,1,.5,1.59,3.69,1.88,5,2,3.34.31,3.63-.6,6,0,.63.16,2.4.63,4,2,.68.58.63.72,2,2,1.15,1.07,1.5,1.26,2,2,.53.79.31.84,1,2,.67,1.13,1.11,1.46,1,2-.09.44-.51.88-1,1-1.15.29-1.94-1.34-3-1-.3.1-1,.47-1,1h0c0,.83,3.61,4.37,5,6,.75.88,1.45,1.7,2,3,.66,1.57.53,2.5,1,5,.24,1.31.5,2.21,1,4,.99,3.53,1.98,7.04,3,7,.65-.03.48-1.46,2-3,1.5-1.52,3.42-1.89,4-2,1.49-.27,1.62.15,3,0,2.38-.26,4.77-1.84,6-4,.84-1.48.94-2.85,1-4,.27-4.86-2.11-8.7-3-10-1.39-2.04-3.6-3.69-8-7-3.87-2.91-3.64-2.38-7-5-4.89-3.82-5.98-5.4-8-7-.15-.12-.57-.45-1-1-.52-.67-.77-1.31-1-2-.46-1.38-.81-2.42-1-4-.17-1.4-.31-2.64,0-4,.8-3.51,4.16-5.77,6-7,2-1.34,2.38-1.09,3-2,1.12-1.65.75-3.77,0-8-.34-1.91-.51-2.87-1-4-.92-2.1-1.8-2.48-2-4-.25-1.89.98-2.27,1-4,.03-2.6-2.75-3.15-5-7-1.73-2.96-1.93-5.8-2-7-.15-2.55-.37-6.22,2-8,2.16-1.62,5.83-1.21,9,1-.07-2.45-.27-6.67-1-11-.46-2.75-.7-4.13-1-5-.54-1.54-1.1-2.46-1-4,.08-1.21.46-1.2.63-2.6.26-2.09-.38-3.76-.63-4.4-.3-.74-.81-1.99-2-3-.97-.82-1.78-.97-2-1-.27-.04-.61-.09-1,0-.97.24-1.32,1.17-2,2-.42.52-1.28,1.01-3,2-.99.57-2.33,1.28-4,2-.93-.01-2.31-.02-4,0-2.48.04-3.06.11-4,0-2.21-.26-3.8-1.24-5-2-3.49-2.22-5.24-3.34-10-7-6.67-5.13-13.57-7.27-16-8-6.49-1.95-7.84-.78-12-3-4.78-2.56-7.09-6.3-9-9-1.49-2.11-11.51-16-26-22,0,0-8.68-3.59-23-2-.77.09-3.02.39-5,2-.73.59-1.84,1.52-2,3-.16,1.49.73,2.67,1,3,.93,1.13,1.75.93,3,2,.73.62.9,1.06,2,3,2,3.52,2.04,3.1,3,5,.99,1.96,1.68,3.31,2,5,.15.77,1.08,5.66-2,9-2.52,2.73-6.91,3.52-11,2l-6,10v-.02Z"/>
        <path id="gb" class="cls-11" d="M54.72,162.53l11.04-1.02-6.62,8.5h13.75l-.7,3.66-7.09,7.3,1.47,1.63c-5.01,1.27-6.05,1.93-6,2.31.1.81,5.25-.61,9.6,2.07,3.32,2.04,2.35,4.1,7,10,3.35,4.24,6.7,6.8,6,8-.52.89-2.79.27-3,1-.19.67,1.74,1.09,3,3,1.45,2.2.62,4.27,2,5,.59.32,1.08.11,2,0,2.52-.31,6.19.34,7,2,.9,1.86-1.66,5.21-4,7-2.62,2-4.95,2.04-5,3-.03.62.9,1.6,6,3l-47.59,10.92,6.16-7.71,10.26-3.08,3.5-2.71c-1.99-.04-4.86-.13-8.32-.42-5.59-.47-6.6-.92-6.74-1.53-.3-1.25,3.25-2.18,5.74-6.47.43-.73,1.78-3.06,1-4-.88-1.05-3.87.34-4,0-.12-.32,2.38-2.17,6-3,4.34-1,7.61.07,8-1,.33-.91-1.97-1.83-2-4-.02-1.39.92-1.53,1-3,.12-2.13-1.8-2.71-2-5-.19-2.22,1.48-3.21,1-4-1.12-1.83-10.34,3.15-12,1-1.38-1.78,3.81-6.71,2-10-.68-1.24-2.08-1.76-3-2l-3.11,5.66,2.96-9.98-4.31.24,4.63-10.87,3.26-4.96"/>
        <path id="ireland" class="cls-4" d="M35.15,200.98c-.14.5-.42,1.26-1,2-.97,1.24-2.09,1.57-2,2,.13.64,2.67.16,3,1,.29.73-1.18,2.34-3,3-.84.3-1.53.32-5,0-2.88-.27-4.83-.51-5,0-.14.41,1,.89,1,2,0,.46-.2.82,0,1s.52-.1,1,0c.54.11,1.08.66,1,1-.16.7-2.93.46-3,1-.04.34,1.03.59,1,1-.04.54-1.96.61-2,1-.08.74,6.67,1.15,7,3,.34,1.9-6.24,4.45-6,5,.22.5,5.75-1.58,6-1,.09.22-.56.73-1,1-1.08.66-1.81.49-4,1-1.33.31-1.85.56-2,1s.19.75,0,1c-.36.47-1.69-.53-3,0-.6.25-1.09.78-1,1,.19.46,2.79-.46,3,0,.25.55-3.25,2.33-3,3,.28.74,4.88-.43,5,0,.1.36-3.09,1.21-3,2,.08.69,2.61.96,4,1,1.04.03,5.6.15,7-2,.15-.23.42-.72,1-1,.74-.35,1.32-.03,2,0,1.99.09,2.4-2.38,5-3,.83-.2.56.11,3,0,3.36-.15,3.84-.74,4-1,.38-.63-.17-.96,0-2,.31-1.85,2.27-2.08,3-4,.15-.39.24-.82,0-3-.16-1.47-.45-3.52-1-6l1.15-1.04-.44-.39c-.57.14-1.14.28-1.71.43-.12-.34-.21-.77,0-1,.31-.34.95.15,2,0,.88-.12,1.52-.63,2-1,.1-.08.65-.51,1-1,1-1.41.44-3.42,0-5-.63-2.28-.95-3.43-2-4-1.38-.75-3.34-.27-5,1l-1.21-.92h-1.34l-1.76,1.31-2.87.02-1.82.59h0Z"/>
        <g id="japan">
          <path id="japan-2" class="cls-6" d="M1081.79,390.29c1.08,6.74,5,12.63,6.37,16.97,2.72,8.67-2.08,19.62-7,20.72-3.39.76-6.72-3.19-8-2-1.24,1.16,2.02,4.77,1,9-.77,3.21-3.6,5.07-5,6-8.04,5.31-14.98-.43-22,4-5.33,3.37-7.47,10.57-6,12,1.95,1.9,11.65-5.09,24-7,1.67-.26,4.44-.59,6,1,1.68,1.71.33,3.97,2,7,1.18,2.13,3.76,4.46,6,4,2.64-.54,4.1-4.79,4-8-.13-3.95-2.64-6.43-2-7,.68-.61,3.34,2.41,7,4,5.94,2.57,14.72,1.44,18-3,2.62-3.55-.12-6.69-2-19-2.42-15.88.74-19.87-4-27-2.3-3.45-5.32-5.96-9-9-2.51-2.07-7.46-6.17-9-5-.64.49-.46,1.7-.37,2.31h0Z"/>
          <path id="japan-island" class="cls-10" d="M1068.35,348.03l24.75,13.95,7.32-1.9c.46,1.48,1.35,3.61,3.24,5.41,1.93,1.84,3.63,2.13,3.58,2.98-.11,1.73-7.26.98-9.58,5.02-1.32,2.3.22,3.89-1,5-2.31,2.11-8.26-3.21-18-3-.28,0-3.85.1-4,1-.21,1.27,6.71,2.23,7,5,.21,2.04-3.19,4.67-5,4-.82-.3-.89-1.12-2-4-1.41-3.65-1.76-3.53-3-7-1.84-5.16-1.21-5.83-1-6,.36-.29.77-.06,3,0,.86.02,1.56.01,2,0l-2.18-6.1-5.12-14.35h0Z"/>
          <path id="japan-island-2" class="cls-3" d="M1069.15,456.98c-.67-1.03-2.03-2.77-4-3-1.55-.18-2.28.7-6.5,3.5-4.11,2.72-5.46,3.23-5.5,4.5-.02.58.25.86,2.5,3.5,2.59,3.05,3.05,3.64,3.5,3.5.99-.31-.32-3.46,1.5-5.5,1.37-1.53,4.24-2.14,6-1,.48.31.8.7,1,1l1.5-6.5Z"/>
          <path id="japan-island-3" class="cls-1" d="M1046.15,460.98c1.34.46,1.92,1.76,3,4,2.77,5.74,2.73,5.01,3,6,1.26,4.54-.82,8.94-2,11l-.88,4.06-2.5-6.46-.86.23c-.13,3.32-.46,4.03-.73,4.06-.53.06-1.23-2.27-2.03-4.88-.58-1.92-.88-2.88-1-4-.31-2.82.49-3.31,0-5-.76-2.61-3.52-4.36-4-4-.19.14-.18.74,1,3-.05.07-1.13,1.53-2.4,1.31-.64-.12-1.03-.61-1.6-1.31-.69-.86-1.17-1.87-1-2s.75.72,2,1c.15.03.9.2,1,0,.24-.49-4.08-2.09-4-4,.04-.88.97-.96,3-3,2.01-2.02,2.11-2.97,3-3,1.45-.05,1.71,2.42,4,3,1.37.35,1.79-.41,3,0h0Z"/>
        </g>
        <path id="norway" class="cls-2" d="M199.01,106.01c-1.26-.07-8.33-.34-12.32,4.74-.87,1.11-2.7,3.43-2.24,5.93.38,2.1,2.05,2.49,2.24,4.74.16,1.91-.97,2.4-1.12,4.74-.12,1.8.49,2.46,1.12,4.74,1.5,5.43-.52,6.78,1.12,9.48,1.59,2.63,4.12,2.37,4.48,4.74.19,1.21-.26,2.67-1.12,3.56-.92.95-1.68.57-2.24,1.19-1.54,1.68,2.85,5.88,2.24,10.67-.59,4.64-5.22,4.6-5.6,9.48-.19,2.45.84,4.31,0,8.3-.06.29-.51,2.37-1.12,2.37-.68,0-.68-2.56-2.24-3.56-1.03-.66-2.35-.38-3.36,0l-2.12-7.34-1.4,1.87.14,3.58-1.66,3.9-2.86.82-1.56-1.59.44,1.92-10.36,11.32-5.32,3.25-4.92.69-3.39-.91.61-2.27c-.5.11-1.31.22-2.28.09-3.69-.52-6.03-4.23-6.76-7.04-.22-.85-.47-1.87,0-2.37.64-.68,2.37-.2,4.48,1.19.48-1.12,1.04-2.41,1.12-2.37.03.01.02.17-.06.28-.29.44-1.59.22-2.18-.28-.88-.74-.89-2.66,0-4.74l2.74-3.24c-1.68,1.25-3.35,2.5-5.03,3.74-.96,1.49-1.69,1.84-2.19,1.87h-1.12c-.28-.14-.89-.49-1.12-1.19-.11-.33-.1-.63,0-1.19.33-1.9,1.12-3.55,1.12-3.56.19-.28.55-.76,1.12-1.19,0,0,.95-.7,4.48-1.19.55-.4,1.22-.94,1.12-1.19-.14-.42-2.76.81-3.36,0-.66-.9,1.53-3.8,2.24-4.74,1.23-1.64,2.47-2.8,3.36-3.56l.55.34-.1,2,2.6-4.22-.35-.17-3.84,1.8-3.86,4.43-2.39,3.59-2.42,3.34-.74-.33.32-2.83.22-2.03-.19-.47.81-.55,2.31-.23.71-.41-.83-.36-2-.73-.93-.93-.17-1.28.97-2.11,1.26-1.7c.59-.8.7-.97.69-.97,0-.01-.61,1.24-1.58,1.45-.83.18-1.76-.45-2.24-1.19-.93-1.43-.12-3.28,0-3.56.46-1.04,1.18-1.57,2.24-2.37.69-.51,1.3-.96,2.24-1.19.98-.23,1.81-.1,2.24,0,1.12.26,1.88.86,2.24,1.19l2.24-1.19,2.02-.28.95.63.82,1.55.21-1.39,1.35-1.01,1.83-.63.74-.48-.45-.26-.94-.25-.46-.85.42-.93.04-.75-.46.54-.49,1.23-.09,1.37-.58.63-1.99.03-2.02-.61-.79-.29-.84.97-1.41.71-1.22.07h-5.82l-1.77-.59-1.14-.95.08-1.1.84-.85,1.08-.67.12-.53-1.72-1.84-1.07-1.48-.22-1.17.57-1.12,1.53.17,2.83.17,2.3.04,2.65-.02,1.7-.06-.19-.34-1.44.09-2.31-.19-2.25-.39-1.62-.43c-.52-.22-1.03-.43-1.55-.65l-.43-1.13c.91-.13,1.97-.42,2.24-1.19.15-.42-.07-.64,0-1.19.14-1.11,1.26-2.02,2.24-2.37,1.51-.54,3.36,0,3.36,0,0,0,1.18-.41,3.36-1.19l-2.64.6-.79-1.04c.21-.39.44-.72.68-.99,2.54-2.79,7.68-1.16,8.35-.94l1.01.63,1.09-.41.04-.35-.81-.19-.2-.52.59-.71,1.64-.81-1.27.38c-.53.18-1.27.38-2.18.42-.81.04-2.86.13-3.27-.8-.43-.96,1.02-2.68,2.24-3.56,1.77-1.27,3.67-1.22,4.48-1.19,2.82.12,4.81,1.68,5.6,2.37l-3.36-4.74,3.42-1.81-.06-.56-1.2-.48c-.62-.47-.69-.85-.69-1.03-.02-1.17,2.5-1.9,3-2.04.47-.14,1.9-.55,2.24,0,.08.13.06.25,0,1.19-.07,1.1-.04,1.16,0,1.19.38.27,1.64-2.41,3.36-2.37.7,0,1.65.48,2.24,1.19.43.51.57,1.02,1.12,1.19.23.07.32.02,1.12,0h1.12c1.74.02,1.81.18,2.24,0,.03,0,.86-.37,1.12-1.19.17-.52-.02-.87,0-1.19.03-.67.96-1.5,4.48-2.37l.28-1.2c-.13-.06-.49-.27-.67-.71-.25-.61-.03-1.39.39-1.65.46-.27,1,.18,1.12,0,.13-.21-.37-1.19-1.12-1.19-1.31.02-2.25,2.33-5.6,5.93-1.91,2.05-2.66,2.35-3.36,2.37-1.32.04-2.85-.91-3.36-2.37-.33-.95-.13-1.82,0-2.37.47-1.93,1.77-3.12,2.24-3.56,1.9-1.76,4.48-4.54,7.84-8.3l3.4-1.97-1.56.18-.63-.72.9-1.62,2.37-1.85,2.41-.83,3,.11,2.07-2.5-2.03.84-1.33.36-1.54-1.36-.16-1.99,1.58-2.9,3.57-4.64.05-.9-.77-.37.81-.94c1.43-.04,2.63-.15,3.54-.26,2.47-.31,3.09-.64,3.36-1.19.22-.44.22-1.04,0-1.19-.38-.24-1.05,1.08-2.24,1.19-1.08.09-1.95-.87-2.24-1.19-.71-.78-1.53-2.3-1.12-3.56.78-2.41,5.67-2.53,5.6-3.56-.03-.43-.9-.47-1.12-1.19-.27-.9.77-2,1.12-2.37,2.39-2.52,8.6-2.42,10.08-2.37l-.27-.57-1.83-.31-2.8.4-1.96-.23,1.02-2.56,3.1-1.11,3.39,1.35.74-1.12-1.14-.53-2.03-.61.64-1.92-2.53.69-1.38-1.18,2.12-2.62,2.85.49.52-.91-1.57.06.21-1.47,2.63-1.51,1.7.19.67,1.38,1.45,2.27.27-2.26-1.09-3.75,8.72-1.96h-6.35l-.68-.82,1.43-1.55,3.43-1.28,1.9-3.36,1.68-1.96c1.14,0,1.61-.31,1.82-.65.54-.85-.44-1.97.13-3.42.23-.6.74-1.26,1.12-1.19.54.1.25,1.54,1.12,2.37,1.04.99,3.22.6,3.36,0,.05-.21-.14-.57-1.12-1.19l-.37-1.58,2.45-2.61,2.83-1.43,1.13.42.26,1.37-.35,2.11.73-1.01,2.74-5.19.95.84.19,2.44-.29,2.2-1.12,2.27.92.18,2.63-2.88-.85-3.75,2.63-1.48,3.51-.42,3.9,1.28-.61-2.22-2.55-1.18-1.83-1.53,2.98-.15,4.77-1.84,3.09.28,2.58,3.97.5-.36.21-2.99,4.68-4.45,1.01-2.14.55-2.23,1.26-1.31,1.63.06,2.91,1.5,2.15-.79.7.2-.17,1.16-2.56,5.24-.74,3.38.99-.02,4.32-5.38,3.97-5.36.81.23.52,2.73.13,2.99.7.31,1.73-1.09,1.53-3.44,1.86-.98c-.12-.02-1.68-.3-1.86-1.17-.19-.91,1.25-1.89,2.17-2.27,1.3-.53,2.49-.22,3.36,0,1.08.28,2.1.54,2.24,1.19.26,1.16-2.55,2.39-2.24,3.56.15.55.79.4,1.12,1.19.24.57.15,1.26,0,2.37-.09.66-.18.98,0,1.19.22.25.71.14,1.12,0l2.73-6.69c.2-.28.53-.65,1.02-.77.85-.2,1.42.59,2.97,1.53,1.47.88,2.38,1.43,3.36,1.19,1.12-.28,1.41-1.36,2.24-1.19.52.11.98.65,1.12,1.19.16.61-.17.9,0,1.19.36.6,1.98-.46,3.36,0,1.36.45,2.57,2.39,2.24,3.56-.93,3.28-14.53,1.71-14.56,2.37,0,.22,1.45.13,3.36,1.19,1.28.71,1.66,1.32,3.36,2.37.91.57,1.71.95,2.24,1.19l1.01-.34.8-1.36c.5,1.24.91,1.48,1.18,1.48.47,0,.63-.7,1.48-.96.15-.05.61-.18,1.12,0,.69.25,1.01.93,1.12,1.19.27.59.57,1.79,0,2.37-.59.6-1.77.17-2.24,0-1.34-.48-1.67-1.34-2.24-1.19-.64.18-.58,1.35-1.12,2.37-.51.96-1.68,1.98-4.48,2.37l-1.92,3.8-1.21-1.53,1.54-2.92.47-1.73-.95-2.18-2.47-.55-3.29-1.65-3.74-1.96-2.36-.24-1.74,1.21-3.38.63-2.91,1.16-1.53,1.95-1.19,1.72-.35,4.41c.57,2.55.14,3.77-.43,4.41-.72.81-1.62.65-2.55,1.77-.93,1.12-.47,1.81-1.12,2.37-1.46,1.27-4.09-1.91-7.84-1.19-1.55.3-1.49.91-3.36,1.19-1.28.19-1.66-.05-4.48,0-1.67.03-1.72.12-2.24,0-1.45-.32-2.35-1.29-3.36-2.37-1.35-1.44-2.7-2.87-4.48-4.74l-2.56.44-.85,3.14h-3.05l-3.03.72,1.34,2.19-.33,1.78-1.57,2.59,1.64.57-4.02,1.48-8.96-1.78-1.89,3.36-1.21,4.59-4.09-1.23-3,2.8-3.85,5.91,1.03,4.18-.53,2.42-2.89,3.59-1.77,3.2-2.26,4.11-2.56,1.57-2.1.11.63,7.3-1.14,5.55-1.76,4.05-1.95,2.82-.37,1.04.96,1.75,2.16,2.04-.15,4.35.04.12Z"/>
        <g id="africa">
          <path class="cls-8" d="M245.77,457.12l-27.14-10.7-9.75-11.15c-2.59-.35-23.44-3.26-28.9-10.38-.76-.99-2.12-2.77-1.82-4.85.47-3.16,4.27-3.4,5.43-6.71.77-2.21-.57-3.12-2.71-9.78-2.16-6.72-1.95-9.39-3.61-9.78-2.08-.49-3.83,3.33-9.04,3.56-.42.02-.72,0-.9,0-8.11-.26-22.3,2.07-22.3,2.07-16.8,2.76-16.59-1.67-25.6,1.49-13.62,4.79-15.53,15.44-24.4,14.22-4.98-.68-7.9-4.52-14.46-3.56-2.13.31-4.16,1.06-6.33,0-3.16-1.55-3.11-5.26-4.52-5.33-2.44-.13-1.92,10.99-9.04,17.78-5.56,5.3-9.58,2.05-14.46,7.11-5.13,5.33-1.73,10.04-7.23,22.22-2.35,5.2-3.8,8.41-7.23,11.56-7.52,6.9-14.99,4.71-18.98,11.56-2.05,3.52-.72,5.19-3.61,8.89-2.69,3.44-5.18,3.7-7.23,7.11-1.69,2.82-1.77,5.6-1.81,8-.18,11.37,7.83,27.79,9.04,30.22l-8.91.57,11.99,53.8,8.34,17.86c-.82,6.31.12,8.04,1.09,8.49,1.94.89,4.97-2.89,8.28-1.61.94.36,1.57,1.01,2.71.89,1.21-.12,2.12-1.02,2.71-1.78,0-.75.28-1.46.8-1.72.77-.38,2.2.18,2.82,1.72l.94,5.4c4.99,5.39,5.78,9.48,5.54,12.26-.22,2.53-1.26,3.39-1.05,6.34.32,4.49,2.92,5.38,2.71,8.89-.15,2.57-1.58,2.54-3.61,7.11-1.53,3.44-2.99,6.73-1.81,9.78,1.42,3.63,5.85,4.97,7.23,5.33l-.34,12.9c3.2-2.09,8.86-5.22,16.61-6.68,7.39-1.39,13.55-.67,17.25.04l6.36,3.34c2.84-1.34,21.95-10.32,34.62-13.81,2.23-.61,5.67-1.45,9.54-.25,4.23,1.32,6.85,4.41,8.13,6.22.39,1.7,2.39,9.62,7.85,11.12,2.1.57,4.5-.07,9.32-1.34,3.49-.93,6.28-1.94,8.13-2.67l7.59,10.05,2.19,11.58c28.62-2.14,39.33.04,42.64,3.26.24.23,2.08,2.07,3.2,1.57,1.92-.85-1.19-7.26,2.22-12.24,1.49-2.17,3.58-3.13,4.52-3.56,5.01-2.29,9.87-.4,10.84,0-.25-1.16-.61-3.63.44-6.37,1.93-5.04,6.97-6.73,7.7-6.96,1.27.61,2.84,1.47,4.52,2.67,3.04,2.16,3.94,3.63,6.33,4.44,1.4.47,2.98.61,4.78.32l38.51-7.67h9.09c3.5,7.32,5.75,9.11,7.24,8.86,1.16-.19,1.04-1.48,2.73-2.4,2.63-1.44,5.15.45,10.84.89,1.96.15,3.56.08,4.52,0l11.39-15.84-9.03-35.98-.25-13.95,7.42-1.88c.19,2.69.59,5.71,1.33,8.99.66,2.92,4.28,12.5,5.23,14.34l-5.18,9.38c6.75,10.62,13.5,21.25,20.26,31.87,16.14,5.52,28.3,4.86,36.63,3.08,16.76-3.59,31.09-14.54,33.44-11.56.75.95.18,3.19-.9,4.44-1.5,1.73-4.1,1.71-5.42,1.78,0,0-4.47.22-13.55,5.33-7.16,4.03-9.23,13.25-10.84,20.44-2.85,12.72-.35,23.73,1.81,30.22l39.42-42.34,27.83-52.15c3.94-16.18,2.86-20.42,1.09-21.24-2.3-1.07-4.73,4.12-12.31,5.5-6.41,1.17-9.26-1.71-13.55.89-2.95,1.79-3.6,4.36-6.33,4.44-2.5.07-3.15-2.05-5.42-1.78-2.91.35-3.37,4.04-6.33,4.44-.69.1-1.78.05-4.52-1.78-2.12-1.41-5.2-3.87-8.13-8l-5.58-.32,6.01-5.26-10.5-13.78-16.4-14.56c-1.93-4.47-3.35-8.12-4.25-10.53-2.56-6.85-3.09-9.32-5.59-12.32-2.67-3.2-5.31-4.28-7.06-5.46-4.34-2.93-8.53-10.16-7.23-29.33-26.45-41.73-38.2-63.65-35.24-65.78.69-.5,2.2.09,4.52,1.78l9.44,15.36,3.62-16.94-4.4-12.45-14.29.76-11.7-2.55-9.6,4.98c-4.86-.41-16.71-1.7-28.05-6.16-6.56-2.58-9.84-3.87-12.8-6.12-2.31-1.76-3.95-3.51-7.23-4.44-3.91-1.12-7.24-.26-8.13,0-1.83.53-6.54,1.88-8.13,6.22-1.37,3.73.47,7.22.9,8l-2.89,10.01-.06.06Z"/>
          <polygon class="cls-9" points="41.73 634.41 72.77 666.61 87.8 662.07 109.76 664.63 132.08 652.98 150.7 653.25 158.51 667.56 175.68 666.28 182.93 680.48 180.11 700.3 177.02 709.89 195.43 739.92 204.56 767.33 207.01 791.71 194.92 830.95 210.86 883.94 215.85 916.07 249.46 911.65 264.3 899.67 277.89 900.82 294.84 878.56 308.97 876.25 315.97 897.97 334.15 894.65 333.92 858.99 368.22 825.96 371.79 785.25 361.55 750.4 395.68 690.99 428.54 641.97 436.24 611.89 395.02 620.3 384.11 605.08 364.47 580.47 357.9 561.06 348.29 570.48 316.26 593.38 262.28 602.48 211.86 611.68 178.9 601.6 122.73 584.68 41.73 634.41"/>
        </g>
      </g>
    </g>
  </g>
</svg>