<?xml version="1.0" encoding="UTF-8"?><svg id="Layer_2" xmlns="http://www.w3.org/2000/svg" viewBox="0 0 814.2 658.51"><defs><style>.cls-1{fill:#777677;}.cls-1,.cls-2,.cls-3,.cls-4,.cls-5,.cls-6,.cls-7,.cls-8,.cls-9,.cls-10,.cls-11,.cls-12,.cls-13,.cls-14,.cls-15,.cls-16,.cls-17,.cls-18,.cls-19,.cls-20,.cls-21,.cls-22,.cls-23,.cls-24,.cls-25,.cls-26{stroke-width:0px;}.cls-2{fill:#06ccd5;}.cls-3{fill:#f77b25;}.cls-4{fill:#5e5955;}.cls-5{fill:#8d8b8c;}.cls-6{fill:#b81f19;}.cls-7{fill:#1b5c78;}.cls-8{fill:#a5a5a5;}.cls-9{fill:#261825;}.cls-10{fill:#fdfdfd;}.cls-11{fill:#fccd57;}.cls-12{fill:#ffa526;}.cls-13{fill:#ffad49;}.cls-14{fill:#383838;}.cls-15{fill:#ff5151;}.cls-16{fill:#23b6ac;}.cls-17{fill:#bab9b9;}.cls-18{fill:#e53537;}.cls-19{fill:#123650;}.cls-20{fill:#fff;}.cls-21{fill:#ced7de;}.cls-22{fill:#1d7ba1;}.cls-23{fill:#dbdee5;}.cls-24{fill:#0b8882;}.cls-25{fill:#1b949c;}.cls-26{fill:#f66021;}</style></defs><g id="Layer_3"><path class="cls-19" d="M794.89,238.89L0,538.98c0,60.18,115.72,110.01,267.44,119.24,31.77,1.93,63.39-5.85,90.86-22.09l400.91-237.03,55-131.8-19.31-28.41Z"/><path class="cls-5" d="M150.29,346.98c-.08.05-.16.1-.24.15l.37.06-.13-.21Z"/><path class="cls-5" d="M163.79,409.61l-.44-.72,1.28.2c.08-.05.16-.1.24-.15l.13.21,24.58,3.78-40.36-65.27C36,418.08-26.01,522.91,10.65,582.21c1.59,2.57,3.35,5.01,5.25,7.32,8.74-57.31,64.38-127.97,147.89-179.92Z"/><path class="cls-5" d="M164.87,408.93c-.08.05-.16.1-.24.15l.37.06-.13-.21Z"/><path class="cls-5" d="M264.98,573.24l-101.18-163.63c-83.51,51.95-139.16,122.62-147.89,179.92,39.71,48.38,145.69,41.28,249.08-16.29Z"/><path class="cls-5" d="M189.58,412.92l-24.58-3.78,101.09,163.48c5.81-3.26,11.62-6.67,17.4-10.24l-.1-.17-1.65-.25-92.16-149.04Z"/><path class="cls-5" d="M163.35,408.89l.44.72c.28-.17.55-.35.83-.52l-1.28-.2Z"/><path class="cls-5" d="M164.63,409.09c-.28.17-.55.35-.83.52l101.18,163.63c.37-.21.74-.41,1.11-.62l-101.09-163.48-.37-.06Z"/><polygon class="cls-8" points="231.59 405.76 695.44 112.95 796.9 277.04 814.07 266.42 680.86 50.99 199.44 354.66 199.49 354.74 200.1 354.83 231.59 405.76"/><polygon class="cls-8" points="231.59 405.76 333.05 569.85 796.9 277.04 695.44 112.95 231.59 405.76"/><polygon class="cls-8" points="332.66 570.09 333 569.88 332.48 569.8 332.66 570.09"/><polygon class="cls-1" points="214.07 416.69 214.02 416.62 231.19 406 199.49 354.74 150.42 347.19 191.23 413.18 214.07 416.69"/><path class="cls-1" d="M148.77,346.93l.44.72c.28-.17.55-.35.83-.52l-1.28-.2Z"/><polygon class="cls-1" points="231.19 406 214.02 416.62 214.07 416.69 214.68 416.79 306.84 565.84 332.48 569.8 231.19 406"/><polygon class="cls-1" points="333.08 569.89 333.05 569.85 333 569.88 333.08 569.89"/><polygon class="cls-1" points="191.23 413.18 283.38 562.22 306.24 565.75 214.07 416.69 191.23 413.18"/><polygon class="cls-1" points="214.07 416.69 306.24 565.75 306.84 565.84 214.68 416.79 214.07 416.69"/><path class="cls-1" d="M191.23,413.18l-40.81-65.99-.37-.06c-.28.17-.55.35-.83.52l40.36,65.27,1.65.25Z"/><polygon class="cls-1" points="189.58 412.92 281.73 561.96 283.38 562.22 191.23 413.18 189.58 412.92"/><polygon class="cls-1" points="231.59 405.76 200.1 354.83 199.49 354.74 231.19 406 231.59 405.76"/><polygon class="cls-1" points="333 569.88 333.05 569.85 231.59 405.76 231.19 406 332.48 569.8 333 569.88"/><path class="cls-1" d="M255.85,553.34l11.93,19.29c5.81-3.26,11.62-6.67,17.4-10.24l-.1-.17-1.65-.25-11.26-18.21c-5.38,3.3-10.78,6.47-16.18,9.5"/><path class="cls-1" d="M153.24,389.51l.44.72,11.56,18.69,1.07.16c.08-.05.16-.1.24-.15l.13.21,89.16,144.19"/><path class="cls-1" d="M5.9,570.73c1.48,3.68,3.26,7.24,5.38,10.63,1.61,2.57,3.39,5.01,5.31,7.32,40.14,48.38,147.26,41.28,251.76-16.29l-12.06-19.3c-103.41,56.92-209.35,64.41-250.38,17.63Z"/><path class="cls-5" d="M260.76,550.49l-101.18-163.63c-83.51,51.95-139.16,122.62-147.89,179.92,39.71,48.38,145.69,41.28,249.08-16.29Z"/><polygon class="cls-13" points="514.76 160.01 443.23 204.23 443.24 204.24 443.34 204.26 448.63 212.8 465.64 240.33 534.22 197.92 537.1 196.14 514.76 160.01"/><polygon class="cls-3" points="443.1 223.09 443.1 204.23 465.98 240.1 465.98 258.96 443.1 223.09"/><polygon class="cls-26" points="465.98 240.1 465.98 258.96 536.48 215.05 536.48 196.19 465.98 240.1"/><polygon class="cls-13" points="415.76 221.01 344.23 265.23 344.24 265.24 344.34 265.26 349.63 273.8 366.64 301.33 435.22 258.92 438.1 257.14 415.76 221.01"/><polygon class="cls-16" points="344.1 284.09 344.1 265.23 366.98 301.1 366.98 319.96 344.1 284.09"/><polygon class="cls-24" points="366.98 301.1 366.98 319.96 437.48 276.05 437.48 257.19 366.98 301.1"/><polygon class="cls-13" points="318.76 281.01 247.23 325.23 247.24 325.24 247.34 325.26 252.63 333.8 269.64 361.33 338.22 318.92 341.1 317.14 318.76 281.01"/><polygon class="cls-23" points="247.1 344.09 247.1 325.23 269.98 361.1 269.98 379.96 247.1 344.09"/><polygon class="cls-21" points="269.98 361.1 269.98 379.96 340.48 336.05 340.48 317.19 269.98 361.1"/><polygon class="cls-13" points="356.76 347.01 285.23 391.23 285.24 391.24 285.34 391.26 290.63 399.8 307.64 427.33 376.22 384.92 379.1 383.14 356.76 347.01"/><polygon class="cls-3" points="285.1 410.09 285.1 391.23 307.98 427.1 307.98 445.96 285.1 410.09"/><polygon class="cls-26" points="307.98 427.1 307.98 445.96 378.48 402.05 378.48 383.19 307.98 427.1"/><polygon class="cls-20" points="129.76 386.01 58.23 430.23 58.24 430.24 58.34 430.26 63.63 438.8 80.64 466.33 149.22 423.92 152.1 422.14 129.76 386.01"/><polygon class="cls-17" points="58.1 441.99 58.1 430.23 80.98 466.1 80.98 475.96 58.1 441.99"/><polygon class="cls-8" points="80.98 466.1 80.98 475.96 151.48 432.99 151.48 422.19 80.98 466.1"/><polygon class="cls-20" points="199.76 494.01 128.23 538.23 128.24 538.24 128.34 538.26 133.63 546.8 150.64 574.33 219.22 531.92 222.1 530.14 199.76 494.01"/><polygon class="cls-17" points="128.1 549.99 128.1 538.23 150.98 574.1 150.98 583.96 128.1 549.99"/><polygon class="cls-8" points="150.98 574.1 150.98 583.96 221.48 540.99 221.48 530.19 150.98 574.1"/><polygon class="cls-13" points="396.76 413.01 325.23 457.23 325.24 457.24 325.34 457.26 330.63 465.8 347.64 493.33 416.22 450.92 419.1 449.14 396.76 413.01"/><polygon class="cls-16" points="325.1 476.09 325.1 457.23 347.98 493.1 347.98 511.96 325.1 476.09"/><polygon class="cls-24" points="347.98 493.1 347.98 511.96 418.48 468.05 418.48 449.19 347.98 493.1"/><polygon class="cls-13" points="396.76 393.01 325.23 437.23 325.24 437.24 325.34 437.26 330.63 445.8 347.64 473.33 416.22 430.92 419.1 429.14 396.76 393.01"/><polygon class="cls-11" points="325.1 456.09 325.1 437.23 347.98 473.1 347.98 491.96 325.1 456.09"/><polygon class="cls-12" points="347.98 473.1 347.98 491.96 418.48 448.05 418.48 429.19 347.98 473.1"/><polygon class="cls-13" points="396.76 373.01 325.23 417.23 325.24 417.24 325.34 417.26 330.63 425.8 347.64 453.33 416.22 410.92 419.1 409.14 396.76 373.01"/><polygon class="cls-3" points="325.1 436.09 325.1 417.23 347.98 453.1 347.98 471.96 325.1 436.09"/><polygon class="cls-26" points="347.98 453.1 347.98 471.96 418.48 428.05 418.48 409.19 347.98 453.1"/><polygon class="cls-13" points="356.76 327.01 285.23 371.23 285.24 371.24 285.34 371.26 290.63 379.8 307.64 407.33 376.22 364.92 379.1 363.14 356.76 327.01"/><polygon class="cls-22" points="285.1 390.09 285.1 371.23 307.98 407.1 307.98 425.96 285.1 390.09"/><polygon class="cls-7" points="307.98 407.1 307.98 425.96 378.48 382.05 378.48 363.19 307.98 407.1"/><polygon class="cls-13" points="318.76 261.01 247.23 305.23 247.24 305.24 247.34 305.26 252.63 313.8 269.64 341.33 338.22 298.92 341.1 297.14 318.76 261.01"/><polygon class="cls-11" points="247.1 324.09 247.1 305.23 269.98 341.1 269.98 359.96 247.1 324.09"/><polygon class="cls-12" points="269.98 341.1 269.98 359.96 340.48 316.05 340.48 297.19 269.98 341.1"/><polygon class="cls-13" points="495.76 351.01 424.23 395.23 424.24 395.24 424.34 395.26 429.63 403.8 446.64 431.33 515.22 388.92 518.1 387.14 495.76 351.01"/><polygon class="cls-18" points="424.1 414.09 424.1 395.23 446.98 431.1 446.98 449.96 424.1 414.09"/><polygon class="cls-6" points="446.98 431.1 446.98 449.96 517.48 406.05 517.48 387.19 446.98 431.1"/><polygon class="cls-13" points="592.76 293.01 521.23 337.23 521.24 337.24 521.34 337.26 526.63 345.8 543.64 373.33 612.22 330.92 615.1 329.14 592.76 293.01"/><polygon class="cls-22" points="521.1 356.09 521.1 337.23 543.98 373.1 543.98 391.96 521.1 356.09"/><polygon class="cls-7" points="543.98 373.1 543.98 391.96 614.48 348.05 614.48 329.19 543.98 373.1"/><polygon class="cls-13" points="453.76 289.01 382.23 333.23 382.24 333.24 382.34 333.26 387.63 341.8 404.64 369.33 473.22 326.92 476.1 325.14 453.76 289.01"/><polygon class="cls-2" points="382.1 352.09 382.1 333.23 404.98 369.1 404.98 387.96 382.1 352.09"/><polygon class="cls-25" points="404.98 369.1 404.98 387.96 475.48 344.05 475.48 325.19 404.98 369.1"/><polygon class="cls-13" points="550.76 231.01 479.23 275.23 479.24 275.24 479.34 275.26 484.63 283.8 501.64 311.33 570.22 268.92 573.1 267.14 550.76 231.01"/><polygon class="cls-3" points="479.1 294.09 479.1 275.23 501.98 311.1 501.98 329.96 479.1 294.09"/><polygon class="cls-26" points="501.98 311.1 501.98 329.96 572.48 286.05 572.48 267.19 501.98 311.1"/><polygon class="cls-13" points="495.76 331.01 424.23 375.23 424.24 375.24 424.34 375.26 429.63 383.8 446.64 411.33 515.22 368.92 518.1 367.14 495.76 331.01"/><polygon class="cls-3" points="424.1 394.09 424.1 375.23 446.98 411.1 446.98 429.96 424.1 394.09"/><polygon class="cls-26" points="446.98 411.1 446.98 429.96 517.48 386.05 517.48 367.19 446.98 411.1"/><polygon class="cls-13" points="453.76 269.01 382.23 313.23 382.24 313.24 382.34 313.26 387.63 321.8 404.64 349.33 473.22 306.92 476.1 305.14 453.76 269.01"/><polygon class="cls-11" points="382.1 332.09 382.1 313.23 404.98 349.1 404.98 367.96 382.1 332.09"/><polygon class="cls-12" points="404.98 349.1 404.98 367.96 475.48 324.05 475.48 305.19 404.98 349.1"/><polygon class="cls-13" points="415.76 201.01 344.23 245.23 344.24 245.24 344.34 245.26 349.63 253.8 366.64 281.33 435.22 238.92 438.1 237.14 415.76 201.01"/><polygon class="cls-22" points="344.1 264.09 344.1 245.23 366.98 281.1 366.98 299.96 344.1 264.09"/><polygon class="cls-7" points="366.98 281.1 366.98 299.96 437.48 256.05 437.48 237.19 366.98 281.1"/><polygon class="cls-13" points="592.76 274.01 521.23 318.23 521.24 318.24 521.34 318.26 526.63 326.8 543.64 354.33 612.22 311.92 615.1 310.14 592.76 274.01"/><polygon class="cls-2" points="521.1 337.09 521.1 318.23 543.98 354.1 543.98 372.96 521.1 337.09"/><polygon class="cls-25" points="543.98 354.1 543.98 372.96 614.48 329.05 614.48 310.19 543.98 354.1"/><polygon class="cls-13" points="550.76 211.01 479.23 255.23 479.24 255.24 479.34 255.26 484.63 263.8 501.64 291.33 570.22 248.92 573.1 247.14 550.76 211.01"/><polygon class="cls-2" points="479.1 274.09 479.1 255.23 501.98 291.1 501.98 309.96 479.1 274.09"/><polygon class="cls-25" points="501.98 291.1 501.98 309.96 572.48 266.05 572.48 247.19 501.98 291.1"/><polygon class="cls-13" points="514.76 140.01 443.23 184.23 443.24 184.24 443.34 184.26 448.63 192.8 465.64 220.33 534.22 177.92 537.1 176.14 514.76 140.01"/><polygon class="cls-11" points="443.1 203.09 443.1 184.23 465.98 220.1 465.98 238.96 443.1 203.09"/><polygon class="cls-12" points="465.98 220.1 465.98 238.96 536.48 195.05 536.48 176.19 465.98 220.1"/><polygon class="cls-2" points="356.76 308.01 285.23 352.23 285.24 352.24 285.34 352.26 290.63 360.8 307.64 388.33 376.22 345.92 379.1 344.14 356.76 308.01"/><polygon class="cls-16" points="285.1 371.09 285.1 352.23 307.98 388.1 307.98 406.96 285.1 371.09"/><polygon class="cls-24" points="307.98 388.1 307.98 406.96 378.48 363.05 378.48 344.19 307.98 388.1"/><polygon class="cls-15" points="318.76 241.01 247.23 285.23 247.24 285.24 247.34 285.26 252.63 293.8 269.64 321.33 338.22 278.92 341.1 277.14 318.76 241.01"/><polygon class="cls-18" points="247.1 304.09 247.1 285.23 269.98 321.1 269.98 339.96 247.1 304.09"/><polygon class="cls-6" points="269.98 321.1 269.98 339.96 340.48 296.05 340.48 277.19 269.98 321.1"/><polygon class="cls-10" points="495.76 311.01 424.23 355.23 424.24 355.24 424.34 355.26 429.63 363.8 446.64 391.33 515.22 348.92 518.1 347.14 495.76 311.01"/><polygon class="cls-23" points="424.1 374.09 424.1 355.23 446.98 391.1 446.98 409.96 424.1 374.09"/><polygon class="cls-21" points="446.98 391.1 446.98 409.96 517.48 366.05 517.48 347.19 446.98 391.1"/><polygon class="cls-13" points="592.76 254.01 521.23 298.23 521.24 298.24 521.34 298.26 526.63 306.8 543.64 334.33 612.22 291.92 615.1 290.14 592.76 254.01"/><polygon class="cls-3" points="521.1 317.09 521.1 298.23 543.98 334.1 543.98 352.96 521.1 317.09"/><polygon class="cls-26" points="543.98 334.1 543.98 352.96 614.48 309.05 614.48 290.19 543.98 334.1"/><polygon class="cls-10" points="550.76 191.01 479.23 235.23 479.24 235.24 479.34 235.26 484.63 243.8 501.64 271.33 570.22 228.92 573.1 227.14 550.76 191.01"/><polygon class="cls-23" points="479.1 254.09 479.1 235.23 501.98 271.1 501.98 289.96 479.1 254.09"/><polygon class="cls-21" points="501.98 271.1 501.98 289.96 572.48 246.05 572.48 227.19 501.98 271.1"/><polygon class="cls-15" points="514.76 120.01 443.23 164.23 443.24 164.24 443.34 164.26 448.63 172.8 465.64 200.33 534.22 157.92 537.1 156.14 514.76 120.01"/><polygon class="cls-18" points="443.1 183.09 443.1 164.23 465.98 200.1 465.98 218.96 443.1 183.09"/><polygon class="cls-6" points="465.98 200.1 465.98 218.96 536.48 175.05 536.48 156.19 465.98 200.1"/><polygon class="cls-13" points="453.76 249.01 382.23 293.23 382.24 293.24 382.34 293.26 387.63 301.8 404.64 329.33 473.22 286.92 476.1 285.14 453.76 249.01"/><polygon class="cls-3" points="382.1 312.09 382.1 293.23 404.98 329.1 404.98 347.96 382.1 312.09"/><polygon class="cls-26" points="404.98 329.1 404.98 347.96 475.48 304.05 475.48 285.19 404.98 329.1"/><polygon class="cls-13" points="415.76 181.01 344.23 225.23 344.24 225.24 344.34 225.26 349.63 233.8 366.64 261.33 435.22 218.92 438.1 217.14 415.76 181.01"/><polygon class="cls-3" points="344.1 244.09 344.1 225.23 366.98 261.1 366.98 279.96 344.1 244.09"/><polygon class="cls-26" points="366.98 261.1 366.98 279.96 437.48 236.05 437.48 217.19 366.98 261.1"/><polyline class="cls-10" points="688.09 73.89 775.62 217.59 775.59 217.6 775.4 217.54 758.24 227.99 702.94 261.68 619.01 123.9"/><polygon class="cls-23" points="758.77 251.36 775.86 217.71 702.54 260.97 685.45 294.62 758.77 251.36"/><polygon class="cls-21" points="702.54 260.97 685.45 294.62 599.46 152.41 616.55 118.76 702.54 260.97"/><polyline class="cls-10" points="703.54 42.14 791.07 185.84 791.04 185.86 790.85 185.79 773.68 196.25 718.39 229.93 634.46 92.15"/><polygon class="cls-23" points="774.22 219.61 791.31 185.96 717.99 229.22 700.9 262.87 774.22 219.61"/><polygon class="cls-21" points="717.99 229.22 700.9 262.87 614.91 120.66 631.99 87.01 717.99 229.22"/><polygon class="cls-10" points="721.1 16.99 808.07 152.84 808.04 152.86 807.85 152.79 790.68 163.25 735.39 196.93 651.46 59.15 647.94 53.36 721.1 16.99"/><polygon class="cls-23" points="791.22 186.61 808.31 152.96 734.99 196.22 717.9 229.87 791.22 186.61"/><polygon class="cls-21" points="734.99 196.22 717.9 229.87 631.91 87.66 648.99 54.01 734.99 196.22"/><polygon class="cls-10" points="787.06 146.4 787.13 146.42 787.14 146.42 787.06 146.29 786.99 146.44 787.06 146.4"/><polygon class="cls-14" points="759.79 162.99 765.96 150.83 766.01 150.91 772.27 138.6 740.79 86.55 740.68 86.77 734.62 98.71 734.57 98.63 728.32 110.94 728.45 111.16 722.66 122.56 754.14 174.61 760.14 162.78 759.79 162.99"/><polygon class="cls-4" points="772.27 138.6 790.49 127.84 792.65 126.53 798.93 122.7 799 122.73 799.01 122.72 767.18 73 740.41 86.31 740.68 86.77 740.79 86.55 772.27 138.6"/><polygon class="cls-9" points="792.85 135.08 799.1 122.76 790.49 127.84 772.27 138.6 766.01 150.91 765.96 150.83 759.79 162.99 760.14 162.78 754.14 174.61 780.97 158.78 787.22 146.46 786.87 146.67 786.99 146.44 787.06 146.29 792.72 135.15 792.85 135.08"/><polygon class="cls-10" points="744.06 73.4 744.13 73.42 744.14 73.42 744.06 73.29 743.99 73.44 744.06 73.4"/><polygon class="cls-14" points="716.79 89.99 722.96 77.83 723.01 77.91 729.27 65.6 697.79 13.55 697.68 13.77 691.62 25.71 691.57 25.63 685.32 37.94 685.45 38.16 679.66 49.56 711.14 101.61 717.14 89.78 716.79 89.99"/><polygon class="cls-4" points="729.27 65.6 747.49 54.84 749.65 53.53 755.93 49.7 756 49.73 756.01 49.72 724.18 0 697.41 13.31 697.68 13.77 697.79 13.55 729.27 65.6"/><polygon class="cls-9" points="749.85 62.08 756.1 49.76 747.49 54.84 729.27 65.6 723.01 77.91 722.96 77.83 716.79 89.99 717.14 89.78 711.14 101.61 737.97 85.78 744.22 73.46 743.87 73.67 743.99 73.44 744.06 73.29 749.72 62.15 749.85 62.08"/></g></svg>