<?xml version="1.0" encoding="UTF-8"?>
<svg id="Layer_2" data-name="Layer 2" xmlns="http://www.w3.org/2000/svg" viewBox="0 0 604.51 339.27">
  <defs>
    <style>
      .cls-1 {
        fill: #283037;
      }

      .cls-1, .cls-2, .cls-3, .cls-4, .cls-5, .cls-6 {
        stroke-width: 0px;
      }

      .cls-2 {
        fill: #d6d7cd;
      }

      .cls-3 {
        fill: #a73b44;
      }

      .cls-4 {
        fill: #de4656;
      }

      .cls-5 {
        fill: #305e6b;
      }

      .cls-6 {
        fill: #fff;
      }
    </style>
  </defs>
  <g id="Fishingboat">
    <g id="fishingboat">
      <g>
        <g>
          <path class="cls-4" d="M560.48,231.76c-36.55,12.86-71.4,30.18-108.39,41.78-26.44,8.29-53.75,13.19-80.41,20.5-33.13,9.08-40.67,17.05-89.08,23.65-42.53,5.8-104.79,4.16-140.71,20.5-14.83-.06-94.69,1.04-100.51-.79-8.7-2.73-33.33-48.19-30.74-49.66,142.51,22.45,287.76-1.5,427.26-32.32,42.98-9.5,85.88-20.1,127.71-33.9,2.53.51-3.08,9.08-5.12,10.25Z"/>
          <path class="cls-3" d="M560.48,231.76c-19.24,25.11-48.79,98.87-80.01,105.63-16.55,3.58-295.68.97-338.58.79,35.92-16.34,98.18-14.7,140.71-20.5,48.41-6.6,55.94-14.57,89.08-23.65,26.66-7.3,53.97-12.21,80.41-20.5,36.99-11.6,71.84-28.92,108.39-41.78Z"/>
        </g>
        <path class="cls-1" d="M586.49,195.5c-3.45,4.31-11.27,15.36-15.37,17.34-3.63,1.75-67.66,20.32-77.25,22.86-59.08,15.68-180.51,41.29-239.65,48.09-51.74,5.94-135.69,9.71-186.83,5.52-6.71-.55-57.91-7.4-60.7-8.67-2.35-1.08-8.25-18.53-6.31-18.92,87.91,25.95,223.88,13.05,314.93-2.36,90.91-15.39,180.22-39.02,268.02-67.01q3.55-.59,7.09-1.18c-1.5,1.31-2.7,2.78-3.94,4.34Z"/>
        <path class="cls-6" d="M571.12,212.84c-115.58,34.66-370.03,104.38-564.43,67.79,0,0-2.25,4.88,3.94,7.09,210.39,36.94,499.11-48.01,554.97-66.22,1.72-.56,5.52-8.67,5.52-8.67Z"/>
      </g>
      <g>
        <path class="cls-1" d="M167.9,69.77c83.68,18.29,166.69,41.79,250.29,61.09,53.78,12.42,111.98,26.09,165.84,38.13l-3.55,1.97c-43.13-9.89-90.74-20.98-133.91-30.65-46.52-10.42-92.42-23.54-138.74-34.69-46.28-11.14-92.85-21.2-139.14-32.32-1.28-.31-2.7-.49-3.94-.79-9.98-2.42-31.63-6.45-24.04-8.67q12.02,2.76,24.04,5.52"/>
        <path class="cls-1" d="M166.01,59.05c-23.08-4.08-11.19-6.94-10.42-7.02.9-.09,15.18.64,18.13.79,19.85,1.01,3.57,5.94-5.81,5.78v99.04c-.79,0-1.58,0-2.37,0"/>
      </g>
      <path class="cls-4" d="M586.64,183.74l-8.03-4.79c-1.81-.68,8.49-24.7,14.58-25.23,23.09,3.45,4.74,21.43-1.58,33.11l-4.98-3.09Z"/>
      <path class="cls-4" d="M176.59,52.82c-2.95-.15-17.23-.88-18.13-.79-2.34-14.77,7.02-7.51,8.67-9.85,1.21-1.73-1.74-42.17,1.18-42.17s-.03,40.45,1.18,42.17c1.54,2.2,9-4.95,7.09,10.64Z"/>
      <g>
        <g>
          <path class="cls-2" d="M131.64,171.85c.97,2.14.74,4.83.79,7.09l-.09,97.59c53.21-1.97,56.94-2.14,104.71-6.33,16.26-1.43,62.13-9.67,78.27-10.85,90.91-15.39,180.22-39.02,268.02-67.01l7.09-1.18,1.18-4.34c-.4-.21-10.95-6.91-13.01-7.88-6.23-2.97-4.4,2.79-9.85,5.52-4.3,2.15-80.44,23.55-92.23,26.8-45.59,12.57-92.39,23.8-138.35,33.5-3.17-7.29-6.56-14.64-10.25-21.68l-24.04-51.24c5.65-.17,23.19.26,26.01-.79,1.4-.52,1.07-2.3,1.18-2.36l-263.29-.79-.39,3.15c21.42.25,42.82.67,64.25.79"/>
          <path class="cls-5" d="M165.93,183.68c4.53-.77,34.67-.21,37.84,1.58,6.12,3.46,3.26,28.7,2.76,35.87-3.19,5.45-47.39,5.4-48.09-.79,2.47-10.74-6.37-34.29,7.49-36.66Z"/>
          <path class="cls-5" d="M247.91,183.68c23.55.57,17.77,5.54,16.95,37.44-1.22,5.77-41.59,3.4-43.75,2.76-6.19-1.83-3.21-30.25-2.76-36.66,1.32-3.29,24.08-3.68,29.56-3.55Z"/>
          <path class="cls-5" d="M310.55,184.11c5.97,13.18,12.21,25.81,18.92,38.63,0,.53.19,1.44-.39,1.58-2.67.63-52.15,2.07-53.21-4.34-.5-37.99-7.35-39.03,34.69-35.87Z"/>
        </g>
        <path class="cls-4" d="M165.54,157.66c.79,0,1.58,0,2.36,0,58.2-.1,116.41.07,174.61,0,3.26.79-8.19,9.23-11.43,11.04h-110.36c-24.06,0-142.52,1.24-152.93-.79-10.26-2-12.56-9.54-10.64-10.25,36.13-.05,72.26.06,108.39,0Z"/>
      </g>
    </g>
  </g>
</svg>