<?xml version="1.0" encoding="UTF-8"?>
<svg id="Layer_2" data-name="Layer 2" xmlns="http://www.w3.org/2000/svg" viewBox="0 0 433.24 854.16">
  <defs>
    <style>
      .cls-1 {
        fill: #f4d3c1;
      }

      .cls-1, .cls-2 {
        stroke-width: 0px;
      }

      .cls-2 {
        fill: #edc4b2;
      }
    </style>
  </defs>
  <g id="Hand">
    <g id="Hand-2" data-name="Hand">
      <g>
        <path class="cls-1" d="M372.57,440.31l-37,63-147,73-102-166c39-150,156-156.74,156-157l64,10,36.58,98.11,29.42,78.89Z"/>
        <path class="cls-1" d="M242.57,253.31l-45-96-13-65v-36c0-45,30-22,30-22l28.29,101.33,63.71,127.67-64-10Z"/>
        <path class="cls-1" d="M86.57,410.31s-56.66-84.74-67.2-104.6C1.43,271.87-2.68,227.89,1.5,217.05c10.92-28.3,22.07-3.74,22.07-3.74l34.76,62.57,55.24,68.43-27,66Z"/>
        <path class="cls-1" d="M120.57,333.31L37.87,189.57l-18.28-110.38s-4.19-13.88,14.66-13.88c18.85,0,47.32,106,47.32,106l82,116-43,46Z"/>
        <path class="cls-1" d="M171.57,281.31c-27.15-39.04-58.19-89.34-62-135-5-60-.28-102.63-.28-102.63,0,0-4.72-50.37,22.75-42.93,24.48,6.63,35.53,139.56,35.53,139.56l63,115-59,26Z"/>
        <path class="cls-1" d="M321.57,304.31s16.03-26.41,14-65c-2-38,8-108,8-108,13-44,37-25,37-25l19,113-27,221-51-136Z"/>
        <path class="cls-1" d="M187.26,593.35c-12.35-60.89-15.92-124.7,69.7-139.44,52.09-8.97,55.48-32.73,68.56,14.96,1.65,6,108.91,288.92,107.71,298.21-9.84,76.21-127.45,95.14-177.14,84.24-6.11-1.34-68.69-257.26-68.84-257.98Z"/>
      </g>
      <g>
        <path class="cls-2" d="M359.57,213.31c0,9.37-2,11-6,40-1.97,14.28-24,72-24,72l-8-21s15.03-37,14-52c-3.42-49.97,8-121,8-121,0,0,4-14,8-18,6.08-6.08,8,96,8,100Z"/>
        <path class="cls-2" d="M146.78,22.09s6.97,117.78,8.79,123.22c3,9,54.61,124.39,57,120,6-11,18-10,18-10,0,0-63-110.53-63-115,0-45-20.79-118.22-20.79-118.22Z"/>
        <polygon class="cls-2" points="329.57 325.31 301.53 263.31 242.86 135.64 306.57 263.31 329.57 325.31"/>
        <path class="cls-2" d="M158.57,296.31c3.26,13.05-82-127-82-127,0,0-40.78-112.87-29.37-91.68,21.37,39.68,34.37,93.68,34.37,93.68l82,116s-6,5-5,9Z"/>
        <path class="cls-2" d="M30.44,225.67l23.93,55.64s57.21,75,57.21,73c0-5.39,2-10,2-10l-55-68-28.13-50.64Z"/>
        <polygon class="cls-2" points="336.57 500.31 399.57 690.65 433.23 767.08 403.57 679.31 336.57 500.31"/>
      </g>
    </g>
  </g>
</svg>