<?xml version="1.0" encoding="UTF-8"?>
<svg id="Layer_2" data-name="Layer 2" xmlns="http://www.w3.org/2000/svg" viewBox="0 0 2459.5 445.42">
  <defs>
    <style>
      .cls-1 {
        fill: #b3b3b7;
        stroke-width: 0px;
      }
    </style>
  </defs>
  <g id="Sky">
    <path id="sky-four" class="cls-1" d="M2459.5,338.8c-34.01,7.22-87.34,56.42-151.71,64.45-105.74,13.18-172.38-63.57-260.25-58.92-126.26,6.68-135.77,65.1-294.19,80.59-257.59,25.19-386.31,7.46-535.37-12.59-130.99-17.62-161.08-44.75-285.37-43.64-99.95.9-191.61,19.44-223.59,25.91-134,27.11-155.59,54.3-229.47,50.45-76.89-4-90.83-35.38-167.69-34.09-59.85,1-73.9,20.41-135.33,24.54-42.67,2.88-100.82-2.11-176.52-31.36V0h2459.5v338.8Z"/>
  </g>
</svg>