<?xml version="1.0" encoding="UTF-8"?>
<svg id="Layer_2" data-name="Layer 2" xmlns="http://www.w3.org/2000/svg" viewBox="0 0 1921 1080.26">
  <defs>
    <style>
      .cls-1 {
        fill: #c5e8e8;
      }

      .cls-1, .cls-2, .cls-3, .cls-4, .cls-5, .cls-6, .cls-7 {
        stroke-width: 0px;
      }

      .cls-2 {
        fill: #d2f2f7;
      }

      .cls-3 {
        fill: #e1eaea;
      }

      .cls-4 {
        fill: #d6d6d6;
      }

      .cls-5 {
        fill: #d9f3f4;
      }

      .cls-6 {
        fill: #e1f7f9;
      }

      .cls-7 {
        fill: #f2f7f7;
      }
    </style>
  </defs>
  <g id="Store">
    <rect class="cls-4" x="1" y="26" width="1333" height="463"/>
    <rect class="cls-4" y="729" width="1338" height="351"/>
    <rect class="cls-3" x="1" y="689.98" width="1315" height="38.73"/>
    <polygon class="cls-7" points="1596.62 489.22 1 489.22 1 690 1674 690 1596.62 489.22"/>
    <rect class="cls-3" x="1" width="1333" height="26"/>
    <g>
      <polygon class="cls-2" points="1321.84 0 1312 1080 1334.3 1080 1338.24 0 1321.84 0"/>
      <polygon class="cls-6" points="1334.3 1080 1921 1080 1921 0 1338.24 0 1334.3 1080"/>
      <ellipse class="cls-7" cx="1547.34" cy="560" rx="78.34" ry="86"/>
      <path class="cls-2" d="M1621,592c-2.14,5.7-18.26,46.62-59,54-39.34,7.12-74.07-22.03-72-28,0,0,48,46,103-1,42.5-36.32,17-107,17-107,9,0,24.67,45.56,11,82Z"/>
    </g>
    <g>
      <g>
        <path class="cls-1" d="M802.55,689.64c5.43-32.73,3.2-183.35-44.79-277.88l-118.39-141.72h-26.66l117.32,147.98s51.19,101.93,49.06,271.74c0,.13,23.46-.13,23.46-.13Z"/>
        <path class="cls-5" d="M730.03,418.02c27.53,34.6,40.27,99.32,45.88,157.05,1.97,20.22,8.53,60.67,3.38,113.16-.08.84-.15,1.52-.2,1.98v-.44l-161.05-199.36-5.33-220.37,117.32,147.98Z"/>
      </g>
      <g>
        <path class="cls-1" d="M1265.55,689.64c5.43-32.73,3.2-183.35-44.79-277.88l-118.39-141.72h-26.66l117.32,147.98s51.19,101.93,49.06,271.74c0,.13,23.46-.13,23.46-.13Z"/>
        <path class="cls-5" d="M1193.03,418.02c27.53,34.6,40.27,99.32,45.88,157.05,1.97,20.22,8.53,60.67,3.38,113.16-.08.84-.15,1.52-.2,1.98v-.44l-161.05-199.36-5.33-220.37,117.32,147.98Z"/>
      </g>
    </g>
    <g>
      <g>
        <polygon class="cls-1" points="1233 1066 1115.16 917.93 1141.82 917.93 1267 1080 1242 1080 1233 1066"/>
        <path class="cls-5" d="M1242,1080s-9.08-13.71-9-14l-116.84-148.07,8.84,162.07"/>
      </g>
      <g>
        <polygon class="cls-1" points="730.64 1065.73 612.79 917.66 639.46 917.66 764.64 1079.73 739.64 1079.73 730.64 1065.73"/>
        <path class="cls-5" d="M739.64,1079.73s-9.08-13.71-9-14l-116.84-148.07,8.84,162.07"/>
      </g>
      <g>
        <polygon class="cls-1" points="224.5 1066.26 106.66 918.18 133.32 918.18 258.5 1080.26 233.5 1080.26 224.5 1066.26"/>
        <path class="cls-5" d="M233.5,1080.26s-9.08-13.71-9-14l-116.84-148.07,8.84,162.07"/>
      </g>
    </g>
  </g>
</svg>